<svg width="60" height="61" viewBox="0 0 60 61" fill="none" xmlns="http://www.w3.org/2000/svg">
<path d="M30 23.2372C28.5872 23.2377 27.2063 23.6641 26.0319 24.4625C24.8574 25.2609 23.9422 26.3954 23.4019 27.7225C22.8617 29.0497 22.7206 30.5099 22.9965 31.9186C23.2725 33.3272 23.9531 34.6211 24.9522 35.6365C25.9514 36.652 27.2243 37.3434 28.61 37.6235C29.9957 37.9035 31.4319 37.7595 32.7371 37.2097C34.0423 36.6599 35.1578 35.729 35.9427 34.5347C36.7275 33.3404 37.1464 31.9363 37.1464 30.5C37.145 28.5738 36.3915 26.7269 35.0516 25.365C33.7116 24.0032 31.8947 23.2379 30 23.2372ZM46.7022 17.6546C46.3386 16.7176 45.7894 15.8666 45.0888 15.1543C44.3882 14.442 43.5511 13.8837 42.6295 13.514C39.817 12.3852 33.1205 12.6384 30 12.6384C26.8795 12.6384 20.1897 12.3756 17.3692 13.514C16.4476 13.8837 15.6105 14.442 14.9099 15.1543C14.2093 15.8666 13.6601 16.7176 13.2964 17.6546C12.1875 20.514 12.4353 27.3288 12.4353 30.4986C12.4353 33.6685 12.1875 40.4751 13.3018 43.344C13.6655 44.281 14.2146 45.1321 14.9152 45.8444C15.6158 46.5566 16.4529 47.1149 17.3746 47.4847C20.1871 48.6135 26.8835 48.3602 30.0054 48.3602C33.1272 48.3602 39.8143 48.623 42.6348 47.4847C43.5565 47.1149 44.3935 46.5566 45.0941 45.8444C45.7947 45.1321 46.3439 44.281 46.7076 43.344C47.8259 40.4847 47.5687 33.6698 47.5687 30.5C47.5687 27.3302 47.8259 20.5249 46.7076 17.656L46.7022 17.6546ZM30 41.6652C27.8279 41.6652 25.7047 41.0104 23.8986 39.7835C22.0926 38.5567 20.685 36.8129 19.8538 34.7727C19.0226 32.7326 18.8051 30.4876 19.2289 28.3218C19.6526 26.1559 20.6986 24.1665 22.2345 22.605C23.7703 21.0435 25.7272 19.9802 27.8575 19.5494C29.9878 19.1185 32.196 19.3397 34.2027 20.1847C36.2094 21.0298 37.9246 22.4609 39.1313 24.297C40.3381 26.1331 40.9821 28.2917 40.9821 30.5C40.9839 31.9667 40.701 33.4194 40.1498 34.7748C39.5985 36.1303 38.7896 37.3618 37.7695 38.399C36.7493 39.4361 35.538 40.2585 34.2048 40.8189C32.8716 41.3794 31.4427 41.667 30 41.6652ZM41.4348 21.4725C40.9278 21.4728 40.432 21.3202 40.0103 21.034C39.5886 20.7478 39.2598 20.3409 39.0656 19.8647C38.8714 19.3885 38.8204 18.8645 38.9192 18.3588C39.0179 17.8532 39.262 17.3887 39.6204 17.0241C39.9789 16.6595 40.4356 16.4112 40.9329 16.3105C41.4302 16.2098 41.9457 16.2614 42.4141 16.4586C42.8826 16.6558 43.283 16.9898 43.5648 17.4184C43.8465 17.847 43.9969 18.3509 43.9969 18.8664C43.9983 19.2088 43.9332 19.548 43.8054 19.8647C43.6775 20.1814 43.4894 20.4693 43.2519 20.7119C43.0144 20.9546 42.7321 21.1471 42.4212 21.2786C42.1103 21.4101 41.7769 21.4778 41.4402 21.478L41.4348 21.4725ZM53.5714 0H6.42857C4.72361 0 3.08848 0.688582 1.88288 1.91427C0.677294 3.13995 0 4.80234 0 6.53571L0 54.4643C0 56.1977 0.677294 57.86 1.88288 59.0857C3.08848 60.3114 4.72361 61 6.42857 61H53.5714C55.2764 61 56.9115 60.3114 58.1171 59.0857C59.3227 57.86 60 56.1977 60 54.4643V6.53571C60 4.80234 59.3227 3.13995 58.1171 1.91427C56.9115 0.688582 55.2764 0 53.5714 0ZM51.2786 39.4866C51.1058 42.9764 50.3223 46.0686 47.8165 48.6094C45.3107 51.1501 42.2719 51.963 38.8433 52.1291C35.3062 52.332 24.7018 52.332 21.1647 52.1291C17.7321 51.9535 14.7013 51.1556 12.1915 48.6094C9.6817 46.0632 8.89286 42.9696 8.72946 39.4866C8.52991 35.8892 8.52991 25.1067 8.72946 21.5134C8.90223 18.0236 9.67634 14.9314 12.1915 12.3906C14.7067 9.84987 17.7455 9.04652 21.1647 8.8804C24.7018 8.67752 35.3062 8.67752 38.8433 8.8804C42.2759 9.05605 45.3161 9.85395 47.8165 12.4002C50.317 14.9464 51.1152 18.0399 51.2786 21.5297C51.4781 25.1135 51.4781 35.8865 51.2786 39.4866Z" fill="white"/>
</svg>
