<svg width="60" height="59" viewBox="0 0 60 59" fill="none" xmlns="http://www.w3.org/2000/svg">
<path fill-rule="evenodd" clip-rule="evenodd" d="M2.5 6.97692C2.5 5.77856 2.98412 4.62928 3.84585 3.78192C4.70757 2.93455 5.87633 2.4585 7.095 2.4585H52.9C53.5039 2.45753 54.1021 2.57371 54.6604 2.80037C55.2186 3.02704 55.7258 3.35975 56.1531 3.77945C56.5804 4.19916 56.9193 4.69761 57.1504 5.24628C57.3815 5.79494 57.5003 6.38305 57.5 6.97692V52.0185C57.5007 52.6125 57.3822 53.2008 57.1514 53.7497C56.9206 54.2986 56.5821 54.7974 56.155 55.2176C55.728 55.6377 55.221 55.9709 54.6629 56.1981C54.1048 56.4254 53.5066 56.5422 52.9025 56.5418H7.095C6.49137 56.5418 5.89365 56.4249 5.33599 56.1977C4.77834 55.9704 4.27168 55.6374 3.84496 55.2176C3.41824 54.7977 3.07983 54.2993 2.84906 53.7508C2.61828 53.2024 2.49967 52.6145 2.5 52.021V6.97692ZM24.27 23.079H31.7175V26.7567C32.7925 24.6425 35.5425 22.7398 39.675 22.7398C47.5975 22.7398 49.475 26.9509 49.475 34.6774V48.9898H41.4575V36.4376C41.4575 32.0372 40.3825 29.5543 37.6525 29.5543C33.865 29.5543 32.29 32.2314 32.29 36.4376V48.9898H24.27V23.079ZM10.52 48.653H18.54V22.7398H10.52V48.6506V48.653ZM19.6875 14.288C19.7026 14.9632 19.5804 15.6346 19.3281 16.2628C19.0758 16.891 18.6984 17.4633 18.2181 17.9461C17.7378 18.4289 17.1642 18.8125 16.5311 19.0744C15.898 19.3363 15.2181 19.4712 14.5313 19.4712C13.8444 19.4712 13.1645 19.3363 12.5314 19.0744C11.8983 18.8125 11.3247 18.4289 10.8444 17.9461C10.3641 17.4633 9.98673 16.891 9.7344 16.2628C9.48207 15.6346 9.35988 14.9632 9.375 14.288C9.40468 12.9626 9.96096 11.7013 10.9247 10.7743C11.8885 9.84722 13.1831 9.32811 14.5313 9.32811C15.8794 9.32811 17.174 9.84722 18.1378 10.7743C19.1015 11.7013 19.6578 12.9626 19.6875 14.288Z" fill="white"/>
</svg>
