<svg width="62" height="61" viewBox="0 0 62 61" fill="none" xmlns="http://www.w3.org/2000/svg">
<g clip-path="url(#clip0_41_1367)">
<path fill-rule="evenodd" clip-rule="evenodd" d="M44.9887 36.5544C44.2189 36.1756 40.4447 34.3507 39.742 34.0966C39.0393 33.8449 38.5278 33.7204 38.0137 34.4778C37.5022 35.2301 36.0323 36.9331 35.5854 37.4363C35.1359 37.9421 34.689 38.0031 33.9217 37.6269C33.1545 37.2457 30.6797 36.4501 27.7476 33.878C25.4665 31.8751 23.9242 29.4021 23.4773 28.6447C23.0304 27.8898 23.4282 27.4806 23.8132 27.1044C24.1593 26.7664 24.5804 26.2225 24.9653 25.7828C25.3502 25.3405 25.4768 25.0254 25.7326 24.5196C25.9909 24.0163 25.8617 23.5766 25.668 23.1979C25.4768 22.8192 23.9423 19.1007 23.3017 17.5884C22.6791 16.1168 22.0462 16.3176 21.576 16.2922C21.1265 16.2719 20.615 16.2668 20.1035 16.2668C19.592 16.2668 18.7602 16.4549 18.0575 17.2123C17.3522 17.9671 15.3708 19.7946 15.3708 23.5131C15.3708 27.229 18.1195 30.8204 18.5044 31.3261C18.8893 31.8294 23.9165 39.4595 31.6174 42.7306C33.4516 43.5084 34.8802 43.9735 35.9936 44.3191C37.8329 44.8961 39.5069 44.8148 40.8296 44.6191C42.3021 44.403 45.3711 42.7916 46.0117 41.0277C46.6498 39.2638 46.6498 37.7515 46.4587 37.4363C46.2675 37.1211 45.756 36.9331 44.9862 36.5544H44.9887ZM30.9819 55.3703H30.9716C26.3976 55.3711 21.9076 54.1614 17.9722 51.8679L17.0422 51.324L7.37542 53.8199L9.95617 44.5479L9.34908 43.5973C6.79194 39.5925 5.43868 34.9576 5.44567 30.2281C5.45083 16.3761 16.9053 5.10631 30.9922 5.10631C37.8122 5.10631 44.2241 7.72423 49.0446 12.4721C51.4222 14.8017 53.3067 17.5721 54.5891 20.6229C55.8715 23.6738 56.5263 26.9445 56.5156 30.2459C56.5104 44.098 45.0559 55.3703 30.9819 55.3703ZM52.7129 8.86544C49.8666 6.04653 46.4799 3.81143 42.7492 2.28964C39.0185 0.76785 35.0179 -0.0103605 30.9793 0.000104151C14.0482 0.000104151 0.2635 13.5599 0.258333 30.2256C0.250488 35.5294 1.66463 40.7415 4.35808 45.3358L0 61.0001L16.2853 56.7962C20.7903 59.2111 25.8387 60.4764 30.969 60.4765H30.9819C47.9131 60.4765 61.6977 46.9167 61.7029 30.2485C61.7154 26.2766 60.9273 22.3416 59.3842 18.6713C57.8411 15.0009 55.5736 11.6681 52.7129 8.86544Z" fill="white"/>
</g>
<defs>
<clipPath id="clip0_41_1367">
<rect width="62" height="61" fill="white"/>
</clipPath>
</defs>
</svg>
