<svg width="84" height="96" viewBox="0 0 84 96" fill="none" xmlns="http://www.w3.org/2000/svg">
<circle cx="41.6094" cy="34.291" r="34.291" fill="#C9C9C9"/>
<path d="M7.82412 81.0314V73.7586H10.736C11.2711 73.7586 11.7173 73.838 12.0748 73.9966C12.4323 74.1552 12.701 74.3754 12.8809 74.6571C13.0609 74.9364 13.1508 75.2584 13.1508 75.623C13.1508 75.9071 13.094 76.1568 12.9804 76.3723C12.8667 76.5853 12.7105 76.7605 12.5116 76.8978C12.3151 77.0328 12.0902 77.1287 11.8369 77.1855V77.2565C12.1139 77.2684 12.3731 77.3465 12.6146 77.4909C12.8584 77.6353 13.0561 77.8377 13.2076 78.0981C13.3592 78.3562 13.4349 78.6639 13.4349 79.0214C13.4349 79.4073 13.339 79.7518 13.1473 80.0548C12.9579 80.3555 12.6773 80.5934 12.3056 80.7686C11.934 80.9438 11.4759 81.0314 10.9314 81.0314H7.82412ZM9.36176 79.7743H10.6153C11.0438 79.7743 11.3563 79.6926 11.5528 79.5292C11.7493 79.3635 11.8476 79.1434 11.8476 78.8687C11.8476 78.6675 11.799 78.4899 11.702 78.3361C11.6049 78.1822 11.4664 78.0614 11.2865 77.9738C11.1089 77.8862 10.897 77.8425 10.6508 77.8425H9.36176V79.7743ZM9.36176 76.802H10.5017C10.7124 76.802 10.8994 76.7653 11.0628 76.6919C11.2285 76.6161 11.3587 76.5096 11.4534 76.3723C11.5504 76.235 11.599 76.0704 11.599 75.8787C11.599 75.6159 11.5055 75.404 11.3184 75.243C11.1338 75.082 10.871 75.0015 10.5301 75.0015H9.36176V76.802ZM15.9624 81.1344C15.6144 81.1344 15.3043 81.074 15.032 80.9532C14.7598 80.8301 14.5443 80.649 14.3857 80.4099C14.2295 80.1684 14.1514 79.8678 14.1514 79.5079C14.1514 79.2049 14.207 78.9504 14.3183 78.7444C14.4295 78.5385 14.581 78.3728 14.7728 78.2473C14.9646 78.1218 15.1824 78.0271 15.4262 77.9632C15.6724 77.8993 15.9305 77.8543 16.2004 77.8282C16.5176 77.7951 16.7733 77.7643 16.9674 77.7359C17.1615 77.7051 17.3024 77.6602 17.39 77.601C17.4776 77.5418 17.5214 77.4542 17.5214 77.3382V77.3169C17.5214 77.092 17.4504 76.918 17.3083 76.7949C17.1686 76.6718 16.9698 76.6102 16.7117 76.6102C16.4395 76.6102 16.2228 76.6706 16.0619 76.7913C15.9009 76.9097 15.7943 77.0588 15.7423 77.2388L14.3431 77.1251C14.4141 76.7937 14.5538 76.5072 14.7621 76.2657C14.9705 76.0219 15.2392 75.8349 15.5683 75.7047C15.8997 75.5721 16.2832 75.5058 16.7188 75.5058C17.0219 75.5058 17.3119 75.5413 17.5889 75.6123C17.8682 75.6834 18.1156 75.7934 18.331 75.9426C18.5488 76.0917 18.7205 76.2835 18.846 76.5179C18.9714 76.7499 19.0342 77.0281 19.0342 77.3524V81.0314H17.5995V80.275H17.5569C17.4693 80.4454 17.3521 80.5958 17.2053 80.726C17.0585 80.8538 16.8822 80.9544 16.6762 81.0278C16.4702 81.0988 16.2323 81.1344 15.9624 81.1344ZM16.3957 80.0903C16.6182 80.0903 16.8147 80.0465 16.9852 79.9589C17.1556 79.869 17.2894 79.7482 17.3864 79.5967C17.4835 79.4452 17.532 79.2736 17.532 79.0818V78.503C17.4847 78.5337 17.4196 78.5621 17.3367 78.5882C17.2562 78.6119 17.1651 78.6344 17.0633 78.6557C16.9615 78.6746 16.8597 78.6924 16.7579 78.7089C16.6561 78.7231 16.5638 78.7362 16.4809 78.748C16.3033 78.774 16.1483 78.8155 16.0157 78.8723C15.8831 78.9291 15.7801 79.006 15.7068 79.1031C15.6334 79.1978 15.5967 79.3162 15.5967 79.4582C15.5967 79.6642 15.6712 79.8216 15.8204 79.9305C15.9719 80.0371 16.1637 80.0903 16.3957 80.0903ZM24.7462 77.1322L23.3612 77.2175C23.3376 77.0991 23.2867 76.9925 23.2085 76.8978C23.1304 76.8008 23.0274 76.7238 22.8996 76.667C22.7741 76.6078 22.6238 76.5782 22.4486 76.5782C22.2142 76.5782 22.0165 76.628 21.8555 76.7274C21.6946 76.8245 21.6141 76.9547 21.6141 77.118C21.6141 77.2482 21.6661 77.3583 21.7703 77.4483C21.8745 77.5382 22.0532 77.6104 22.3065 77.6649L23.2938 77.8638C23.8241 77.9727 24.2194 78.1478 24.4798 78.3893C24.7402 78.6308 24.8705 78.948 24.8705 79.341C24.8705 79.6985 24.7651 80.0122 24.5544 80.2821C24.3461 80.552 24.0596 80.7627 23.695 80.9142C23.3328 81.0633 22.915 81.1379 22.4415 81.1379C21.7194 81.1379 21.1441 80.9876 20.7156 80.6869C20.2895 80.3839 20.0397 79.9719 19.9663 79.4511L21.4543 79.373C21.4992 79.5932 21.6081 79.7612 21.781 79.8773C21.9538 79.9909 22.1751 80.0477 22.445 80.0477C22.7102 80.0477 22.9233 79.9968 23.0842 79.895C23.2476 79.7908 23.3304 79.6571 23.3328 79.4937C23.3304 79.3564 23.2724 79.244 23.1588 79.1564C23.0452 79.0664 22.87 78.9978 22.6332 78.9504L21.6886 78.7622C21.156 78.6557 20.7594 78.471 20.499 78.2082C20.241 77.9454 20.1119 77.6104 20.1119 77.2032C20.1119 76.8529 20.2066 76.551 20.396 76.2977C20.5878 76.0444 20.8565 75.8491 21.2021 75.7118C21.5501 75.5745 21.9573 75.5058 22.4237 75.5058C23.1126 75.5058 23.6548 75.6514 24.0501 75.9426C24.4479 76.2338 24.6799 76.6303 24.7462 77.1322ZM28.3088 81.1379C27.7478 81.1379 27.2648 81.0243 26.86 80.797C26.4575 80.5674 26.1474 80.243 25.9296 79.824C25.7118 79.4026 25.6029 78.9042 25.6029 78.329C25.6029 77.7679 25.7118 77.2755 25.9296 76.8517C26.1474 76.4279 26.454 76.0977 26.8493 75.8609C27.2471 75.6242 27.7134 75.5058 28.2485 75.5058C28.6083 75.5058 28.9433 75.5638 29.2534 75.6798C29.5659 75.7934 29.8382 75.9651 30.0702 76.1947C30.3046 76.4244 30.4869 76.7132 30.6171 77.0612C30.7473 77.4068 30.8124 77.8117 30.8124 78.2757V78.6912H26.2066V77.7537H29.3884C29.3884 77.5359 29.341 77.3429 29.2463 77.1748C29.1516 77.0068 29.0203 76.8754 28.8522 76.7807C28.6864 76.6836 28.4935 76.6351 28.2733 76.6351C28.0437 76.6351 27.8401 76.6883 27.6625 76.7949C27.4873 76.899 27.35 77.0399 27.2506 77.2175C27.1512 77.3926 27.1003 77.588 27.0979 77.8034V78.6947C27.0979 78.9646 27.1476 79.1978 27.2471 79.3943C27.3489 79.5908 27.4921 79.7423 27.6767 79.8488C27.8614 79.9554 28.0804 80.0086 28.3337 80.0086C28.5018 80.0086 28.6557 79.985 28.7954 79.9376C28.935 79.8903 29.0546 79.8193 29.154 79.7246C29.2534 79.6299 29.3292 79.5139 29.3813 79.3765L30.7804 79.4689C30.7094 79.805 30.5638 80.0986 30.3436 80.3496C30.1258 80.5981 29.8441 80.7923 29.4985 80.9319C29.1552 81.0693 28.7587 81.1379 28.3088 81.1379ZM36.124 81.1202C35.7097 81.1202 35.3345 81.0136 34.9983 80.8005C34.6645 80.5851 34.3993 80.2691 34.2028 79.8524C34.0087 79.4334 33.9117 78.9196 33.9117 78.3112C33.9117 77.6862 34.0123 77.1666 34.2135 76.7523C34.4147 76.3356 34.6822 76.0243 35.0161 75.8183C35.3522 75.61 35.7204 75.5058 36.1205 75.5058C36.4259 75.5058 36.6804 75.5579 36.884 75.6621C37.0899 75.7639 37.2556 75.8917 37.3811 76.0456C37.509 76.1971 37.606 76.3462 37.6723 76.493H37.7185V73.7586H39.2277V81.0314H37.7362V80.1578H37.6723C37.6013 80.3093 37.5007 80.4596 37.3705 80.6088C37.2426 80.7556 37.0757 80.8775 36.8697 80.9746C36.6661 81.0716 36.4176 81.1202 36.124 81.1202ZM36.6034 79.9163C36.8473 79.9163 37.0532 79.85 37.2213 79.7175C37.3918 79.5825 37.522 79.3943 37.6119 79.1528C37.7043 78.9113 37.7504 78.6284 37.7504 78.3041C37.7504 77.9798 37.7054 77.698 37.6155 77.4589C37.5255 77.2198 37.3953 77.0352 37.2249 76.905C37.0544 76.7747 36.8473 76.7096 36.6034 76.7096C36.3548 76.7096 36.1453 76.7771 35.9749 76.9121C35.8044 77.047 35.6754 77.234 35.5878 77.4731C35.5002 77.7122 35.4564 77.9892 35.4564 78.3041C35.4564 78.6213 35.5002 78.9019 35.5878 79.1457C35.6777 79.3872 35.8068 79.5766 35.9749 79.7139C36.1453 79.8488 36.3548 79.9163 36.6034 79.9163ZM42.9573 81.1379C42.3962 81.1379 41.9132 81.0243 41.5084 80.797C41.106 80.5674 40.7958 80.243 40.578 79.824C40.3602 79.4026 40.2513 78.9042 40.2513 78.329C40.2513 77.7679 40.3602 77.2755 40.578 76.8517C40.7958 76.4279 41.1024 76.0977 41.4978 75.8609C41.8955 75.6242 42.3619 75.5058 42.8969 75.5058C43.2568 75.5058 43.5918 75.5638 43.9019 75.6798C44.2144 75.7934 44.4866 75.9651 44.7186 76.1947C44.953 76.4244 45.1353 76.7132 45.2655 77.0612C45.3957 77.4068 45.4608 77.8117 45.4608 78.2757V78.6912H40.855V77.7537H44.0368C44.0368 77.5359 43.9895 77.3429 43.8948 77.1748C43.8001 77.0068 43.6687 76.8754 43.5006 76.7807C43.3349 76.6836 43.1419 76.6351 42.9218 76.6351C42.6921 76.6351 42.4885 76.6883 42.311 76.7949C42.1358 76.899 41.9985 77.0399 41.899 77.2175C41.7996 77.3926 41.7487 77.588 41.7463 77.8034V78.6947C41.7463 78.9646 41.7961 79.1978 41.8955 79.3943C41.9973 79.5908 42.1405 79.7423 42.3252 79.8488C42.5098 79.9554 42.7288 80.0086 42.9821 80.0086C43.1502 80.0086 43.3041 79.985 43.4438 79.9376C43.5835 79.8903 43.703 79.8193 43.8025 79.7246C43.9019 79.6299 43.9776 79.5139 44.0297 79.3765L45.4289 79.4689C45.3579 79.805 45.2123 80.0986 44.9921 80.3496C44.7743 80.5981 44.4926 80.7923 44.1469 80.9319C43.8036 81.0693 43.4071 81.1379 42.9573 81.1379ZM50.7724 81.1202C50.3581 81.1202 49.9829 81.0136 49.6467 80.8005C49.3129 80.5851 49.0478 80.2691 48.8513 79.8524C48.6572 79.4334 48.5601 78.9196 48.5601 78.3112C48.5601 77.6862 48.6607 77.1666 48.8619 76.7523C49.0632 76.3356 49.3307 76.0243 49.6645 75.8183C50.0007 75.61 50.3688 75.5058 50.7689 75.5058C51.0743 75.5058 51.3288 75.5579 51.5324 75.6621C51.7384 75.7639 51.9041 75.8917 52.0295 76.0456C52.1574 76.1971 52.2545 76.3462 52.3207 76.493H52.3669V73.7586H53.8761V81.0314H52.3847V80.1578H52.3207C52.2497 80.3093 52.1491 80.4596 52.0189 80.6088C51.8911 80.7556 51.7242 80.8775 51.5182 80.9746C51.3146 81.0716 51.066 81.1202 50.7724 81.1202ZM51.2518 79.9163C51.4957 79.9163 51.7017 79.85 51.8697 79.7175C52.0402 79.5825 52.1704 79.3943 52.2604 79.1528C52.3527 78.9113 52.3989 78.6284 52.3989 78.3041C52.3989 77.9798 52.3539 77.698 52.2639 77.4589C52.174 77.2198 52.0438 77.0352 51.8733 76.905C51.7028 76.7747 51.4957 76.7096 51.2518 76.7096C51.0033 76.7096 50.7938 76.7771 50.6233 76.9121C50.4528 77.047 50.3238 77.234 50.2362 77.4731C50.1486 77.7122 50.1048 77.9892 50.1048 78.3041C50.1048 78.6213 50.1486 78.9019 50.2362 79.1457C50.3262 79.3872 50.4552 79.5766 50.6233 79.7139C50.7938 79.8488 51.0033 79.9163 51.2518 79.9163ZM56.6753 81.1344C56.3273 81.1344 56.0172 81.074 55.7449 80.9532C55.4727 80.8301 55.2572 80.649 55.0986 80.4099C54.9424 80.1684 54.8642 79.8678 54.8642 79.5079C54.8642 79.2049 54.9199 78.9504 55.0311 78.7444C55.1424 78.5385 55.2939 78.3728 55.4857 78.2473C55.6775 78.1218 55.8953 78.0271 56.1391 77.9632C56.3853 77.8993 56.6434 77.8543 56.9132 77.8282C57.2305 77.7951 57.4862 77.7643 57.6803 77.7359C57.8744 77.7051 58.0153 77.6602 58.1029 77.601C58.1905 77.5418 58.2343 77.4542 58.2343 77.3382V77.3169C58.2343 77.092 58.1632 76.918 58.0212 76.7949C57.8815 76.6718 57.6827 76.6102 57.4246 76.6102C57.1524 76.6102 56.9357 76.6706 56.7748 76.7913C56.6138 76.9097 56.5072 77.0588 56.4552 77.2388L55.056 77.1251C55.127 76.7937 55.2667 76.5072 55.475 76.2657C55.6834 76.0219 55.9521 75.8349 56.2811 75.7047C56.6126 75.5721 56.9961 75.5058 57.4317 75.5058C57.7347 75.5058 58.0248 75.5413 58.3017 75.6123C58.5811 75.6834 58.8285 75.7934 59.0439 75.9426C59.2617 76.0917 59.4334 76.2835 59.5588 76.5179C59.6843 76.7499 59.7471 77.0281 59.7471 77.3524V81.0314H58.3124V80.275H58.2698C58.1822 80.4454 58.065 80.5958 57.9182 80.726C57.7714 80.8538 57.5951 80.9544 57.3891 81.0278C57.1831 81.0988 56.9452 81.1344 56.6753 81.1344ZM57.1086 80.0903C57.3311 80.0903 57.5276 80.0465 57.698 79.9589C57.8685 79.869 58.0023 79.7482 58.0993 79.5967C58.1964 79.4452 58.2449 79.2736 58.2449 79.0818V78.503C58.1976 78.5337 58.1325 78.5621 58.0496 78.5882C57.9691 78.6119 57.878 78.6344 57.7762 78.6557C57.6744 78.6746 57.5726 78.6924 57.4708 78.7089C57.369 78.7231 57.2766 78.7362 57.1938 78.748C57.0162 78.774 56.8612 78.8155 56.7286 78.8723C56.596 78.9291 56.493 79.006 56.4196 79.1031C56.3463 79.1978 56.3096 79.3162 56.3096 79.4582C56.3096 79.6642 56.3841 79.8216 56.5333 79.9305C56.6848 80.0371 56.8766 80.0903 57.1086 80.0903ZM63.822 75.5768V76.7132H60.5372V75.5768H63.822ZM61.2829 74.27H62.7957V79.3552C62.7957 79.4949 62.817 79.6038 62.8596 79.6819C62.9022 79.7577 62.9614 79.811 63.0372 79.8417C63.1153 79.8725 63.2053 79.8879 63.3071 79.8879C63.3781 79.8879 63.4491 79.882 63.5201 79.8702C63.5912 79.8559 63.6456 79.8453 63.6835 79.8382L63.9214 80.9639C63.8457 80.9876 63.7391 81.0148 63.6018 81.0456C63.4645 81.0787 63.2976 81.0988 63.1011 81.1059C62.7365 81.1202 62.4169 81.0716 62.1423 80.9603C61.87 80.8491 61.6582 80.6763 61.5066 80.4419C61.3551 80.2075 61.2806 79.9116 61.2829 79.5541V74.27ZM67.2133 81.1379C66.6617 81.1379 66.1847 81.0207 65.7822 80.7863C65.3821 80.5496 65.0732 80.2205 64.8554 79.7991C64.6376 79.3754 64.5287 78.8841 64.5287 78.3254C64.5287 77.762 64.6376 77.2695 64.8554 76.8481C65.0732 76.4244 65.3821 76.0953 65.7822 75.8609C66.1847 75.6242 66.6617 75.5058 67.2133 75.5058C67.7649 75.5058 68.2408 75.6242 68.6409 75.8609C69.0433 76.0953 69.3535 76.4244 69.5713 76.8481C69.7891 77.2695 69.898 77.762 69.898 78.3254C69.898 78.8841 69.7891 79.3754 69.5713 79.7991C69.3535 80.2205 69.0433 80.5496 68.6409 80.7863C68.2408 81.0207 67.7649 81.1379 67.2133 81.1379ZM67.2204 79.966C67.4714 79.966 67.6809 79.895 67.849 79.753C68.0171 79.6086 68.1437 79.4121 68.2289 79.1635C68.3165 78.9149 68.3603 78.632 68.3603 78.3148C68.3603 77.9975 68.3165 77.7146 68.2289 77.466C68.1437 77.2175 68.0171 77.021 67.849 76.8765C67.6809 76.7321 67.4714 76.6599 67.2204 76.6599C66.9671 76.6599 66.754 76.7321 66.5812 76.8765C66.4108 77.021 66.2817 77.2175 66.1941 77.466C66.1089 77.7146 66.0663 77.9975 66.0663 78.3148C66.0663 78.632 66.1089 78.9149 66.1941 79.1635C66.2817 79.4121 66.4108 79.6086 66.5812 79.753C66.754 79.895 66.9671 79.966 67.2204 79.966ZM75.42 77.1322L74.0351 77.2175C74.0114 77.0991 73.9605 76.9925 73.8824 76.8978C73.8042 76.8008 73.7012 76.7238 73.5734 76.667C73.4479 76.6078 73.2976 76.5782 73.1224 76.5782C72.888 76.5782 72.6904 76.628 72.5294 76.7274C72.3684 76.8245 72.2879 76.9547 72.2879 77.118C72.2879 77.2482 72.34 77.3583 72.4441 77.4483C72.5483 77.5382 72.7271 77.6104 72.9804 77.6649L73.9676 77.8638C74.4979 77.9727 74.8932 78.1478 75.1537 78.3893C75.4141 78.6308 75.5443 78.948 75.5443 79.341C75.5443 79.6985 75.4389 80.0122 75.2282 80.2821C75.0199 80.552 74.7334 80.7627 74.3689 80.9142C74.0066 81.0633 73.5888 81.1379 73.1153 81.1379C72.3932 81.1379 71.818 80.9876 71.3895 80.6869C70.9633 80.3839 70.7136 79.9719 70.6402 79.4511L72.1281 79.373C72.1731 79.5932 72.282 79.7612 72.4548 79.8773C72.6276 79.9909 72.849 80.0477 73.1189 80.0477C73.384 80.0477 73.5971 79.9968 73.7581 79.895C73.9214 79.7908 74.0043 79.6571 74.0066 79.4937C74.0043 79.3564 73.9463 79.244 73.8326 79.1564C73.719 79.0664 73.5438 78.9978 73.3071 78.9504L72.3625 78.7622C71.8298 78.6557 71.4333 78.471 71.1728 78.2082C70.9148 77.9454 70.7858 77.6104 70.7858 77.2032C70.7858 76.8529 70.8805 76.551 71.0699 76.2977C71.2616 76.0444 71.5303 75.8491 71.876 75.7118C72.224 75.5745 72.6312 75.5058 73.0976 75.5058C73.7865 75.5058 74.3286 75.6514 74.724 75.9426C75.1217 76.2338 75.3537 76.6303 75.42 77.1322ZM17.3159 93.1379C16.7642 93.1379 16.2872 93.0207 15.8848 92.7863C15.4847 92.5496 15.1757 92.2205 14.9579 91.7991C14.7401 91.3754 14.6312 90.8841 14.6312 90.3254C14.6312 89.762 14.7401 89.2695 14.9579 88.8481C15.1757 88.4244 15.4847 88.0953 15.8848 87.8609C16.2872 87.6242 16.7642 87.5058 17.3159 87.5058C17.8675 87.5058 18.3433 87.6242 18.7434 87.8609C19.1459 88.0953 19.456 88.4244 19.6738 88.8481C19.8916 89.2695 20.0005 89.762 20.0005 90.3254C20.0005 90.8841 19.8916 91.3754 19.6738 91.7991C19.456 92.2205 19.1459 92.5496 18.7434 92.7863C18.3433 93.0207 17.8675 93.1379 17.3159 93.1379ZM17.323 91.966C17.5739 91.966 17.7834 91.895 17.9515 91.753C18.1196 91.6086 18.2463 91.4121 18.3315 91.1635C18.4191 90.9149 18.4629 90.632 18.4629 90.3148C18.4629 89.9975 18.4191 89.7146 18.3315 89.466C18.2463 89.2175 18.1196 89.021 17.9515 88.8765C17.7834 88.7321 17.5739 88.6599 17.323 88.6599C17.0696 88.6599 16.8566 88.7321 16.6838 88.8765C16.5133 89.021 16.3843 89.2175 16.2967 89.466C16.2115 89.7146 16.1688 89.9975 16.1688 90.3148C16.1688 90.632 16.2115 90.9149 16.2967 91.1635C16.3843 91.4121 16.5133 91.6086 16.6838 91.753C16.8566 91.895 17.0696 91.966 17.323 91.966ZM20.9842 95.0768V87.5768H22.4757V88.493H22.5431C22.6094 88.3462 22.7053 88.1971 22.8308 88.0456C22.9586 87.8917 23.1243 87.7639 23.3279 87.6621C23.5339 87.5579 23.7896 87.5058 24.095 87.5058C24.4927 87.5058 24.8597 87.61 25.1958 87.8183C25.532 88.0243 25.8007 88.3356 26.0019 88.7523C26.2032 89.1666 26.3038 89.6862 26.3038 90.3112C26.3038 90.9196 26.2055 91.4334 26.009 91.8524C25.8149 92.2691 25.5498 92.5851 25.2136 92.8005C24.8798 93.0136 24.5057 93.1202 24.0914 93.1202C23.7979 93.1202 23.5481 93.0716 23.3421 92.9746C23.1385 92.8775 22.9716 92.7556 22.8414 92.6088C22.7112 92.4596 22.6118 92.3093 22.5431 92.1578H22.497V95.0768H20.9842ZM22.465 90.3041C22.465 90.6284 22.51 90.9113 22.5999 91.1528C22.6899 91.3943 22.8201 91.5825 22.9906 91.7175C23.161 91.85 23.3682 91.9163 23.612 91.9163C23.8582 91.9163 24.0666 91.8488 24.237 91.7139C24.4075 91.5766 24.5365 91.3872 24.6241 91.1457C24.7141 90.9019 24.759 90.6213 24.759 90.3041C24.759 89.9892 24.7152 89.7122 24.6276 89.4731C24.5401 89.234 24.411 89.047 24.2406 88.9121C24.0701 88.7771 23.8606 88.7096 23.612 88.7096C23.3658 88.7096 23.1575 88.7747 22.987 88.905C22.8189 89.0352 22.6899 89.2198 22.5999 89.4589C22.51 89.698 22.465 89.9798 22.465 90.3041ZM30.2136 87.5768V88.7132H26.9288V87.5768H30.2136ZM27.6745 86.27H29.1873V91.3552C29.1873 91.4949 29.2086 91.6038 29.2512 91.6819C29.2938 91.7577 29.353 91.811 29.4288 91.8417C29.5069 91.8725 29.5969 91.8879 29.6987 91.8879C29.7697 91.8879 29.8407 91.882 29.9117 91.8702C29.9828 91.8559 30.0372 91.8453 30.0751 91.8382L30.313 92.9639C30.2373 92.9876 30.1307 93.0148 29.9934 93.0456C29.8561 93.0787 29.6892 93.0988 29.4927 93.1059C29.1281 93.1202 28.8085 93.0716 28.5339 92.9603C28.2616 92.8491 28.0498 92.6763 27.8982 92.4419C27.7467 92.2075 27.6722 91.9116 27.6745 91.5541V86.27ZM31.199 93.0314V87.5768H32.7118V93.0314H31.199ZM31.959 86.8737C31.7341 86.8737 31.5411 86.7991 31.3801 86.65C31.2215 86.4985 31.1422 86.3174 31.1422 86.1067C31.1422 85.8983 31.2215 85.7196 31.3801 85.5704C31.5411 85.4189 31.7341 85.3432 31.959 85.3432C32.1839 85.3432 32.3756 85.4189 32.5343 85.5704C32.6952 85.7196 32.7757 85.8983 32.7757 86.1067C32.7757 86.3174 32.6952 86.4985 32.5343 86.65C32.3756 86.7991 32.1839 86.8737 31.959 86.8737ZM33.9236 93.0314V87.5768H35.3654V88.5392H35.4293C35.543 88.2196 35.7323 87.9675 35.9975 87.7828C36.2627 87.5981 36.5799 87.5058 36.9492 87.5058C37.3233 87.5058 37.6417 87.5993 37.9045 87.7863C38.1672 87.971 38.3424 88.2219 38.43 88.5392H38.4868C38.5981 88.2267 38.7993 87.9769 39.0905 87.7899C39.3841 87.6005 39.7309 87.5058 40.131 87.5058C40.64 87.5058 41.0531 87.668 41.3704 87.9923C41.69 88.3143 41.8498 88.7712 41.8498 89.363V93.0314H40.3405V89.6613C40.3405 89.3583 40.26 89.131 40.0991 88.9795C39.9381 88.828 39.7368 88.7523 39.4954 88.7523C39.2207 88.7523 39.0065 88.8398 38.8526 89.015C38.6987 89.1879 38.6218 89.4163 38.6218 89.7004V93.0314H37.1552V89.6294C37.1552 89.3619 37.0782 89.1488 36.9243 88.9902C36.7728 88.8316 36.5728 88.7523 36.3242 88.7523C36.1561 88.7523 36.0046 88.7949 35.8697 88.8801C35.7371 88.963 35.6317 89.0801 35.5536 89.2317C35.4755 89.3808 35.4364 89.556 35.4364 89.7572V93.0314H33.9236ZM43.0447 93.0314V87.5768H44.5575V93.0314H43.0447ZM43.8047 86.8737C43.5798 86.8737 43.3868 86.7991 43.2258 86.65C43.0672 86.4985 42.9879 86.3174 42.9879 86.1067C42.9879 85.8983 43.0672 85.7196 43.2258 85.5704C43.3868 85.4189 43.5798 85.3432 43.8047 85.3432C44.0296 85.3432 44.2213 85.4189 44.38 85.5704C44.5409 85.7196 44.6214 85.8983 44.6214 86.1067C44.6214 86.3174 44.5409 86.4985 44.38 86.65C44.2213 86.7991 44.0296 86.8737 43.8047 86.8737ZM45.7409 93.0314V92.1294L48.4114 88.8233V88.7842H45.8333V87.5768H50.2331V88.5605L47.726 91.7849V91.824H50.3254V93.0314H45.7409ZM53.0376 93.1344C52.6896 93.1344 52.3795 93.074 52.1072 92.9532C51.835 92.8301 51.6195 92.649 51.4609 92.4099C51.3047 92.1684 51.2265 91.8678 51.2265 91.5079C51.2265 91.2049 51.2822 90.9504 51.3935 90.7444C51.5047 90.5385 51.6562 90.3728 51.848 90.2473C52.0398 90.1218 52.2576 90.0271 52.5014 89.9632C52.7476 89.8993 53.0057 89.8543 53.2756 89.8282C53.5928 89.7951 53.8485 89.7643 54.0426 89.7359C54.2367 89.7051 54.3776 89.6602 54.4652 89.601C54.5528 89.5418 54.5966 89.4542 54.5966 89.3382V89.3169C54.5966 89.092 54.5256 88.918 54.3835 88.7949C54.2438 88.6718 54.045 88.6102 53.7869 88.6102C53.5147 88.6102 53.298 88.6706 53.1371 88.7913C52.9761 88.9097 52.8695 89.0588 52.8175 89.2388L51.4183 89.1251C51.4893 88.7937 51.629 88.5072 51.8373 88.2657C52.0457 88.0219 52.3144 87.8349 52.6435 87.7047C52.9749 87.5721 53.3584 87.5058 53.794 87.5058C54.097 87.5058 54.3871 87.5413 54.664 87.6123C54.9434 87.6834 55.1908 87.7934 55.4062 87.9426C55.624 88.0917 55.7957 88.2835 55.9211 88.5179C56.0466 88.7499 56.1094 89.0281 56.1094 89.3524V93.0314H54.6747V92.275H54.6321C54.5445 92.4454 54.4273 92.5958 54.2805 92.726C54.1337 92.8538 53.9574 92.9544 53.7514 93.0278C53.5454 93.0988 53.3075 93.1344 53.0376 93.1344ZM53.4709 92.0903C53.6934 92.0903 53.8899 92.0465 54.0604 91.9589C54.2308 91.869 54.3646 91.7482 54.4616 91.5967C54.5587 91.4452 54.6072 91.2736 54.6072 91.0818V90.503C54.5599 90.5337 54.4948 90.5621 54.4119 90.5882C54.3314 90.6119 54.2403 90.6344 54.1385 90.6557C54.0367 90.6746 53.9349 90.6924 53.8331 90.7089C53.7313 90.7231 53.639 90.7362 53.5561 90.748C53.3785 90.774 53.2235 90.8155 53.0909 90.8723C52.9583 90.9291 52.8553 91.006 52.7819 91.1031C52.7086 91.1978 52.6719 91.3162 52.6719 91.4582C52.6719 91.6642 52.7464 91.8216 52.8956 91.9305C53.0471 92.0371 53.2389 92.0903 53.4709 92.0903ZM59.293 93.1202C58.8787 93.1202 58.5034 93.0136 58.1672 92.8005C57.8334 92.5851 57.5683 92.2691 57.3718 91.8524C57.1777 91.4334 57.0806 90.9196 57.0806 90.3112C57.0806 89.6862 57.1812 89.1666 57.3824 88.7523C57.5837 88.3356 57.8512 88.0243 58.185 87.8183C58.5212 87.61 58.8893 87.5058 59.2894 87.5058C59.5948 87.5058 59.8493 87.5579 60.0529 87.6621C60.2589 87.7639 60.4246 87.8917 60.5501 88.0456C60.6779 88.1971 60.775 88.3462 60.8412 88.493H60.8874V85.7586H62.3966V93.0314H60.9052V92.1578H60.8412C60.7702 92.3093 60.6696 92.4596 60.5394 92.6088C60.4116 92.7556 60.2447 92.8775 60.0387 92.9746C59.8351 93.0716 59.5865 93.1202 59.293 93.1202ZM59.7724 91.9163C60.0162 91.9163 60.2222 91.85 60.3903 91.7175C60.5607 91.5825 60.6909 91.3943 60.7809 91.1528C60.8732 90.9113 60.9194 90.6284 60.9194 90.3041C60.9194 89.9798 60.8744 89.698 60.7844 89.4589C60.6945 89.2198 60.5643 89.0352 60.3938 88.905C60.2234 88.7747 60.0162 88.7096 59.7724 88.7096C59.5238 88.7096 59.3143 88.7771 59.1438 88.9121C58.9734 89.047 58.8443 89.234 58.7567 89.4731C58.6691 89.7122 58.6253 89.9892 58.6253 90.3041C58.6253 90.6213 58.6691 90.9019 58.7567 91.1457C58.8467 91.3872 58.9757 91.5766 59.1438 91.7139C59.3143 91.8488 59.5238 91.9163 59.7724 91.9163ZM65.1958 93.1344C64.8478 93.1344 64.5377 93.074 64.2654 92.9532C63.9932 92.8301 63.7777 92.649 63.6191 92.4099C63.4629 92.1684 63.3848 91.8678 63.3848 91.5079C63.3848 91.2049 63.4404 90.9504 63.5517 90.7444C63.6629 90.5385 63.8144 90.3728 64.0062 90.2473C64.198 90.1218 64.4158 90.0271 64.6596 89.9632C64.9058 89.8993 65.1639 89.8543 65.4338 89.8282C65.751 89.7951 66.0067 89.7643 66.2008 89.7359C66.3949 89.7051 66.5358 89.6602 66.6234 89.601C66.711 89.5418 66.7548 89.4542 66.7548 89.3382V89.3169C66.7548 89.092 66.6838 88.918 66.5417 88.7949C66.402 88.6718 66.2032 88.6102 65.9451 88.6102C65.6729 88.6102 65.4562 88.6706 65.2953 88.7913C65.1343 88.9097 65.0277 89.0588 64.9757 89.2388L63.5765 89.1251C63.6475 88.7937 63.7872 88.5072 63.9955 88.2657C64.2039 88.0219 64.4726 87.8349 64.8017 87.7047C65.1331 87.5721 65.5166 87.5058 65.9522 87.5058C66.2553 87.5058 66.5453 87.5413 66.8223 87.6123C67.1016 87.6834 67.349 87.7934 67.5644 87.9426C67.7822 88.0917 67.9539 88.2835 68.0794 88.5179C68.2048 88.7499 68.2676 89.0281 68.2676 89.3524V93.0314H66.8329V92.275H66.7903C66.7027 92.4454 66.5855 92.5958 66.4387 92.726C66.2919 92.8538 66.1156 92.9544 65.9096 93.0278C65.7036 93.0988 65.4657 93.1344 65.1958 93.1344ZM65.6291 92.0903C65.8516 92.0903 66.0481 92.0465 66.2186 91.9589C66.389 91.869 66.5228 91.7482 66.6198 91.5967C66.7169 91.4452 66.7654 91.2736 66.7654 91.0818V90.503C66.7181 90.5337 66.653 90.5621 66.5701 90.5882C66.4896 90.6119 66.3985 90.6344 66.2967 90.6557C66.1949 90.6746 66.0931 90.6924 65.9913 90.7089C65.8895 90.7231 65.7972 90.7362 65.7143 90.748C65.5367 90.774 65.3817 90.8155 65.2491 90.8723C65.1165 90.9291 65.0135 91.006 64.9401 91.1031C64.8668 91.1978 64.8301 91.3162 64.8301 91.4582C64.8301 91.6642 64.9046 91.8216 65.0538 91.9305C65.2053 92.0371 65.3971 92.0903 65.6291 92.0903Z" fill="black"/>
<path d="M51.0455 21H31.9545C31.4266 21 31 21.415 31 21.9286V28.4286H52V21.9286C52 21.415 51.5734 21 51.0455 21ZM34.8182 25.875C34.1589 25.875 33.625 25.3556 33.625 24.7143C33.625 24.073 34.1589 23.5536 34.8182 23.5536C35.4774 23.5536 36.0114 24.073 36.0114 24.7143C36.0114 25.3556 35.4774 25.875 34.8182 25.875ZM31 46.0714C31 46.585 31.4266 47 31.9545 47H51.0455C51.5734 47 52 46.585 52 46.0714V39.5714H31V46.0714ZM34.8182 42.125C35.4774 42.125 36.0114 42.6444 36.0114 43.2857C36.0114 43.927 35.4774 44.4464 34.8182 44.4464C34.1589 44.4464 33.625 43.927 33.625 43.2857C33.625 42.6444 34.1589 42.125 34.8182 42.125ZM31 37.7143H52V30.2857H31V37.7143ZM34.8182 32.8393C35.4774 32.8393 36.0114 33.3587 36.0114 34C36.0114 34.6413 35.4774 35.1607 34.8182 35.1607C34.1589 35.1607 33.625 34.6413 33.625 34C33.625 33.3587 34.1589 32.8393 34.8182 32.8393Z" fill="black"/>
</svg>
