<svg width="84" height="96" viewBox="0 0 84 96" fill="none" xmlns="http://www.w3.org/2000/svg">
<circle cx="41.6094" cy="34.291" r="34.291" fill="#C9C9C9"/>
<path d="M39.0859 33.9411C42.1522 33.9411 44.6378 31.3543 44.6378 28.1634C44.6378 24.9724 42.1522 22.3857 39.0859 22.3857C36.0197 22.3857 33.5341 24.9724 33.5341 28.1634C33.5341 31.3543 36.0197 33.9411 39.0859 33.9411Z" fill="black"/>
<path d="M39.5716 36.8443C35.7824 36.6999 27.9821 38.6643 27.9821 42.6076V45.4965H41.2233C37.795 41.5098 39.5161 36.9888 39.5716 36.8443Z" fill="black"/>
<path d="M52.1744 42.6365C52.6741 41.7843 52.9656 40.7877 52.9656 39.7188C52.9656 36.5266 50.4811 33.9411 47.4137 33.9411C44.3463 33.9411 41.8618 36.5266 41.8618 39.7188C41.8618 42.911 44.3463 45.4965 47.4137 45.4965C48.4408 45.4965 49.3985 45.1787 50.2174 44.6732L53.7845 48.3853L55.7415 46.3487L52.1744 42.6365ZM47.4137 42.6076C45.8869 42.6076 44.6378 41.3077 44.6378 39.7188C44.6378 38.1299 45.8869 36.8299 47.4137 36.8299C48.9405 36.8299 50.1896 38.1299 50.1896 39.7188C50.1896 41.3077 48.9405 42.6076 47.4137 42.6076Z" fill="black"/>
<path d="M2.47255 81.0314V73.7586H5.34187C5.89111 73.7586 6.35986 73.8569 6.74812 74.0534C7.13875 74.2475 7.43586 74.5233 7.63946 74.8808C7.84542 75.2359 7.94841 75.6538 7.94841 76.1344C7.94841 76.6173 7.84424 77.0328 7.63591 77.3808C7.42757 77.7264 7.12573 77.9916 6.73037 78.1763C6.33737 78.3609 5.86152 78.4532 5.30281 78.4532H3.38164V77.2175H5.05423C5.34779 77.2175 5.59163 77.1772 5.78576 77.0967C5.97989 77.0162 6.1243 76.8955 6.219 76.7345C6.31607 76.5735 6.3646 76.3735 6.3646 76.1344C6.3646 75.8929 6.31607 75.6893 6.219 75.5236C6.1243 75.3578 5.97871 75.2324 5.78221 75.1471C5.58808 75.0595 5.34305 75.0157 5.04713 75.0157H4.01019V81.0314H2.47255ZM6.40011 77.7217L8.20764 81.0314H6.51019L4.74173 77.7217H6.40011ZM11.4045 81.1379C10.8435 81.1379 10.3605 81.0243 9.95568 80.797C9.55322 80.5674 9.24309 80.243 9.02529 79.824C8.80748 79.4026 8.69858 78.9042 8.69858 78.329C8.69858 77.7679 8.80748 77.2755 9.02529 76.8517C9.24309 76.4279 9.54967 76.0977 9.94503 75.8609C10.3428 75.6242 10.8091 75.5058 11.3442 75.5058C11.704 75.5058 12.039 75.5638 12.3492 75.6798C12.6617 75.7934 12.9339 75.9651 13.1659 76.1947C13.4003 76.4244 13.5826 76.7132 13.7128 77.0612C13.843 77.4068 13.9081 77.8117 13.9081 78.2757V78.6912H9.30228V77.7537H12.4841C12.4841 77.5359 12.4367 77.3429 12.342 77.1748C12.2474 77.0068 12.116 76.8754 11.9479 76.7807C11.7822 76.6836 11.5892 76.6351 11.369 76.6351C11.1394 76.6351 10.9358 76.6883 10.7582 76.7949C10.5831 76.899 10.4457 77.0399 10.3463 77.2175C10.2469 77.3926 10.196 77.588 10.1936 77.8034V78.6947C10.1936 78.9646 10.2433 79.1978 10.3428 79.3943C10.4446 79.5908 10.5878 79.7423 10.7724 79.8488C10.9571 79.9554 11.1761 80.0086 11.4294 80.0086C11.5975 80.0086 11.7514 79.985 11.8911 79.9376C12.0307 79.8903 12.1503 79.8193 12.2497 79.7246C12.3492 79.6299 12.4249 79.5139 12.477 79.3765L13.8761 79.4689C13.8051 79.805 13.6595 80.0986 13.4393 80.3496C13.2215 80.5981 12.9398 80.7923 12.5942 80.9319C12.2509 81.0693 11.8544 81.1379 11.4045 81.1379ZM17.3598 81.1379C16.8011 81.1379 16.3205 81.0195 15.918 80.7828C15.5179 80.5437 15.2102 80.2122 14.9947 79.7885C14.7817 79.3647 14.6751 78.877 14.6751 78.3254C14.6751 77.7667 14.7829 77.2766 14.9983 76.8552C15.2161 76.4315 15.5251 76.1012 15.9251 75.8645C16.3252 75.6254 16.8011 75.5058 17.3527 75.5058C17.8286 75.5058 18.2452 75.5922 18.6027 75.765C18.9602 75.9379 19.2431 76.1805 19.4514 76.493C19.6598 76.8055 19.7746 77.1725 19.7959 77.5939H18.3683C18.3281 77.3216 18.2215 77.1026 18.0487 76.9369C17.8783 76.7688 17.6545 76.6848 17.3776 76.6848C17.1432 76.6848 16.9384 76.7487 16.7632 76.8765C16.5904 77.002 16.4554 77.1855 16.3584 77.427C16.2613 77.6684 16.2128 77.9608 16.2128 78.3041C16.2128 78.6521 16.2601 78.948 16.3548 79.1919C16.4519 79.4357 16.588 79.6216 16.7632 79.7494C16.9384 79.8773 17.1432 79.9412 17.3776 79.9412C17.5504 79.9412 17.7054 79.9057 17.8428 79.8346C17.9824 79.7636 18.0973 79.6606 18.1872 79.5257C18.2795 79.3884 18.3399 79.2238 18.3683 79.0321H19.7959C19.7722 79.4487 19.6586 79.8157 19.455 80.1329C19.2537 80.4478 18.9756 80.694 18.6205 80.8716C18.2653 81.0491 17.8451 81.1379 17.3598 81.1379ZM23.2289 81.1379C22.6773 81.1379 22.2003 81.0207 21.7978 80.7863C21.3977 80.5496 21.0888 80.2205 20.871 79.7991C20.6532 79.3754 20.5443 78.8841 20.5443 78.3254C20.5443 77.762 20.6532 77.2695 20.871 76.8481C21.0888 76.4244 21.3977 76.0953 21.7978 75.8609C22.2003 75.6242 22.6773 75.5058 23.2289 75.5058C23.7806 75.5058 24.2564 75.6242 24.6565 75.8609C25.059 76.0953 25.3691 76.4244 25.5869 76.8481C25.8047 77.2695 25.9136 77.762 25.9136 78.3254C25.9136 78.8841 25.8047 79.3754 25.5869 79.7991C25.3691 80.2205 25.059 80.5496 24.6565 80.7863C24.2564 81.0207 23.7806 81.1379 23.2289 81.1379ZM23.236 79.966C23.487 79.966 23.6965 79.895 23.8646 79.753C24.0327 79.6086 24.1593 79.4121 24.2446 79.1635C24.3322 78.9149 24.376 78.632 24.376 78.3148C24.376 77.9975 24.3322 77.7146 24.2446 77.466C24.1593 77.2175 24.0327 77.021 23.8646 76.8765C23.6965 76.7321 23.487 76.6599 23.236 76.6599C22.9827 76.6599 22.7697 76.7321 22.5968 76.8765C22.4264 77.021 22.2974 77.2175 22.2098 77.466C22.1245 77.7146 22.0819 77.9975 22.0819 78.3148C22.0819 78.632 22.1245 78.9149 22.2098 79.1635C22.2974 79.4121 22.4264 79.6086 22.5968 79.753C22.7697 79.895 22.9827 79.966 23.236 79.966ZM28.4101 77.878V81.0314H26.8973V75.5768H28.339V76.5392H28.403C28.5237 76.2219 28.7261 75.971 29.0102 75.7863C29.2943 75.5993 29.6387 75.5058 30.0436 75.5058C30.4224 75.5058 30.7526 75.5887 31.0343 75.7544C31.3161 75.9201 31.5351 76.1568 31.6913 76.4646C31.8476 76.77 31.9257 77.1346 31.9257 77.5584V81.0314H30.4129V77.8282C30.4153 77.4944 30.33 77.234 30.1572 77.047C29.9844 76.8576 29.7465 76.7629 29.4434 76.7629C29.2398 76.7629 29.0599 76.8067 28.9037 76.8943C28.7498 76.9819 28.629 77.1097 28.5414 77.2778C28.4562 77.4435 28.4124 77.6436 28.4101 77.878ZM35.5825 81.1379C35.0309 81.1379 34.5538 81.0207 34.1514 80.7863C33.7513 80.5496 33.4423 80.2205 33.2245 79.7991C33.0067 79.3754 32.8978 78.8841 32.8978 78.3254C32.8978 77.762 33.0067 77.2695 33.2245 76.8481C33.4423 76.4244 33.7513 76.0953 34.1514 75.8609C34.5538 75.6242 35.0309 75.5058 35.5825 75.5058C36.1341 75.5058 36.6099 75.6242 37.01 75.8609C37.4125 76.0953 37.7226 76.4244 37.9404 76.8481C38.1582 77.2695 38.2671 77.762 38.2671 78.3254C38.2671 78.8841 38.1582 79.3754 37.9404 79.7991C37.7226 80.2205 37.4125 80.5496 37.01 80.7863C36.6099 81.0207 36.1341 81.1379 35.5825 81.1379ZM35.5896 79.966C35.8405 79.966 36.05 79.895 36.2181 79.753C36.3862 79.6086 36.5129 79.4121 36.5981 79.1635C36.6857 78.9149 36.7295 78.632 36.7295 78.3148C36.7295 77.9975 36.6857 77.7146 36.5981 77.466C36.5129 77.2175 36.3862 77.021 36.2181 76.8765C36.05 76.7321 35.8405 76.6599 35.5896 76.6599C35.3362 76.6599 35.1232 76.7321 34.9504 76.8765C34.7799 77.021 34.6509 77.2175 34.5633 77.466C34.4781 77.7146 34.4354 77.9975 34.4354 78.3148C34.4354 78.632 34.4781 78.9149 34.5633 79.1635C34.6509 79.4121 34.7799 79.6086 34.9504 79.753C35.1232 79.895 35.3362 79.966 35.5896 79.966ZM41.7153 81.1379C41.1566 81.1379 40.676 81.0195 40.2735 80.7828C39.8734 80.5437 39.5657 80.2122 39.3502 79.7885C39.1371 79.3647 39.0306 78.877 39.0306 78.3254C39.0306 77.7667 39.1383 77.2766 39.3538 76.8552C39.5716 76.4315 39.8805 76.1012 40.2806 75.8645C40.6807 75.6254 41.1566 75.5058 41.7082 75.5058C42.184 75.5058 42.6007 75.5922 42.9582 75.765C43.3157 75.9379 43.5986 76.1805 43.8069 76.493C44.0152 76.8055 44.13 77.1725 44.1514 77.5939H42.7238C42.6835 77.3216 42.577 77.1026 42.4042 76.9369C42.2337 76.7688 42.01 76.6848 41.733 76.6848C41.4987 76.6848 41.2939 76.7487 41.1187 76.8765C40.9459 77.002 40.8109 77.1855 40.7139 77.427C40.6168 77.6684 40.5683 77.9608 40.5683 78.3041C40.5683 78.6521 40.6156 78.948 40.7103 79.1919C40.8074 79.4357 40.9435 79.6216 41.1187 79.7494C41.2939 79.8773 41.4987 79.9412 41.733 79.9412C41.9059 79.9412 42.0609 79.9057 42.1982 79.8346C42.3379 79.7636 42.4527 79.6606 42.5427 79.5257C42.635 79.3884 42.6954 79.2238 42.7238 79.0321H44.1514C44.1277 79.4487 44.014 79.8157 43.8104 80.1329C43.6092 80.4478 43.331 80.694 42.9759 80.8716C42.6208 81.0491 42.2006 81.1379 41.7153 81.1379ZM45.1199 81.0314V75.5768H46.6327V81.0314H45.1199ZM45.8799 74.8737C45.655 74.8737 45.462 74.7991 45.301 74.65C45.1424 74.4985 45.0631 74.3174 45.0631 74.1067C45.0631 73.8983 45.1424 73.7196 45.301 73.5704C45.462 73.4189 45.655 73.3432 45.8799 73.3432C46.1048 73.3432 46.2965 73.4189 46.4552 73.5704C46.6161 73.7196 46.6966 73.8983 46.6966 74.1067C46.6966 74.3174 46.6161 74.4985 46.4552 74.65C46.2965 74.7991 46.1048 74.8737 45.8799 74.8737ZM47.8445 81.0314V75.5768H49.2863V76.5392H49.3502C49.4639 76.2196 49.6532 75.9675 49.9184 75.7828C50.1835 75.5981 50.5008 75.5058 50.8701 75.5058C51.2442 75.5058 51.5626 75.5993 51.8254 75.7863C52.0881 75.971 52.2633 76.2219 52.3509 76.5392H52.4077C52.519 76.2267 52.7202 75.9769 53.0114 75.7899C53.305 75.6005 53.6518 75.5058 54.0519 75.5058C54.5609 75.5058 54.974 75.668 55.2913 75.9923C55.6109 76.3143 55.7707 76.7712 55.7707 77.363V81.0314H54.2614V77.6613C54.2614 77.3583 54.1809 77.131 54.02 76.9795C53.859 76.828 53.6577 76.7523 53.4163 76.7523C53.1416 76.7523 52.9274 76.8398 52.7735 77.015C52.6196 77.1879 52.5427 77.4163 52.5427 77.7004V81.0314H51.0761V77.6294C51.0761 77.3619 50.9991 77.1488 50.8452 76.9902C50.6937 76.8316 50.4937 76.7523 50.2451 76.7523C50.077 76.7523 49.9255 76.7949 49.7906 76.8801C49.658 76.963 49.5526 77.0801 49.4745 77.2317C49.3964 77.3808 49.3573 77.556 49.3573 77.7572V81.0314H47.8445ZM56.9656 81.0314V75.5768H58.4784V81.0314H56.9656ZM57.7256 74.8737C57.5007 74.8737 57.3077 74.7991 57.1467 74.65C56.9881 74.4985 56.9088 74.3174 56.9088 74.1067C56.9088 73.8983 56.9881 73.7196 57.1467 73.5704C57.3077 73.4189 57.5007 73.3432 57.7256 73.3432C57.9505 73.3432 58.1422 73.4189 58.3009 73.5704C58.4618 73.7196 58.5423 73.8983 58.5423 74.1067C58.5423 74.3174 58.4618 74.4985 58.3009 74.65C58.1422 74.7991 57.9505 74.8737 57.7256 74.8737ZM62.176 81.1379C61.615 81.1379 61.132 81.0243 60.7272 80.797C60.3247 80.5674 60.0146 80.243 59.7968 79.824C59.579 79.4026 59.4701 78.9042 59.4701 78.329C59.4701 77.7679 59.579 77.2755 59.7968 76.8517C60.0146 76.4279 60.3212 76.0977 60.7165 75.8609C61.1142 75.6242 61.5806 75.5058 62.1157 75.5058C62.4755 75.5058 62.8105 75.5638 63.1206 75.6798C63.4331 75.7934 63.7054 75.9651 63.9374 76.1947C64.1718 76.4244 64.3541 76.7132 64.4843 77.0612C64.6145 77.4068 64.6796 77.8117 64.6796 78.2757V78.6912H60.0738V77.7537H63.2556C63.2556 77.5359 63.2082 77.3429 63.1135 77.1748C63.0188 77.0068 62.8874 76.8754 62.7194 76.7807C62.5536 76.6836 62.3607 76.6351 62.1405 76.6351C61.9109 76.6351 61.7073 76.6883 61.5297 76.7949C61.3545 76.899 61.2172 77.0399 61.1178 77.2175C61.0184 77.3926 60.9675 77.588 60.9651 77.8034V78.6947C60.9651 78.9646 61.0148 79.1978 61.1142 79.3943C61.216 79.5908 61.3593 79.7423 61.5439 79.8488C61.7286 79.9554 61.9476 80.0086 62.2009 80.0086C62.369 80.0086 62.5229 79.985 62.6625 79.9376C62.8022 79.8903 62.9218 79.8193 63.0212 79.7246C63.1206 79.6299 63.1964 79.5139 63.2485 79.3765L64.6476 79.4689C64.5766 79.805 64.431 80.0986 64.2108 80.3496C63.993 80.5981 63.7113 80.7923 63.3657 80.9319C63.0224 81.0693 62.6258 81.1379 62.176 81.1379ZM67.1796 77.878V81.0314H65.6668V75.5768H67.1086V76.5392H67.1725C67.2932 76.2219 67.4956 75.971 67.7797 75.7863C68.0638 75.5993 68.4083 75.5058 68.8131 75.5058C69.1919 75.5058 69.5222 75.5887 69.8039 75.7544C70.0856 75.9201 70.3046 76.1568 70.4608 76.4646C70.6171 76.77 70.6952 77.1346 70.6952 77.5584V81.0314H69.1824V77.8282C69.1848 77.4944 69.0996 77.234 68.9267 77.047C68.7539 76.8576 68.516 76.7629 68.213 76.7629C68.0094 76.7629 67.8294 76.8067 67.6732 76.8943C67.5193 76.9819 67.3986 77.1097 67.311 77.2778C67.2258 77.4435 67.182 77.6436 67.1796 77.878ZM74.7888 75.5768V76.7132H71.504V75.5768H74.7888ZM72.2497 74.27H73.7625V79.3552C73.7625 79.4949 73.7838 79.6038 73.8264 79.6819C73.869 79.7577 73.9282 79.811 74.004 79.8417C74.0821 79.8725 74.1721 79.8879 74.2739 79.8879C74.3449 79.8879 74.4159 79.882 74.4869 79.8702C74.558 79.8559 74.6124 79.8453 74.6503 79.8382L74.8882 80.9639C74.8125 80.9876 74.7059 81.0148 74.5686 81.0456C74.4313 81.0787 74.2644 81.0988 74.0679 81.1059C73.7033 81.1202 73.3837 81.0716 73.1091 80.9603C72.8368 80.8491 72.625 80.6763 72.4734 80.4419C72.3219 80.2075 72.2474 79.9116 72.2497 79.5541V74.27ZM78.1801 81.1379C77.6285 81.1379 77.1515 81.0207 76.749 80.7863C76.3489 80.5496 76.04 80.2205 75.8222 79.7991C75.6044 79.3754 75.4955 78.8841 75.4955 78.3254C75.4955 77.762 75.6044 77.2695 75.8222 76.8481C76.04 76.4244 76.3489 76.0953 76.749 75.8609C77.1515 75.6242 77.6285 75.5058 78.1801 75.5058C78.7317 75.5058 79.2076 75.6242 79.6077 75.8609C80.0101 76.0953 80.3203 76.4244 80.5381 76.8481C80.7559 77.2695 80.8648 77.762 80.8648 78.3254C80.8648 78.8841 80.7559 79.3754 80.5381 79.7991C80.3203 80.2205 80.0101 80.5496 79.6077 80.7863C79.2076 81.0207 78.7317 81.1379 78.1801 81.1379ZM78.1872 79.966C78.4382 79.966 78.6477 79.895 78.8158 79.753C78.9839 79.6086 79.1105 79.4121 79.1957 79.1635C79.2833 78.9149 79.3271 78.632 79.3271 78.3148C79.3271 77.9975 79.2833 77.7146 79.1957 77.466C79.1105 77.2175 78.9839 77.021 78.8158 76.8765C78.6477 76.7321 78.4382 76.6599 78.1872 76.6599C77.9339 76.6599 77.7208 76.7321 77.548 76.8765C77.3776 77.021 77.2485 77.2175 77.1609 77.466C77.0757 77.7146 77.0331 77.9975 77.0331 78.3148C77.0331 78.632 77.0757 78.9149 77.1609 79.1635C77.2485 79.4121 77.3776 79.6086 77.548 79.753C77.7208 79.895 77.9339 79.966 78.1872 79.966ZM31.7885 87.5768V88.7132H28.422V87.5768H31.7885ZM29.1926 93.0314V87.1827C29.1926 86.7873 29.2696 86.4594 29.4235 86.199C29.5797 85.9386 29.7928 85.7433 30.0627 85.613C30.3325 85.4828 30.6391 85.4177 30.9824 85.4177C31.2144 85.4177 31.4263 85.4355 31.6181 85.471C31.8122 85.5065 31.9566 85.5385 32.0513 85.5669L31.7814 86.7032C31.7222 86.6843 31.6488 86.6666 31.5612 86.65C31.476 86.6334 31.3884 86.6251 31.2985 86.6251C31.0759 86.6251 30.9209 86.6772 30.8333 86.7814C30.7457 86.8832 30.7019 87.0264 30.7019 87.2111V93.0314H29.1926ZM34.0728 93.1344C33.7248 93.1344 33.4146 93.074 33.1424 92.9532C32.8701 92.8301 32.6547 92.649 32.4961 92.4099C32.3398 92.1684 32.2617 91.8678 32.2617 91.5079C32.2617 91.2049 32.3173 90.9504 32.4286 90.7444C32.5399 90.5385 32.6914 90.3728 32.8832 90.2473C33.0749 90.1218 33.2927 90.0271 33.5366 89.9632C33.7828 89.8993 34.0408 89.8543 34.3107 89.8282C34.6279 89.7951 34.8836 89.7643 35.0778 89.7359C35.2719 89.7051 35.4127 89.6602 35.5003 89.601C35.5879 89.5418 35.6317 89.4542 35.6317 89.3382V89.3169C35.6317 89.092 35.5607 88.918 35.4187 88.7949C35.279 88.6718 35.0801 88.6102 34.8221 88.6102C34.5498 88.6102 34.3332 88.6706 34.1722 88.7913C34.0112 88.9097 33.9047 89.0588 33.8526 89.2388L32.4535 89.1251C32.5245 88.7937 32.6642 88.5072 32.8725 88.2657C33.0808 88.0219 33.3495 87.8349 33.6786 87.7047C34.01 87.5721 34.3936 87.5058 34.8292 87.5058C35.1322 87.5058 35.4222 87.5413 35.6992 87.6123C35.9786 87.6834 36.226 87.7934 36.4414 87.9426C36.6592 88.0917 36.8308 88.2835 36.9563 88.5179C37.0818 88.7499 37.1445 89.0281 37.1445 89.3524V93.0314H35.7099V92.275H35.6672C35.5796 92.4454 35.4625 92.5958 35.3157 92.726C35.1689 92.8538 34.9925 92.9544 34.7866 93.0278C34.5806 93.0988 34.3427 93.1344 34.0728 93.1344ZM34.506 92.0903C34.7286 92.0903 34.9251 92.0465 35.0955 91.9589C35.266 91.869 35.3997 91.7482 35.4968 91.5967C35.5939 91.4452 35.6424 91.2736 35.6424 91.0818V90.503C35.595 90.5337 35.5299 90.5621 35.4471 90.5882C35.3666 90.6119 35.2754 90.6344 35.1736 90.6557C35.0718 90.6746 34.97 90.6924 34.8682 90.7089C34.7664 90.7231 34.6741 90.7362 34.5912 90.748C34.4137 90.774 34.2586 90.8155 34.1261 90.8723C33.9935 90.9291 33.8905 91.006 33.8171 91.1031C33.7437 91.1978 33.707 91.3162 33.707 91.4582C33.707 91.6642 33.7816 91.8216 33.9307 91.9305C34.0823 92.0371 34.274 92.0903 34.506 92.0903ZM40.7827 93.1379C40.2239 93.1379 39.7434 93.0195 39.3409 92.7828C38.9408 92.5437 38.633 92.2122 38.4176 91.7885C38.2045 91.3647 38.098 90.877 38.098 90.3254C38.098 89.7667 38.2057 89.2766 38.4211 88.8552C38.639 88.4315 38.9479 88.1012 39.348 87.8645C39.7481 87.6254 40.2239 87.5058 40.7756 87.5058C41.2514 87.5058 41.6681 87.5922 42.0256 87.765C42.383 87.9379 42.6659 88.1805 42.8743 88.493C43.0826 88.8055 43.1974 89.1725 43.2187 89.5939H41.7912C41.7509 89.3216 41.6444 89.1026 41.4716 88.9369C41.3011 88.7688 41.0774 88.6848 40.8004 88.6848C40.566 88.6848 40.3613 88.7487 40.1861 88.8765C40.0132 89.002 39.8783 89.1855 39.7812 89.427C39.6842 89.6684 39.6356 89.9608 39.6356 90.3041C39.6356 90.6521 39.683 90.948 39.7777 91.1919C39.8747 91.4357 40.0109 91.6216 40.1861 91.7494C40.3613 91.8773 40.566 91.9412 40.8004 91.9412C40.9732 91.9412 41.1283 91.9057 41.2656 91.8346C41.4053 91.7636 41.5201 91.6606 41.6101 91.5257C41.7024 91.3884 41.7628 91.2238 41.7912 91.0321H43.2187C43.1951 91.4487 43.0814 91.8157 42.8778 92.1329C42.6766 92.4478 42.3984 92.694 42.0433 92.8716C41.6882 93.0491 41.268 93.1379 40.7827 93.1379ZM44.1873 93.0314V87.5768H45.7001V93.0314H44.1873ZM44.9473 86.8737C44.7223 86.8737 44.5294 86.7991 44.3684 86.65C44.2098 86.4985 44.1305 86.3174 44.1305 86.1067C44.1305 85.8983 44.2098 85.7196 44.3684 85.5704C44.5294 85.4189 44.7223 85.3432 44.9473 85.3432C45.1722 85.3432 45.3639 85.4189 45.5225 85.5704C45.6835 85.7196 45.764 85.8983 45.764 86.1067C45.764 86.3174 45.6835 86.4985 45.5225 86.65C45.3639 86.7991 45.1722 86.8737 44.9473 86.8737ZM48.4673 93.1344C48.1193 93.1344 47.8092 93.074 47.5369 92.9532C47.2647 92.8301 47.0492 92.649 46.8906 92.4099C46.7344 92.1684 46.6562 91.8678 46.6562 91.5079C46.6562 91.2049 46.7119 90.9504 46.8231 90.7444C46.9344 90.5385 47.0859 90.3728 47.2777 90.2473C47.4694 90.1218 47.6872 90.0271 47.9311 89.9632C48.1773 89.8993 48.4354 89.8543 48.7052 89.8282C49.0225 89.7951 49.2782 89.7643 49.4723 89.7359C49.6664 89.7051 49.8073 89.6602 49.8949 89.601C49.9825 89.5418 50.0263 89.4542 50.0263 89.3382V89.3169C50.0263 89.092 49.9552 88.918 49.8132 88.7949C49.6735 88.6718 49.4747 88.6102 49.2166 88.6102C48.9444 88.6102 48.7277 88.6706 48.5667 88.7913C48.4058 88.9097 48.2992 89.0588 48.2471 89.2388L46.848 89.1251C46.919 88.7937 47.0587 88.5072 47.267 88.2657C47.4754 88.0219 47.7441 87.8349 48.0731 87.7047C48.4046 87.5721 48.7881 87.5058 49.2237 87.5058C49.5267 87.5058 49.8167 87.5413 50.0937 87.6123C50.3731 87.6834 50.6205 87.7934 50.8359 87.9426C51.0537 88.0917 51.2254 88.2835 51.3508 88.5179C51.4763 88.7499 51.539 89.0281 51.539 89.3524V93.0314H50.1044V92.275H50.0618C49.9742 92.4454 49.857 92.5958 49.7102 92.726C49.5634 92.8538 49.3871 92.9544 49.1811 93.0278C48.9751 93.0988 48.7372 93.1344 48.4673 93.1344ZM48.9006 92.0903C49.1231 92.0903 49.3196 92.0465 49.49 91.9589C49.6605 91.869 49.7943 91.7482 49.8913 91.5967C49.9884 91.4452 50.0369 91.2736 50.0369 91.0818V90.503C49.9896 90.5337 49.9245 90.5621 49.8416 90.5882C49.7611 90.6119 49.67 90.6344 49.5682 90.6557C49.4664 90.6746 49.3646 90.6924 49.2628 90.7089C49.161 90.7231 49.0686 90.7362 48.9858 90.748C48.8082 90.774 48.6532 90.8155 48.5206 90.8723C48.388 90.9291 48.285 91.006 48.2116 91.1031C48.1382 91.1978 48.1015 91.3162 48.1015 91.4582C48.1015 91.6642 48.1761 91.8216 48.3253 91.9305C48.4768 92.0371 48.6685 92.0903 48.9006 92.0903ZM54.2255 85.7586V93.0314H52.7127V85.7586H54.2255Z" fill="black"/>
</svg>
