<svg width="84" height="96" viewBox="0 0 84 96" fill="none" xmlns="http://www.w3.org/2000/svg">
<circle cx="41.6094" cy="34.291" r="34.291" fill="#C9C9C9"/>
<path d="M20.9149 75.8503C20.8865 75.5638 20.7646 75.3413 20.5492 75.1827C20.3337 75.024 20.0414 74.9447 19.672 74.9447C19.4211 74.9447 19.2092 74.9802 19.0364 75.0513C18.8636 75.1199 18.731 75.2158 18.6387 75.3389C18.5487 75.462 18.5037 75.6017 18.5037 75.7579C18.499 75.8881 18.5262 76.0018 18.5854 76.0988C18.6469 76.1959 18.731 76.28 18.8375 76.351C18.9441 76.4196 19.0672 76.48 19.2068 76.5321C19.3465 76.5818 19.4957 76.6244 19.6543 76.6599L20.3077 76.8162C20.6249 76.8872 20.9161 76.9819 21.1813 77.1003C21.4464 77.2186 21.6761 77.3642 21.8702 77.5371C22.0643 77.7099 22.2147 77.9135 22.3212 78.1478C22.4301 78.3822 22.4857 78.6509 22.4881 78.954C22.4857 79.399 22.3721 79.7849 22.1472 80.1116C21.9246 80.436 21.6027 80.6881 21.1813 80.868C20.7622 81.0456 20.2568 81.1344 19.6649 81.1344C19.0778 81.1344 18.5665 81.0444 18.1308 80.8645C17.6976 80.6845 17.3591 80.4182 17.1152 80.0655C16.8737 79.7103 16.7471 79.2712 16.7352 78.748H18.2232C18.2397 78.9918 18.3096 79.1954 18.4327 79.3588C18.5582 79.5198 18.7251 79.6417 18.9334 79.7246C19.1441 79.805 19.382 79.8453 19.6472 79.8453C19.9076 79.8453 20.1337 79.8074 20.3254 79.7317C20.5196 79.6559 20.6699 79.5505 20.7764 79.4156C20.883 79.2807 20.9362 79.1256 20.9362 78.9504C20.9362 78.7871 20.8877 78.6497 20.7906 78.5385C20.6959 78.4272 20.5563 78.3325 20.3716 78.2544C20.1893 78.1763 19.9656 78.1052 19.7004 78.0413L18.9085 77.8425C18.2954 77.6933 17.8112 77.4601 17.4561 77.1429C17.101 76.8256 16.9246 76.3983 16.927 75.8609C16.9246 75.4206 17.0418 75.0359 17.2786 74.7068C17.5177 74.3777 17.8456 74.1209 18.2622 73.9362C18.6789 73.7515 19.1524 73.6592 19.6827 73.6592C20.2225 73.6592 20.6936 73.7515 21.096 73.9362C21.5009 74.1209 21.8157 74.3777 22.0406 74.7068C22.2656 75.0359 22.3816 75.417 22.3887 75.8503H20.9149ZM25.9797 81.1379C25.4187 81.1379 24.9357 81.0243 24.5309 80.797C24.1284 80.5674 23.8183 80.243 23.6005 79.824C23.3827 79.4026 23.2738 78.9042 23.2738 78.329C23.2738 77.7679 23.3827 77.2755 23.6005 76.8517C23.8183 76.4279 24.1249 76.0977 24.5202 75.8609C24.918 75.6242 25.3843 75.5058 25.9194 75.5058C26.2792 75.5058 26.6142 75.5638 26.9243 75.6798C27.2368 75.7934 27.5091 75.9651 27.7411 76.1947C27.9755 76.4244 28.1578 76.7132 28.288 77.0612C28.4182 77.4068 28.4833 77.8117 28.4833 78.2757V78.6912H23.8775V77.7537H27.0593C27.0593 77.5359 27.0119 77.3429 26.9172 77.1748C26.8225 77.0068 26.6912 76.8754 26.5231 76.7807C26.3573 76.6836 26.1644 76.6351 25.9442 76.6351C25.7146 76.6351 25.511 76.6883 25.3334 76.7949C25.1582 76.899 25.0209 77.0399 24.9215 77.2175C24.8221 77.3926 24.7712 77.588 24.7688 77.8034V78.6947C24.7688 78.9646 24.8185 79.1978 24.918 79.3943C25.0198 79.5908 25.163 79.7423 25.3476 79.8488C25.5323 79.9554 25.7513 80.0086 26.0046 80.0086C26.1727 80.0086 26.3266 79.985 26.4662 79.9376C26.6059 79.8903 26.7255 79.8193 26.8249 79.7246C26.9243 79.6299 27.0001 79.5139 27.0522 79.3765L28.4513 79.4689C28.3803 79.805 28.2347 80.0986 28.0145 80.3496C27.7967 80.5981 27.515 80.7923 27.1694 80.9319C26.8261 81.0693 26.4296 81.1379 25.9797 81.1379ZM31.9279 83.1905C31.4378 83.1905 31.0176 83.123 30.6672 82.988C30.3192 82.8555 30.0422 82.6744 29.8363 82.4447C29.6303 82.2151 29.4966 81.957 29.435 81.6706L30.8341 81.4824C30.8768 81.5913 30.9442 81.6931 31.0366 81.7878C31.1289 81.8825 31.2508 81.9582 31.4023 82.015C31.5562 82.0742 31.7432 82.1038 31.9634 82.1038C32.2925 82.1038 32.5636 82.0233 32.7766 81.8623C32.9921 81.7037 33.0998 81.4374 33.0998 81.0633V80.0655H33.0359C32.9696 80.217 32.8701 80.3602 32.7376 80.4952C32.605 80.6301 32.4345 80.7402 32.2262 80.8254C32.0179 80.9106 31.7693 80.9532 31.4805 80.9532C31.0709 80.9532 30.698 80.8586 30.3618 80.6692C30.028 80.4774 29.7617 80.185 29.5628 79.792C29.3663 79.3967 29.2681 78.8971 29.2681 78.2934C29.2681 77.6755 29.3687 77.1594 29.5699 76.7452C29.7712 76.3309 30.0387 76.0207 30.3725 75.8148C30.7087 75.6088 31.0768 75.5058 31.4769 75.5058C31.7823 75.5058 32.038 75.5579 32.2439 75.6621C32.4499 75.7639 32.6156 75.8917 32.7411 76.0456C32.8689 76.1971 32.9672 76.3462 33.0359 76.493H33.0927V75.5768H34.5948V81.0846C34.5948 81.5487 34.4812 81.9369 34.2539 82.2494C34.0266 82.5619 33.7118 82.7963 33.3093 82.9525C32.9092 83.1112 32.4487 83.1905 31.9279 83.1905ZM31.9599 79.8169C32.2037 79.8169 32.4097 79.7565 32.5778 79.6358C32.7482 79.5127 32.8784 79.3375 32.9684 79.1102C33.0607 78.8806 33.1069 78.6059 33.1069 78.2863C33.1069 77.9667 33.0619 77.6898 32.9719 77.4554C32.882 77.2186 32.7518 77.0352 32.5813 76.905C32.4109 76.7747 32.2037 76.7096 31.9599 76.7096C31.7113 76.7096 31.5018 76.7771 31.3313 76.9121C31.1609 77.0446 31.0318 77.2293 30.9442 77.466C30.8566 77.7028 30.8128 77.9762 30.8128 78.2863C30.8128 78.6012 30.8566 78.8735 30.9442 79.1031C31.0342 79.3304 31.1632 79.5068 31.3313 79.6322C31.5018 79.7553 31.7113 79.8169 31.9599 79.8169ZM39.2965 78.7089V75.5768H40.8093V81.0314H39.3569V80.0406H39.3001C39.177 80.3602 38.9722 80.6171 38.6857 80.8112C38.4016 81.0053 38.0548 81.1024 37.6452 81.1024C37.2806 81.1024 36.9599 81.0195 36.6829 80.8538C36.4059 80.6881 36.1893 80.4525 36.033 80.1471C35.8791 79.8417 35.801 79.476 35.7986 79.0498V75.5768H37.3114V78.78C37.3138 79.1019 37.4002 79.3564 37.5707 79.5434C37.7411 79.7305 37.9696 79.824 38.256 79.824C38.4383 79.824 38.6088 79.7826 38.7674 79.6997C38.926 79.6145 39.0538 79.489 39.1509 79.3233C39.2503 79.1576 39.2989 78.9528 39.2965 78.7089ZM42.0193 81.0314V75.5768H43.486V76.5285H43.5428C43.6422 76.19 43.8091 75.9343 44.0435 75.7615C44.2779 75.5863 44.5477 75.4987 44.8531 75.4987C44.9289 75.4987 45.0106 75.5034 45.0982 75.5129C45.1858 75.5224 45.2627 75.5354 45.329 75.552V76.8943C45.258 76.873 45.1597 76.8541 45.0343 76.8375C44.9088 76.8209 44.794 76.8126 44.6898 76.8126C44.4673 76.8126 44.2684 76.8612 44.0932 76.9582C43.9204 77.0529 43.7831 77.1855 43.6813 77.3559C43.5818 77.5264 43.5321 77.7229 43.5321 77.9454V81.0314H42.0193ZM46.1111 81.0314V75.5768H47.6239V81.0314H46.1111ZM46.8711 74.8737C46.6462 74.8737 46.4532 74.7991 46.2922 74.65C46.1336 74.4985 46.0543 74.3174 46.0543 74.1067C46.0543 73.8983 46.1336 73.7196 46.2922 73.5704C46.4532 73.4189 46.6462 73.3432 46.8711 73.3432C47.096 73.3432 47.2877 73.4189 47.4464 73.5704C47.6073 73.7196 47.6878 73.8983 47.6878 74.1067C47.6878 74.3174 47.6073 74.4985 47.4464 74.65C47.2877 74.7991 47.096 74.8737 46.8711 74.8737ZM50.8457 81.1202C50.4314 81.1202 50.0562 81.0136 49.72 80.8005C49.3862 80.5851 49.121 80.2691 48.9245 79.8524C48.7304 79.4334 48.6333 78.9196 48.6333 78.3112C48.6333 77.6862 48.7339 77.1666 48.9352 76.7523C49.1364 76.3356 49.4039 76.0243 49.7377 75.8183C50.0739 75.61 50.442 75.5058 50.8421 75.5058C51.1475 75.5058 51.402 75.5579 51.6056 75.6621C51.8116 75.7639 51.9773 75.8917 52.1028 76.0456C52.2306 76.1971 52.3277 76.3462 52.394 76.493H52.4401V73.7586H53.9494V81.0314H52.4579V80.1578H52.394C52.323 80.3093 52.2223 80.4596 52.0921 80.6088C51.9643 80.7556 51.7974 80.8775 51.5914 80.9746C51.3878 81.0716 51.1392 81.1202 50.8457 81.1202ZM51.3251 79.9163C51.5689 79.9163 51.7749 79.85 51.943 79.7175C52.1134 79.5825 52.2437 79.3943 52.3336 79.1528C52.4259 78.9113 52.4721 78.6284 52.4721 78.3041C52.4721 77.9798 52.4271 77.698 52.3372 77.4589C52.2472 77.2198 52.117 77.0352 51.9465 76.905C51.7761 76.7747 51.5689 76.7096 51.3251 76.7096C51.0765 76.7096 50.867 76.7771 50.6965 76.9121C50.5261 77.047 50.3971 77.234 50.3095 77.4731C50.2219 77.7122 50.1781 77.9892 50.1781 78.3041C50.1781 78.6213 50.2219 78.9019 50.3095 79.1457C50.3994 79.3872 50.5285 79.5766 50.6965 79.7139C50.867 79.8488 51.0765 79.9163 51.3251 79.9163ZM56.7486 81.1344C56.4006 81.1344 56.0904 81.074 55.8182 80.9532C55.5459 80.8301 55.3305 80.649 55.1719 80.4099C55.0156 80.1684 54.9375 79.8678 54.9375 79.5079C54.9375 79.2049 54.9931 78.9504 55.1044 78.7444C55.2157 78.5385 55.3672 78.3728 55.5589 78.2473C55.7507 78.1218 55.9685 78.0271 56.2123 77.9632C56.4586 77.8993 56.7166 77.8543 56.9865 77.8282C57.3037 77.7951 57.5594 77.7643 57.7535 77.7359C57.9477 77.7051 58.0885 77.6602 58.1761 77.601C58.2637 77.5418 58.3075 77.4542 58.3075 77.3382V77.3169C58.3075 77.092 58.2365 76.918 58.0944 76.7949C57.9548 76.6718 57.7559 76.6102 57.4979 76.6102C57.2256 76.6102 57.009 76.6706 56.848 76.7913C56.687 76.9097 56.5805 77.0588 56.5284 77.2388L55.1292 77.1251C55.2003 76.7937 55.3399 76.5072 55.5483 76.2657C55.7566 76.0219 56.0253 75.8349 56.3544 75.7047C56.6858 75.5721 57.0694 75.5058 57.505 75.5058C57.808 75.5058 58.098 75.5413 58.375 75.6123C58.6543 75.6834 58.9017 75.7934 59.1172 75.9426C59.335 76.0917 59.5066 76.2835 59.6321 76.5179C59.7576 76.7499 59.8203 77.0281 59.8203 77.3524V81.0314H58.3856V80.275H58.343C58.2554 80.4454 58.1382 80.5958 57.9915 80.726C57.8447 80.8538 57.6683 80.9544 57.4623 81.0278C57.2564 81.0988 57.0185 81.1344 56.7486 81.1344ZM57.1818 80.0903C57.4043 80.0903 57.6008 80.0465 57.7713 79.9589C57.9417 79.869 58.0755 79.7482 58.1726 79.5967C58.2696 79.4452 58.3182 79.2736 58.3182 79.0818V78.503C58.2708 78.5337 58.2057 78.5621 58.1229 78.5882C58.0424 78.6119 57.9512 78.6344 57.8494 78.6557C57.7476 78.6746 57.6458 78.6924 57.544 78.7089C57.4422 78.7231 57.3499 78.7362 57.267 78.748C57.0895 78.774 56.9344 78.8155 56.8018 78.8723C56.6693 78.9291 56.5663 79.006 56.4929 79.1031C56.4195 79.1978 56.3828 79.3162 56.3828 79.4582C56.3828 79.6642 56.4574 79.8216 56.6065 79.9305C56.758 80.0371 56.9498 80.0903 57.1818 80.0903ZM63.0039 81.1202C62.5896 81.1202 62.2144 81.0136 61.8782 80.8005C61.5444 80.5851 61.2792 80.2691 61.0827 79.8524C60.8886 79.4334 60.7915 78.9196 60.7915 78.3112C60.7915 77.6862 60.8921 77.1666 61.0934 76.7523C61.2946 76.3356 61.5621 76.0243 61.8959 75.8183C62.2321 75.61 62.6002 75.5058 63.0003 75.5058C63.3057 75.5058 63.5602 75.5579 63.7638 75.6621C63.9698 75.7639 64.1355 75.8917 64.261 76.0456C64.3888 76.1971 64.4859 76.3462 64.5522 76.493H64.5984V73.7586H66.1076V81.0314H64.6161V80.1578H64.5522C64.4812 80.3093 64.3805 80.4596 64.2503 80.6088C64.1225 80.7556 63.9556 80.8775 63.7496 80.9746C63.546 81.0716 63.2975 81.1202 63.0039 81.1202ZM63.4833 79.9163C63.7271 79.9163 63.9331 79.85 64.1012 79.7175C64.2716 79.5825 64.4019 79.3943 64.4918 79.1528C64.5841 78.9113 64.6303 78.6284 64.6303 78.3041C64.6303 77.9798 64.5853 77.698 64.4954 77.4589C64.4054 77.2198 64.2752 77.0352 64.1047 76.905C63.9343 76.7747 63.7271 76.7096 63.4833 76.7096C63.2347 76.7096 63.0252 76.7771 62.8547 76.9121C62.6843 77.047 62.5553 77.234 62.4677 77.4731C62.3801 77.7122 62.3363 77.9892 62.3363 78.3041C62.3363 78.6213 62.3801 78.9019 62.4677 79.1457C62.5576 79.3872 62.6867 79.5766 62.8547 79.7139C63.0252 79.8488 63.2347 79.9163 63.4833 79.9163Z" fill="black"/>
<path d="M52.5769 23.4597L42.9314 20.0616C42.815 20.0205 42.6589 20 42.5028 20C42.3467 20 42.1905 20.0205 42.0742 20.0616L32.4286 23.4597C32.193 23.5419 32 23.8236 32 24.0818V38.2377C32 38.4959 32.1618 38.8363 32.3577 38.9977L42.1423 46.8797C42.2416 46.9589 42.3694 47 42.4999 47C42.6305 47 42.7611 46.9589 42.8576 46.8797L52.6422 38.9977C52.8381 38.8393 52.9999 38.4989 52.9999 38.2377V24.0818C53.0056 23.8236 52.8125 23.5448 52.5769 23.4597V23.4597ZM50.9618 37.6743L42.5028 44.4881L34.0438 37.6743V25.1265L42.5028 22.1451L50.9618 25.1265V37.6743ZM39.4059 33.9915L37.206 36.2657C37.1637 36.3099 37.14 36.3694 37.14 36.4315C37.14 36.4936 37.1637 36.5532 37.206 36.5973L38.1711 37.595C38.2591 37.686 38.4039 37.686 38.4919 37.595L40.6918 35.3208C42.2729 36.3508 44.3848 36.1542 45.7615 34.731C47.3596 33.0789 47.3596 30.4027 45.7615 28.7506C44.1634 27.0985 41.5746 27.0985 39.9764 28.7506C38.5997 30.1738 38.4095 32.36 39.4059 33.9915V33.9915ZM41.2623 30.0799C42.1508 29.1614 43.59 29.1614 44.4756 30.0799C45.3641 30.9984 45.3641 32.4861 44.4756 33.4017C43.5871 34.3202 42.148 34.3202 41.2623 33.4017C40.3767 32.4832 40.3738 30.9984 41.2623 30.0799V30.0799Z" fill="black"/>
</svg>
