<svg width="37" height="37" viewBox="0 0 37 37" fill="none" xmlns="http://www.w3.org/2000/svg">
<path d="M34.6336 24.2067L28.454 18.588C28.1619 18.3225 27.778 18.1809 27.3835 18.1931C26.9889 18.2053 26.6145 18.3704 26.3394 18.6534L22.7015 22.3946C21.8259 22.2274 20.0655 21.6786 18.2534 19.8711C16.4413 18.0575 15.8925 16.2925 15.7298 15.423L19.468 11.7836C19.7514 11.5086 19.9167 11.1342 19.9289 10.7395C19.9411 10.3448 19.7993 9.96091 19.5334 9.66896L13.9162 3.49084C13.6503 3.19798 13.2806 3.02034 12.8858 2.99564C12.4909 2.97095 12.102 3.10114 11.8016 3.35858L8.50277 6.18769C8.23994 6.45147 8.08307 6.80254 8.06191 7.1743C8.0391 7.55435 7.60432 16.557 14.5851 23.5409C20.6751 29.6293 28.3035 30.0747 30.4044 30.0747C30.7115 30.0747 30.9 30.0656 30.9502 30.0626C31.3219 30.0418 31.6728 29.8842 31.9353 29.6202L34.7629 26.3198C35.0213 26.0204 35.1525 25.6318 35.1283 25.237C35.1042 24.8422 34.9266 24.4724 34.6336 24.2067Z" fill="white"/>
</svg>
