<svg width="84" height="96" viewBox="0 0 84 96" fill="none" xmlns="http://www.w3.org/2000/svg">
<circle cx="41.6094" cy="34.291" r="34.291" fill="#C9C9C9"/>
<path d="M5.21181 73.7586H7.10812L9.11096 78.645H9.19619L11.199 73.7586H13.0953V81.0314H11.6039V76.2977H11.5435L9.66138 80.9959H8.64576L6.76366 76.28H6.70329V81.0314H5.21181V73.7586ZM15.8892 81.1344C15.5412 81.1344 15.231 81.074 14.9588 80.9532C14.6865 80.8301 14.4711 80.649 14.3125 80.4099C14.1562 80.1684 14.0781 79.8678 14.0781 79.5079C14.0781 79.2049 14.1337 78.9504 14.245 78.7444C14.3563 78.5385 14.5078 78.3728 14.6996 78.2473C14.8913 78.1218 15.1091 78.0271 15.353 77.9632C15.5992 77.8993 15.8572 77.8543 16.1271 77.8282C16.4444 77.7951 16.7 77.7643 16.8942 77.7359C17.0883 77.7051 17.2292 77.6602 17.3167 77.601C17.4043 77.5418 17.4481 77.4542 17.4481 77.3382V77.3169C17.4481 77.092 17.3771 76.918 17.2351 76.7949C17.0954 76.6718 16.8965 76.6102 16.6385 76.6102C16.3662 76.6102 16.1496 76.6706 15.9886 76.7913C15.8276 76.9097 15.7211 77.0588 15.669 77.2388L14.2699 77.1251C14.3409 76.7937 14.4806 76.5072 14.6889 76.2657C14.8972 76.0219 15.1659 75.8349 15.495 75.7047C15.8265 75.5721 16.21 75.5058 16.6456 75.5058C16.9486 75.5058 17.2386 75.5413 17.5156 75.6123C17.795 75.6834 18.0424 75.7934 18.2578 75.9426C18.4756 76.0917 18.6472 76.2835 18.7727 76.5179C18.8982 76.7499 18.9609 77.0281 18.9609 77.3524V81.0314H17.5263V80.275H17.4836C17.3961 80.4454 17.2789 80.5958 17.1321 80.726C16.9853 80.8538 16.8089 80.9544 16.603 81.0278C16.397 81.0988 16.1591 81.1344 15.8892 81.1344ZM16.3224 80.0903C16.545 80.0903 16.7415 80.0465 16.9119 79.9589C17.0824 79.869 17.2161 79.7482 17.3132 79.5967C17.4103 79.4452 17.4588 79.2736 17.4588 79.0818V78.503C17.4114 78.5337 17.3463 78.5621 17.2635 78.5882C17.183 78.6119 17.0918 78.6344 16.99 78.6557C16.8882 78.6746 16.7864 78.6924 16.6846 78.7089C16.5828 78.7231 16.4905 78.7362 16.4077 78.748C16.2301 78.774 16.075 78.8155 15.9425 78.8723C15.8099 78.9291 15.7069 79.006 15.6335 79.1031C15.5601 79.1978 15.5234 79.3162 15.5234 79.4582C15.5234 79.6642 15.598 79.8216 15.7471 79.9305C15.8987 80.0371 16.0904 80.0903 16.3224 80.0903ZM21.6474 77.878V81.0314H20.1346V75.5768H21.5763V76.5392H21.6403C21.761 76.2219 21.9634 75.971 22.2475 75.7863C22.5316 75.5993 22.8761 75.5058 23.2809 75.5058C23.6597 75.5058 23.9899 75.5887 24.2716 75.7544C24.5534 75.9201 24.7724 76.1568 24.9286 76.4646C25.0849 76.77 25.163 77.1346 25.163 77.5584V81.0314H23.6502V77.8282C23.6526 77.4944 23.5673 77.234 23.3945 77.047C23.2217 76.8576 22.9838 76.7629 22.6807 76.7629C22.4771 76.7629 22.2972 76.8067 22.141 76.8943C21.9871 76.9819 21.8663 77.1097 21.7787 77.2778C21.6935 77.4435 21.6497 77.6436 21.6474 77.878ZM29.2566 75.5768V76.7132H25.9718V75.5768H29.2566ZM26.7175 74.27H28.2303V79.3552C28.2303 79.4949 28.2516 79.6038 28.2942 79.6819C28.3368 79.7577 28.396 79.811 28.4718 79.8417C28.5499 79.8725 28.6398 79.8879 28.7416 79.8879C28.8127 79.8879 28.8837 79.882 28.9547 79.8702C29.0257 79.8559 29.0802 79.8453 29.1181 79.8382L29.356 80.9639C29.2802 80.9876 29.1737 81.0148 29.0364 81.0456C28.8991 81.0787 28.7322 81.0988 28.5357 81.1059C28.1711 81.1202 27.8515 81.0716 27.5769 80.9603C27.3046 80.8491 27.0927 80.6763 26.9412 80.4419C26.7897 80.2075 26.7151 79.9116 26.7175 79.5541V74.27ZM32.6692 81.1379C32.1081 81.1379 31.6252 81.0243 31.2203 80.797C30.8179 80.5674 30.5077 80.243 30.2899 79.824C30.0721 79.4026 29.9632 78.9042 29.9632 78.329C29.9632 77.7679 30.0721 77.2755 30.2899 76.8517C30.5077 76.4279 30.8143 76.0977 31.2097 75.8609C31.6074 75.6242 32.0738 75.5058 32.6088 75.5058C32.9687 75.5058 33.3037 75.5638 33.6138 75.6798C33.9263 75.7934 34.1986 75.9651 34.4306 76.1947C34.6649 76.4244 34.8472 76.7132 34.9774 77.0612C35.1076 77.4068 35.1727 77.8117 35.1727 78.2757V78.6912H30.5669V77.7537H33.7487C33.7487 77.5359 33.7014 77.3429 33.6067 77.1748C33.512 77.0068 33.3806 76.8754 33.2125 76.7807C33.0468 76.6836 32.8539 76.6351 32.6337 76.6351C32.404 76.6351 32.2004 76.6883 32.0229 76.7949C31.8477 76.899 31.7104 77.0399 31.611 77.2175C31.5115 77.3926 31.4606 77.588 31.4583 77.8034V78.6947C31.4583 78.9646 31.508 79.1978 31.6074 79.3943C31.7092 79.5908 31.8524 79.7423 32.0371 79.8488C32.2218 79.9554 32.4407 80.0086 32.6941 80.0086C32.8621 80.0086 33.016 79.985 33.1557 79.9376C33.2954 79.8903 33.4149 79.8193 33.5144 79.7246C33.6138 79.6299 33.6896 79.5139 33.7416 79.3765L35.1408 79.4689C35.0698 79.805 34.9242 80.0986 34.704 80.3496C34.4862 80.5981 34.2045 80.7923 33.8588 80.9319C33.5156 81.0693 33.119 81.1379 32.6692 81.1379ZM37.6727 77.878V81.0314H36.16V75.5768H37.6017V76.5392H37.6656C37.7864 76.2219 37.9888 75.971 38.2729 75.7863C38.557 75.5993 38.9014 75.5058 39.3063 75.5058C39.6851 75.5058 40.0153 75.5887 40.297 75.7544C40.5788 75.9201 40.7977 76.1568 40.954 76.4646C41.1102 76.77 41.1884 77.1346 41.1884 77.5584V81.0314H39.6756V77.8282C39.678 77.4944 39.5927 77.234 39.4199 77.047C39.2471 76.8576 39.0092 76.7629 38.7061 76.7629C38.5025 76.7629 38.3226 76.8067 38.1664 76.8943C38.0125 76.9819 37.8917 77.1097 37.8041 77.2778C37.7189 77.4435 37.6751 77.6436 37.6727 77.878ZM42.3807 81.0314V75.5768H43.8935V81.0314H42.3807ZM43.1406 74.8737C42.9157 74.8737 42.7228 74.7991 42.5618 74.65C42.4032 74.4985 42.3238 74.3174 42.3238 74.1067C42.3238 73.8983 42.4032 73.7196 42.5618 73.5704C42.7228 73.4189 42.9157 73.3432 43.1406 73.3432C43.3655 73.3432 43.5573 73.4189 43.7159 73.5704C43.8769 73.7196 43.9574 73.8983 43.9574 74.1067C43.9574 74.3174 43.8769 74.4985 43.7159 74.65C43.5573 74.7991 43.3655 74.8737 43.1406 74.8737ZM45.1053 81.0314V75.5768H46.547V76.5392H46.611C46.7246 76.2196 46.914 75.9675 47.1791 75.7828C47.4443 75.5981 47.7615 75.5058 48.1308 75.5058C48.5049 75.5058 48.8233 75.5993 49.0861 75.7863C49.3489 75.971 49.5241 76.2219 49.6117 76.5392H49.6685C49.7798 76.2267 49.981 75.9769 50.2722 75.7899C50.5657 75.6005 50.9126 75.5058 51.3127 75.5058C51.8217 75.5058 52.2348 75.668 52.552 75.9923C52.8716 76.3143 53.0314 76.7712 53.0314 77.363V81.0314H51.5222V77.6613C51.5222 77.3583 51.4417 77.131 51.2807 76.9795C51.1197 76.828 50.9185 76.7523 50.677 76.7523C50.4024 76.7523 50.1881 76.8398 50.0343 77.015C49.8804 77.1879 49.8034 77.4163 49.8034 77.7004V81.0314H48.3368V77.6294C48.3368 77.3619 48.2599 77.1488 48.106 76.9902C47.9545 76.8316 47.7544 76.7523 47.5058 76.7523C47.3378 76.7523 47.1862 76.7949 47.0513 76.8801C46.9187 76.963 46.8134 77.0801 46.7352 77.2317C46.6571 77.3808 46.6181 77.556 46.6181 77.7572V81.0314H45.1053ZM54.2264 81.0314V75.5768H55.7392V81.0314H54.2264ZM54.9863 74.8737C54.7614 74.8737 54.5685 74.7991 54.4075 74.65C54.2489 74.4985 54.1696 74.3174 54.1696 74.1067C54.1696 73.8983 54.2489 73.7196 54.4075 73.5704C54.5685 73.4189 54.7614 73.3432 54.9863 73.3432C55.2112 73.3432 55.403 73.4189 55.5616 73.5704C55.7226 73.7196 55.8031 73.8983 55.8031 74.1067C55.8031 74.3174 55.7226 74.4985 55.5616 74.65C55.403 74.7991 55.2112 74.8737 54.9863 74.8737ZM59.4368 81.1379C58.8757 81.1379 58.3927 81.0243 57.9879 80.797C57.5854 80.5674 57.2753 80.243 57.0575 79.824C56.8397 79.4026 56.7308 78.9042 56.7308 78.329C56.7308 77.7679 56.8397 77.2755 57.0575 76.8517C57.2753 76.4279 57.5819 76.0977 57.9773 75.8609C58.375 75.6242 58.8414 75.5058 59.3764 75.5058C59.7363 75.5058 60.0712 75.5638 60.3814 75.6798C60.6939 75.7934 60.9661 75.9651 61.1981 76.1947C61.4325 76.4244 61.6148 76.7132 61.745 77.0612C61.8752 77.4068 61.9403 77.8117 61.9403 78.2757V78.6912H57.3345V77.7537H60.5163C60.5163 77.5359 60.469 77.3429 60.3743 77.1748C60.2796 77.0068 60.1482 76.8754 59.9801 76.7807C59.8144 76.6836 59.6214 76.6351 59.4013 76.6351C59.1716 76.6351 58.968 76.6883 58.7905 76.7949C58.6153 76.899 58.478 77.0399 58.3785 77.2175C58.2791 77.3926 58.2282 77.588 58.2258 77.8034V78.6947C58.2258 78.9646 58.2756 79.1978 58.375 79.3943C58.4768 79.5908 58.62 79.7423 58.8047 79.8488C58.9893 79.9554 59.2083 80.0086 59.4616 80.0086C59.6297 80.0086 59.7836 79.985 59.9233 79.9376C60.063 79.8903 60.1825 79.8193 60.2819 79.7246C60.3814 79.6299 60.4571 79.5139 60.5092 79.3765L61.9084 79.4689C61.8373 79.805 61.6917 80.0986 61.4716 80.3496C61.2538 80.5981 60.972 80.7923 60.6264 80.9319C60.2831 81.0693 59.8866 81.1379 59.4368 81.1379ZM64.4403 77.878V81.0314H62.9275V75.5768H64.3693V76.5392H64.4332C64.554 76.2219 64.7564 75.971 65.0405 75.7863C65.3246 75.5993 65.669 75.5058 66.0738 75.5058C66.4526 75.5058 66.7829 75.5887 67.0646 75.7544C67.3463 75.9201 67.5653 76.1568 67.7216 76.4646C67.8778 76.77 67.956 77.1346 67.956 77.5584V81.0314H66.4432V77.8282C66.4455 77.4944 66.3603 77.234 66.1875 77.047C66.0147 76.8576 65.7767 76.7629 65.4737 76.7629C65.2701 76.7629 65.0902 76.8067 64.9339 76.8943C64.7801 76.9819 64.6593 77.1097 64.5717 77.2778C64.4865 77.4435 64.4427 77.6436 64.4403 77.878ZM72.0495 75.5768V76.7132H68.7647V75.5768H72.0495ZM69.5105 74.27H71.0232V79.3552C71.0232 79.4949 71.0446 79.6038 71.0872 79.6819C71.1298 79.7577 71.189 79.811 71.2647 79.8417C71.3429 79.8725 71.4328 79.8879 71.5346 79.8879C71.6056 79.8879 71.6767 79.882 71.7477 79.8702C71.8187 79.8559 71.8732 79.8453 71.911 79.8382L72.149 80.9639C72.0732 80.9876 71.9667 81.0148 71.8294 81.0456C71.692 81.0787 71.5251 81.0988 71.3286 81.1059C70.9641 81.1202 70.6445 81.0716 70.3698 80.9603C70.0976 80.8491 69.8857 80.6763 69.7342 80.4419C69.5827 80.2075 69.5081 79.9116 69.5105 79.5541V74.27ZM75.4409 81.1379C74.8893 81.1379 74.4122 81.0207 74.0098 80.7863C73.6097 80.5496 73.3007 80.2205 73.0829 79.7991C72.8651 79.3754 72.7562 78.8841 72.7562 78.3254C72.7562 77.762 72.8651 77.2695 73.0829 76.8481C73.3007 76.4244 73.6097 76.0953 74.0098 75.8609C74.4122 75.6242 74.8893 75.5058 75.4409 75.5058C75.9925 75.5058 76.4683 75.6242 76.8684 75.8609C77.2709 76.0953 77.581 76.4244 77.7988 76.8481C78.0166 77.2695 78.1255 77.762 78.1255 78.3254C78.1255 78.8841 78.0166 79.3754 77.7988 79.7991C77.581 80.2205 77.2709 80.5496 76.8684 80.7863C76.4683 81.0207 75.9925 81.1379 75.4409 81.1379ZM75.448 79.966C75.6989 79.966 75.9084 79.895 76.0765 79.753C76.2446 79.6086 76.3713 79.4121 76.4565 79.1635C76.5441 78.9149 76.5879 78.632 76.5879 78.3148C76.5879 77.9975 76.5441 77.7146 76.4565 77.466C76.3713 77.2175 76.2446 77.021 76.0765 76.8765C75.9084 76.7321 75.6989 76.6599 75.448 76.6599C75.1947 76.6599 74.9816 76.7321 74.8088 76.8765C74.6383 77.021 74.5093 77.2175 74.4217 77.466C74.3365 77.7146 74.2938 77.9975 74.2938 78.3148C74.2938 78.632 74.3365 78.9149 74.4217 79.1635C74.5093 79.4121 74.6383 79.6086 74.8088 79.753C74.9816 79.895 75.1947 79.966 75.448 79.966ZM19.8354 93.1379C19.2767 93.1379 18.7961 93.0195 18.3936 92.7828C17.9935 92.5437 17.6858 92.2122 17.4703 91.7885C17.2573 91.3647 17.1507 90.877 17.1507 90.3254C17.1507 89.7667 17.2584 89.2766 17.4739 88.8552C17.6917 88.4315 18.0006 88.1012 18.4007 87.8645C18.8008 87.6254 19.2767 87.5058 19.8283 87.5058C20.3041 87.5058 20.7208 87.5922 21.0783 87.765C21.4358 87.9379 21.7187 88.1805 21.927 88.493C22.1353 88.8055 22.2502 89.1725 22.2715 89.5939H20.8439C20.8037 89.3216 20.6971 89.1026 20.5243 88.9369C20.3539 88.7688 20.1301 88.6848 19.8531 88.6848C19.6188 88.6848 19.414 88.7487 19.2388 88.8765C19.066 89.002 18.931 89.1855 18.834 89.427C18.7369 89.6684 18.6884 89.9608 18.6884 90.3041C18.6884 90.6521 18.7357 90.948 18.8304 91.1919C18.9275 91.4357 19.0636 91.6216 19.2388 91.7494C19.414 91.8773 19.6188 91.9412 19.8531 91.9412C20.026 91.9412 20.181 91.9057 20.3183 91.8346C20.458 91.7636 20.5728 91.6606 20.6628 91.5257C20.7551 91.3884 20.8155 91.2238 20.8439 91.0321H22.2715C22.2478 91.4487 22.1342 91.8157 21.9306 92.1329C21.7293 92.4478 21.4512 92.694 21.096 92.8716C20.7409 93.0491 20.3207 93.1379 19.8354 93.1379ZM25.7045 93.1379C25.1529 93.1379 24.6759 93.0207 24.2734 92.7863C23.8733 92.5496 23.5644 92.2205 23.3466 91.7991C23.1288 91.3754 23.0199 90.8841 23.0199 90.3254C23.0199 89.762 23.1288 89.2695 23.3466 88.8481C23.5644 88.4244 23.8733 88.0953 24.2734 87.8609C24.6759 87.6242 25.1529 87.5058 25.7045 87.5058C26.2561 87.5058 26.732 87.6242 27.1321 87.8609C27.5345 88.0953 27.8447 88.4244 28.0625 88.8481C28.2803 89.2695 28.3892 89.762 28.3892 90.3254C28.3892 90.8841 28.2803 91.3754 28.0625 91.7991C27.8447 92.2205 27.5345 92.5496 27.1321 92.7863C26.732 93.0207 26.2561 93.1379 25.7045 93.1379ZM25.7116 91.966C25.9626 91.966 26.1721 91.895 26.3402 91.753C26.5083 91.6086 26.6349 91.4121 26.7202 91.1635C26.8078 90.9149 26.8515 90.632 26.8515 90.3148C26.8515 89.9975 26.8078 89.7146 26.7202 89.466C26.6349 89.2175 26.5083 89.021 26.3402 88.8765C26.1721 88.7321 25.9626 88.6599 25.7116 88.6599C25.4583 88.6599 25.2453 88.7321 25.0724 88.8765C24.902 89.021 24.7729 89.2175 24.6854 89.466C24.6001 89.7146 24.5575 89.9975 24.5575 90.3148C24.5575 90.632 24.6001 90.9149 24.6854 91.1635C24.7729 91.4121 24.902 91.6086 25.0724 91.753C25.2453 91.895 25.4583 91.966 25.7116 91.966ZM30.8856 89.878V93.0314H29.3729V87.5768H30.8146V88.5392H30.8785C30.9993 88.2219 31.2017 87.971 31.4858 87.7863C31.7699 87.5993 32.1143 87.5058 32.5192 87.5058C32.8979 87.5058 33.2282 87.5887 33.5099 87.7544C33.7917 87.9201 34.0106 88.1568 34.1669 88.4646C34.3231 88.77 34.4013 89.1346 34.4013 89.5584V93.0314H32.8885V89.8282C32.8908 89.4944 32.8056 89.234 32.6328 89.047C32.46 88.8576 32.222 88.7629 31.919 88.7629C31.7154 88.7629 31.5355 88.8067 31.3792 88.8943C31.2254 88.9819 31.1046 89.1097 31.017 89.2778C30.9318 89.4435 30.888 89.6436 30.8856 89.878ZM40.1319 89.1322L38.747 89.2175C38.7233 89.0991 38.6724 88.9925 38.5943 88.8978C38.5161 88.8008 38.4132 88.7238 38.2853 88.667C38.1598 88.6078 38.0095 88.5782 37.8343 88.5782C37.5999 88.5782 37.4023 88.628 37.2413 88.7274C37.0803 88.8245 36.9998 88.9547 36.9998 89.118C36.9998 89.2482 37.0519 89.3583 37.1561 89.4483C37.2602 89.5382 37.439 89.6104 37.6923 89.6649L38.6795 89.8638C39.2098 89.9727 39.6052 90.1478 39.8656 90.3893C40.126 90.6308 40.2562 90.948 40.2562 91.341C40.2562 91.6985 40.1508 92.0122 39.9401 92.2821C39.7318 92.552 39.4454 92.7627 39.0808 92.9142C38.7186 93.0633 38.3007 93.1379 37.8272 93.1379C37.1052 93.1379 36.5299 92.9876 36.1014 92.6869C35.6752 92.3839 35.4255 91.9719 35.3521 91.4511L36.84 91.373C36.885 91.5932 36.9939 91.7612 37.1667 91.8773C37.3395 91.9909 37.5609 92.0477 37.8308 92.0477C38.0959 92.0477 38.309 91.9968 38.47 91.895C38.6333 91.7908 38.7162 91.6571 38.7186 91.4937C38.7162 91.3564 38.6582 91.244 38.5446 91.1564C38.4309 91.0664 38.2557 90.9978 38.019 90.9504L37.0744 90.7622C36.5417 90.6557 36.1452 90.471 35.8848 90.2082C35.6267 89.9454 35.4977 89.6104 35.4977 89.2032C35.4977 88.8529 35.5924 88.551 35.7818 88.2977C35.9735 88.0444 36.2422 87.8491 36.5879 87.7118C36.9359 87.5745 37.3431 87.5058 37.8095 87.5058C38.4984 87.5058 39.0405 87.6514 39.4359 87.9426C39.8336 88.2338 40.0656 88.6303 40.1319 89.1322ZM44.1101 87.5768V88.7132H40.8253V87.5768H44.1101ZM41.571 86.27H43.0838V91.3552C43.0838 91.4949 43.1051 91.6038 43.1477 91.6819C43.1903 91.7577 43.2495 91.811 43.3253 91.8417C43.4034 91.8725 43.4934 91.8879 43.5952 91.8879C43.6662 91.8879 43.7372 91.882 43.8082 91.8702C43.8792 91.8559 43.9337 91.8453 43.9716 91.8382L44.2095 92.9639C44.1337 92.9876 44.0272 93.0148 43.8899 93.0456C43.7526 93.0787 43.5857 93.0988 43.3892 93.1059C43.0246 93.1202 42.705 93.0716 42.4304 92.9603C42.1581 92.8491 41.9462 92.6763 41.7947 92.4419C41.6432 92.2075 41.5686 91.9116 41.571 91.5541V86.27ZM46.6509 93.1344C46.3029 93.1344 45.9928 93.074 45.7205 92.9532C45.4483 92.8301 45.2328 92.649 45.0742 92.4099C44.918 92.1684 44.8398 91.8678 44.8398 91.5079C44.8398 91.2049 44.8955 90.9504 45.0067 90.7444C45.118 90.5385 45.2695 90.3728 45.4613 90.2473C45.653 90.1218 45.8708 90.0271 46.1147 89.9632C46.3609 89.8993 46.6189 89.8543 46.8888 89.8282C47.2061 89.7951 47.4618 89.7643 47.6559 89.7359C47.85 89.7051 47.9909 89.6602 48.0785 89.601C48.1661 89.5418 48.2099 89.4542 48.2099 89.3382V89.3169C48.2099 89.092 48.1388 88.918 47.9968 88.7949C47.8571 88.6718 47.6582 88.6102 47.4002 88.6102C47.1279 88.6102 46.9113 88.6706 46.7503 88.7913C46.5894 88.9097 46.4828 89.0588 46.4307 89.2388L45.0316 89.1251C45.1026 88.7937 45.2423 88.5072 45.4506 88.2657C45.659 88.0219 45.9277 87.8349 46.2567 87.7047C46.5882 87.5721 46.9717 87.5058 47.4073 87.5058C47.7103 87.5058 48.0003 87.5413 48.2773 87.6123C48.5567 87.6834 48.8041 87.7934 49.0195 87.9426C49.2373 88.0917 49.409 88.2835 49.5344 88.5179C49.6599 88.7499 49.7226 89.0281 49.7226 89.3524V93.0314H48.288V92.275H48.2454C48.1578 92.4454 48.0406 92.5958 47.8938 92.726C47.747 92.8538 47.5707 92.9544 47.3647 93.0278C47.1587 93.0988 46.9208 93.1344 46.6509 93.1344ZM47.0841 92.0903C47.3067 92.0903 47.5032 92.0465 47.6736 91.9589C47.8441 91.869 47.9778 91.7482 48.0749 91.5967C48.172 91.4452 48.2205 91.2736 48.2205 91.0818V90.503C48.1732 90.5337 48.1081 90.5621 48.0252 90.5882C47.9447 90.6119 47.8536 90.6344 47.7518 90.6557C47.65 90.6746 47.5482 90.6924 47.4464 90.7089C47.3446 90.7231 47.2522 90.7362 47.1694 90.748C46.9918 90.774 46.8368 90.8155 46.7042 90.8723C46.5716 90.9291 46.4686 91.006 46.3952 91.1031C46.3218 91.1978 46.2851 91.3162 46.2851 91.4582C46.2851 91.6642 46.3597 91.8216 46.5089 91.9305C46.6604 92.0371 46.8521 92.0903 47.0841 92.0903ZM52.4091 89.878V93.0314H50.8963V87.5768H52.3381V88.5392H52.402C52.5227 88.2219 52.7251 87.971 53.0092 87.7863C53.2933 87.5993 53.6378 87.5058 54.0426 87.5058C54.4214 87.5058 54.7516 87.5887 55.0334 87.7544C55.3151 87.9201 55.5341 88.1568 55.6903 88.4646C55.8466 88.77 55.9247 89.1346 55.9247 89.5584V93.0314H54.4119V89.8282C54.4143 89.4944 54.3291 89.234 54.1562 89.047C53.9834 88.8576 53.7455 88.7629 53.4425 88.7629C53.2389 88.7629 53.0589 88.8067 52.9027 88.8943C52.7488 88.9819 52.6281 89.1097 52.5405 89.2778C52.4552 89.4435 52.4114 89.6436 52.4091 89.878ZM60.0183 87.5768V88.7132H56.7335V87.5768H60.0183ZM57.4792 86.27H58.992V91.3552C58.992 91.4949 59.0133 91.6038 59.0559 91.6819C59.0985 91.7577 59.1577 91.811 59.2335 91.8417C59.3116 91.8725 59.4016 91.8879 59.5034 91.8879C59.5744 91.8879 59.6454 91.882 59.7164 91.8702C59.7874 91.8559 59.8419 91.8453 59.8798 91.8382L60.1177 92.9639C60.0419 92.9876 59.9354 93.0148 59.7981 93.0456C59.6608 93.0787 59.4939 93.0988 59.2974 93.1059C58.9328 93.1202 58.6132 93.0716 58.3386 92.9603C58.0663 92.8491 57.8544 92.6763 57.7029 92.4419C57.5514 92.2075 57.4768 91.9116 57.4792 91.5541V86.27ZM63.4309 93.1379C62.8698 93.1379 62.3869 93.0243 61.9821 92.797C61.5796 92.5674 61.2695 92.243 61.0517 91.824C60.8339 91.4026 60.7249 90.9042 60.7249 90.329C60.7249 89.7679 60.8339 89.2755 61.0517 88.8517C61.2695 88.4279 61.576 88.0977 61.9714 87.8609C62.3691 87.6242 62.8355 87.5058 63.3705 87.5058C63.7304 87.5058 64.0654 87.5638 64.3755 87.6798C64.688 87.7934 64.9603 87.9651 65.1923 88.1947C65.4267 88.4244 65.6089 88.7132 65.7392 89.0612C65.8694 89.4068 65.9345 89.8117 65.9345 90.2757V90.6912H61.3286V89.7537H64.5105C64.5105 89.5359 64.4631 89.3429 64.3684 89.1748C64.2737 89.0068 64.1423 88.8754 63.9742 88.7807C63.8085 88.6836 63.6156 88.6351 63.3954 88.6351C63.1658 88.6351 62.9622 88.6883 62.7846 88.7949C62.6094 88.899 62.4721 89.0399 62.3727 89.2175C62.2732 89.3926 62.2223 89.588 62.22 89.8034V90.6947C62.22 90.9646 62.2697 91.1978 62.3691 91.3943C62.4709 91.5908 62.6142 91.7423 62.7988 91.8488C62.9835 91.9554 63.2025 92.0086 63.4558 92.0086C63.6239 92.0086 63.7777 91.985 63.9174 91.9376C64.0571 91.8903 64.1767 91.8193 64.2761 91.7246C64.3755 91.6299 64.4513 91.5139 64.5034 91.3765L65.9025 91.4689C65.8315 91.805 65.6859 92.0986 65.4657 92.3496C65.2479 92.5981 64.9662 92.7923 64.6205 92.9319C64.2773 93.0693 63.8807 93.1379 63.4309 93.1379Z" fill="black"/>
<path d="M53.6926 33.0762C52.582 34.1493 51.1662 34.8808 49.6244 35.1782C48.0826 35.4755 46.484 35.3253 45.0307 34.7466L35.5639 45.7472C33.8315 47.4176 31.0317 47.4176 29.2993 45.7472C27.5669 44.0769 27.5669 41.3773 29.2993 39.7239L40.7085 30.5791C39.5186 27.7952 40.096 24.4882 42.4409 22.2274C44.6807 20.0677 47.9005 19.4941 50.7003 20.4389L45.6432 25.315L50.5778 30.0729L55.5825 25.2306C56.5099 27.8964 55.8975 30.9503 53.6926 33.0762ZM31.1717 43.9419C31.8716 44.5999 32.9915 44.5999 33.674 43.9419C34.3739 43.267 34.3739 42.1872 33.674 41.5292C32.9915 40.8543 31.8716 40.8543 31.1717 41.5292C30.8436 41.851 30.6597 42.2843 30.6597 42.7355C30.6597 43.1868 30.8436 43.6201 31.1717 43.9419Z" fill="black"/>
</svg>
