<svg width="38" height="38" viewBox="0 0 38 38" fill="none" xmlns="http://www.w3.org/2000/svg">
<path d="M19.0312 2.94189C15.7062 2.94582 12.5184 4.26843 10.1672 6.61961C7.81605 8.97079 6.49344 12.1585 6.48952 15.4836C6.48553 18.2009 7.37311 20.8444 9.0161 23.0086C9.0161 23.0086 9.35815 23.459 9.41402 23.524L19.0312 34.8663L28.653 23.5183C28.7032 23.4579 29.0464 23.0086 29.0464 23.0086L29.0475 23.0052C30.6897 20.8419 31.5769 18.1996 31.573 15.4836C31.569 12.1585 30.2464 8.97079 27.8952 6.61961C25.5441 4.26843 22.3563 2.94582 19.0312 2.94189V2.94189ZM19.0312 20.0442C18.1292 20.0442 17.2475 19.7768 16.4975 19.2756C15.7475 18.7745 15.1629 18.0622 14.8178 17.2289C14.4726 16.3955 14.3823 15.4786 14.5582 14.5939C14.7342 13.7092 15.1686 12.8966 15.8064 12.2588C16.4442 11.621 17.2568 11.1866 18.1415 11.0106C19.0262 10.8346 19.9432 10.925 20.7765 11.2701C21.6099 11.6153 22.3221 12.1999 22.8233 12.9499C23.3244 13.6999 23.5919 14.5816 23.5919 15.4836C23.5904 16.6927 23.1094 17.8518 22.2544 18.7068C21.3995 19.5618 20.2403 20.0427 19.0312 20.0442V20.0442Z" fill="white"/>
</svg>
