<svg width="37" height="37" viewBox="0 0 37 37" fill="none" xmlns="http://www.w3.org/2000/svg">
<path d="M34.0095 21.6632L32.0541 19.7078C32.2765 19.2513 32.3934 18.7506 32.3961 18.2427C32.3961 17.5662 32.1955 16.9049 31.8197 16.3424C31.4438 15.7799 30.9096 15.3415 30.2846 15.0826C29.6596 14.8237 28.9719 14.756 28.3084 14.888C27.6449 15.02 27.0354 15.3457 26.557 15.8241C26.0787 16.3025 25.7529 16.9119 25.6209 17.5754C25.4889 18.2389 25.5567 18.9267 25.8156 19.5517C26.0745 20.1767 26.5129 20.7109 27.0754 21.0868C27.6379 21.4626 28.2992 21.6632 28.9757 21.6632C29.4839 21.6607 29.985 21.5438 30.4419 21.3212L32.3961 23.2754V31.9246H25.5552V28.5041C25.5528 26.3882 24.7112 24.3595 23.2149 22.8633C21.7187 21.3671 19.6901 20.5255 17.5741 20.523H10.7332C8.61719 20.5255 6.58857 21.3671 5.09235 22.8633C3.59613 24.3595 2.75449 26.3882 2.75208 28.5041V34.2049H34.6765V23.2754C34.6773 22.9759 34.6188 22.6793 34.5043 22.4025C34.3898 22.1258 34.2216 21.8745 34.0095 21.6632V21.6632ZM5.03239 28.5041C5.0342 26.9928 5.6354 25.5438 6.70411 24.4751C7.77282 23.4064 9.22178 22.8052 10.7332 22.8034H17.5741C19.0855 22.8052 20.5345 23.4064 21.6032 24.4751C22.6719 25.5438 23.2731 26.9928 23.2749 28.5041V31.9246H5.03239V28.5041Z" fill="white"/>
<path d="M14.1537 4.56059C15.2812 4.56059 16.3834 4.89493 17.3209 5.52134C18.2584 6.14775 18.9891 7.03809 19.4205 8.07977C19.852 9.12145 19.9649 10.2677 19.7449 11.3735C19.525 12.4794 18.982 13.4952 18.1848 14.2924C17.3875 15.0897 16.3717 15.6326 15.2659 15.8526C14.16 16.0726 13.0138 15.9597 11.9721 15.5282C10.9304 15.0967 10.0401 14.366 9.41368 13.4286C8.78727 12.4911 8.45292 11.3889 8.45292 10.2614C8.45292 8.74943 9.05354 7.29941 10.1226 6.23031C11.1917 5.1612 12.6418 4.56059 14.1537 4.56059V4.56059ZM14.1537 2.28027C12.5752 2.28027 11.0321 2.74836 9.71965 3.62533C8.40716 4.5023 7.38421 5.74878 6.78014 7.20714C6.17607 8.66549 6.01801 10.2702 6.32597 11.8184C6.63392 13.3666 7.39404 14.7887 8.51022 15.9049C9.6264 17.021 11.0485 17.7812 12.5967 18.0891C14.1449 18.3971 15.7496 18.239 17.2079 17.6349C18.6663 17.0309 19.9128 16.0079 20.7897 14.6954C21.6667 13.3829 22.1348 11.8399 22.1348 10.2614C22.1348 8.14465 21.2939 6.11463 19.7972 4.61788C18.3004 3.12114 16.2704 2.28027 14.1537 2.28027V2.28027Z" fill="white"/>
</svg>
