<svg width="84" height="96" viewBox="0 0 84 96" fill="none" xmlns="http://www.w3.org/2000/svg">
<circle cx="41.6094" cy="34.291" r="34.291" fill="#C9C9C9"/>
<path d="M6.99404 75.8503C6.96563 75.5638 6.84371 75.3413 6.62827 75.1827C6.41283 75.024 6.12046 74.9447 5.75114 74.9447C5.50019 74.9447 5.28831 74.9802 5.11549 75.0513C4.94266 75.1199 4.81009 75.2158 4.71776 75.3389C4.6278 75.462 4.58282 75.6017 4.58282 75.7579C4.57808 75.8881 4.60531 76.0018 4.66449 76.0988C4.72604 76.1959 4.81009 76.28 4.91662 76.351C5.02316 76.4196 5.14626 76.48 5.28594 76.5321C5.42562 76.5818 5.57477 76.6244 5.73338 76.6599L6.38679 76.8162C6.70403 76.8872 6.99522 76.9819 7.26037 77.1003C7.52552 77.2186 7.75516 77.3642 7.94929 77.5371C8.14342 77.7099 8.29375 77.9135 8.40029 78.1478C8.50919 78.3822 8.56482 78.6509 8.56719 78.954C8.56482 79.399 8.45119 79.7849 8.22628 80.1116C8.00374 80.436 7.68177 80.6881 7.26037 80.868C6.84134 81.0456 6.33589 81.1344 5.74404 81.1344C5.15692 81.1344 4.64555 81.0444 4.20995 80.8645C3.77671 80.6845 3.43817 80.4182 3.19432 80.0655C2.95284 79.7103 2.82619 79.2712 2.81435 78.748H4.30228C4.31885 78.9918 4.38869 79.1954 4.51179 79.3588C4.63727 79.5198 4.80417 79.6417 5.0125 79.7246C5.2232 79.805 5.46113 79.8453 5.72628 79.8453C5.9867 79.8453 6.21279 79.8074 6.40455 79.7317C6.59868 79.6559 6.74901 79.5505 6.85554 79.4156C6.96208 79.2807 7.01534 79.1256 7.01534 78.9504C7.01534 78.7871 6.96681 78.6497 6.86975 78.5385C6.77505 78.4272 6.63537 78.3325 6.45071 78.2544C6.26842 78.1763 6.0447 78.1052 5.77955 78.0413L4.98764 77.8425C4.37448 77.6933 3.89034 77.4601 3.53523 77.1429C3.18012 76.8256 3.00374 76.3983 3.00611 75.8609C3.00374 75.4206 3.12093 75.0359 3.35767 74.7068C3.59678 74.3777 3.92467 74.1209 4.34134 73.9362C4.758 73.7515 5.23149 73.6592 5.76179 73.6592C6.30157 73.6592 6.77268 73.7515 7.17514 73.9362C7.57997 74.1209 7.89484 74.3777 8.11975 74.7068C8.34465 75.0359 8.46066 75.417 8.46776 75.8503H6.99404ZM12.0375 81.1379C11.4859 81.1379 11.0089 81.0207 10.6064 80.7863C10.2063 80.5496 9.89739 80.2205 9.67958 79.7991C9.46178 79.3754 9.35288 78.8841 9.35288 78.3254C9.35288 77.762 9.46178 77.2695 9.67958 76.8481C9.89739 76.4244 10.2063 76.0953 10.6064 75.8609C11.0089 75.6242 11.4859 75.5058 12.0375 75.5058C12.5891 75.5058 13.065 75.6242 13.4651 75.8609C13.8676 76.0953 14.1777 76.4244 14.3955 76.8481C14.6133 77.2695 14.7222 77.762 14.7222 78.3254C14.7222 78.8841 14.6133 79.3754 14.3955 79.7991C14.1777 80.2205 13.8676 80.5496 13.4651 80.7863C13.065 81.0207 12.5891 81.1379 12.0375 81.1379ZM12.0446 79.966C12.2956 79.966 12.5051 79.895 12.6732 79.753C12.8413 79.6086 12.9679 79.4121 13.0532 79.1635C13.1408 78.9149 13.1846 78.632 13.1846 78.3148C13.1846 77.9975 13.1408 77.7146 13.0532 77.466C12.9679 77.2175 12.8413 77.021 12.6732 76.8765C12.5051 76.7321 12.2956 76.6599 12.0446 76.6599C11.7913 76.6599 11.5783 76.7321 11.4054 76.8765C11.235 77.021 11.106 77.2175 11.0184 77.466C10.9331 77.7146 10.8905 77.9975 10.8905 78.3148C10.8905 78.632 10.9331 78.9149 11.0184 79.1635C11.106 79.4121 11.235 79.6086 11.4054 79.753C11.5783 79.895 11.7913 79.966 12.0446 79.966ZM15.7059 83.0768V75.5768H17.1973V76.493H17.2648C17.3311 76.3462 17.427 76.1971 17.5525 76.0456C17.6803 75.8917 17.846 75.7639 18.0496 75.6621C18.2556 75.5579 18.5113 75.5058 18.8167 75.5058C19.2144 75.5058 19.5813 75.61 19.9175 75.8183C20.2537 76.0243 20.5224 76.3356 20.7236 76.7523C20.9248 77.1666 21.0255 77.6862 21.0255 78.3112C21.0255 78.9196 20.9272 79.4334 20.7307 79.8524C20.5366 80.2691 20.2714 80.5851 19.9353 80.8005C19.6015 81.0136 19.2274 81.1202 18.8131 81.1202C18.5195 81.1202 18.2698 81.0716 18.0638 80.9746C17.8602 80.8775 17.6933 80.7556 17.5631 80.6088C17.4329 80.4596 17.3335 80.3093 17.2648 80.1578H17.2186V83.0768H15.7059ZM17.1867 78.3041C17.1867 78.6284 17.2317 78.9113 17.3216 79.1528C17.4116 79.3943 17.5418 79.5825 17.7123 79.7175C17.8827 79.85 18.0899 79.9163 18.3337 79.9163C18.5799 79.9163 18.7882 79.8488 18.9587 79.7139C19.1292 79.5766 19.2582 79.3872 19.3458 79.1457C19.4357 78.9019 19.4807 78.6213 19.4807 78.3041C19.4807 77.9892 19.4369 77.7122 19.3493 77.4731C19.2617 77.234 19.1327 77.047 18.9623 76.9121C18.7918 76.7771 18.5823 76.7096 18.3337 76.7096C18.0875 76.7096 17.8792 76.7747 17.7087 76.905C17.5406 77.0352 17.4116 77.2198 17.3216 77.4589C17.2317 77.698 17.1867 77.9798 17.1867 78.3041ZM24.4985 81.1379C23.9469 81.1379 23.4698 81.0207 23.0674 80.7863C22.6673 80.5496 22.3583 80.2205 22.1405 79.7991C21.9227 79.3754 21.8138 78.8841 21.8138 78.3254C21.8138 77.762 21.9227 77.2695 22.1405 76.8481C22.3583 76.4244 22.6673 76.0953 23.0674 75.8609C23.4698 75.6242 23.9469 75.5058 24.4985 75.5058C25.0501 75.5058 25.5259 75.6242 25.926 75.8609C26.3285 76.0953 26.6386 76.4244 26.8564 76.8481C27.0742 77.2695 27.1831 77.762 27.1831 78.3254C27.1831 78.8841 27.0742 79.3754 26.8564 79.7991C26.6386 80.2205 26.3285 80.5496 25.926 80.7863C25.5259 81.0207 25.0501 81.1379 24.4985 81.1379ZM24.5056 79.966C24.7565 79.966 24.966 79.895 25.1341 79.753C25.3022 79.6086 25.4289 79.4121 25.5141 79.1635C25.6017 78.9149 25.6455 78.632 25.6455 78.3148C25.6455 77.9975 25.6017 77.7146 25.5141 77.466C25.4289 77.2175 25.3022 77.021 25.1341 76.8765C24.966 76.7321 24.7565 76.6599 24.5056 76.6599C24.2523 76.6599 24.0392 76.7321 23.8664 76.8765C23.6959 77.021 23.5669 77.2175 23.4793 77.466C23.3941 77.7146 23.3515 77.9975 23.3515 78.3148C23.3515 78.632 23.3941 78.9149 23.4793 79.1635C23.5669 79.4121 23.6959 79.6086 23.8664 79.753C24.0392 79.895 24.2523 79.966 24.5056 79.966ZM28.1668 81.0314V75.5768H29.6334V76.5285H29.6902C29.7897 76.19 29.9566 75.9343 30.1909 75.7615C30.4253 75.5863 30.6952 75.4987 31.0006 75.4987C31.0764 75.4987 31.158 75.5034 31.2456 75.5129C31.3332 75.5224 31.4102 75.5354 31.4765 75.552V76.8943C31.4054 76.873 31.3072 76.8541 31.1817 76.8375C31.0562 76.8209 30.9414 76.8126 30.8373 76.8126C30.6147 76.8126 30.4159 76.8612 30.2407 76.9582C30.0678 77.0529 29.9305 77.1855 29.8287 77.3559C29.7293 77.5264 29.6796 77.7229 29.6796 77.9454V81.0314H28.1668ZM35.4333 75.5768V76.7132H32.1485V75.5768H35.4333ZM32.8943 74.27H34.407V79.3552C34.407 79.4949 34.4283 79.6038 34.471 79.6819C34.5136 79.7577 34.5728 79.811 34.6485 79.8417C34.7266 79.8725 34.8166 79.8879 34.9184 79.8879C34.9894 79.8879 35.0604 79.882 35.1315 79.8702C35.2025 79.8559 35.2569 79.8453 35.2948 79.8382L35.5327 80.9639C35.457 80.9876 35.3505 81.0148 35.2131 81.0456C35.0758 81.0787 34.9089 81.0988 34.7124 81.1059C34.3478 81.1202 34.0282 81.0716 33.7536 80.9603C33.4814 80.8491 33.2695 80.6763 33.118 80.4419C32.9665 80.2075 32.8919 79.9116 32.8943 79.5541V74.27ZM38.846 81.1379C38.2849 81.1379 37.8019 81.0243 37.3971 80.797C36.9946 80.5674 36.6845 80.243 36.4667 79.824C36.2489 79.4026 36.14 78.9042 36.14 78.329C36.14 77.7679 36.2489 77.2755 36.4667 76.8517C36.6845 76.4279 36.9911 76.0977 37.3864 75.8609C37.7842 75.6242 38.2505 75.5058 38.7856 75.5058C39.1454 75.5058 39.4804 75.5638 39.7906 75.6798C40.1031 75.7934 40.3753 75.9651 40.6073 76.1947C40.8417 76.4244 41.024 76.7132 41.1542 77.0612C41.2844 77.4068 41.3495 77.8117 41.3495 78.2757V78.6912H36.7437V77.7537H39.9255C39.9255 77.5359 39.8782 77.3429 39.7835 77.1748C39.6888 77.0068 39.5574 76.8754 39.3893 76.7807C39.2236 76.6836 39.0306 76.6351 38.8104 76.6351C38.5808 76.6351 38.3772 76.6883 38.1996 76.7949C38.0245 76.899 37.8871 77.0399 37.7877 77.2175C37.6883 77.3926 37.6374 77.588 37.635 77.8034V78.6947C37.635 78.9646 37.6847 79.1978 37.7842 79.3943C37.886 79.5908 38.0292 79.7423 38.2139 79.8488C38.3985 79.9554 38.6175 80.0086 38.8708 80.0086C39.0389 80.0086 39.1928 79.985 39.3325 79.9376C39.4721 79.8903 39.5917 79.8193 39.6911 79.7246C39.7906 79.6299 39.8663 79.5139 39.9184 79.3765L41.3175 79.4689C41.2465 79.805 41.1009 80.0986 40.8808 80.3496C40.663 80.5981 40.3812 80.7923 40.0356 80.9319C39.6923 81.0693 39.2958 81.1379 38.846 81.1379ZM47.5525 75.5768V76.7132H44.2677V75.5768H47.5525ZM45.0134 74.27H46.5262V79.3552C46.5262 79.4949 46.5475 79.6038 46.5901 79.6819C46.6327 79.7577 46.6919 79.811 46.7677 79.8417C46.8458 79.8725 46.9357 79.8879 47.0375 79.8879C47.1086 79.8879 47.1796 79.882 47.2506 79.8702C47.3216 79.8559 47.3761 79.8453 47.414 79.8382L47.6519 80.9639C47.5761 80.9876 47.4696 81.0148 47.3323 81.0456C47.195 81.0787 47.0281 81.0988 46.8316 81.1059C46.467 81.1202 46.1474 81.0716 45.8728 80.9603C45.6005 80.8491 45.3886 80.6763 45.2371 80.4419C45.0856 80.2075 45.011 79.9116 45.0134 79.5541V74.27ZM50.9651 81.1379C50.404 81.1379 49.9211 81.0243 49.5162 80.797C49.1138 80.5674 48.8036 80.243 48.5858 79.824C48.368 79.4026 48.2591 78.9042 48.2591 78.329C48.2591 77.7679 48.368 77.2755 48.5858 76.8517C48.8036 76.4279 49.1102 76.0977 49.5056 75.8609C49.9033 75.6242 50.3697 75.5058 50.9047 75.5058C51.2646 75.5058 51.5996 75.5638 51.9097 75.6798C52.2222 75.7934 52.4945 75.9651 52.7265 76.1947C52.9608 76.4244 53.1431 76.7132 53.2733 77.0612C53.4035 77.4068 53.4686 77.8117 53.4686 78.2757V78.6912H48.8628V77.7537H52.0446C52.0446 77.5359 51.9973 77.3429 51.9026 77.1748C51.8079 77.0068 51.6765 76.8754 51.5084 76.7807C51.3427 76.6836 51.1498 76.6351 50.9296 76.6351C50.6999 76.6351 50.4963 76.6883 50.3188 76.7949C50.1436 76.899 50.0063 77.0399 49.9069 77.2175C49.8074 77.3926 49.7565 77.588 49.7542 77.8034V78.6947C49.7542 78.9646 49.8039 79.1978 49.9033 79.3943C50.0051 79.5908 50.1483 79.7423 50.333 79.8488C50.5177 79.9554 50.7366 80.0086 50.99 80.0086C51.158 80.0086 51.3119 79.985 51.4516 79.9376C51.5913 79.8903 51.7108 79.8193 51.8103 79.7246C51.9097 79.6299 51.9855 79.5139 52.0375 79.3765L53.4367 79.4689C53.3657 79.805 53.2201 80.0986 52.9999 80.3496C52.7821 80.5981 52.5004 80.7923 52.1547 80.9319C51.8114 81.0693 51.4149 81.1379 50.9651 81.1379ZM50.3259 74.8737L51.0787 73.2579H52.4779L51.3948 74.8737H50.3259ZM56.9204 81.1379C56.3616 81.1379 55.8811 81.0195 55.4786 80.7828C55.0785 80.5437 54.7707 80.2122 54.5553 79.7885C54.3422 79.3647 54.2357 78.877 54.2357 78.3254C54.2357 77.7667 54.3434 77.2766 54.5588 76.8552C54.7766 76.4315 55.0856 76.1012 55.4857 75.8645C55.8858 75.6254 56.3616 75.5058 56.9132 75.5058C57.3891 75.5058 57.8058 75.5922 58.1632 75.765C58.5207 75.9379 58.8036 76.1805 59.012 76.493C59.2203 76.8055 59.3351 77.1725 59.3564 77.5939H57.9289C57.8886 77.3216 57.7821 77.1026 57.6093 76.9369C57.4388 76.7688 57.2151 76.6848 56.9381 76.6848C56.7037 76.6848 56.4989 76.7487 56.3238 76.8765C56.1509 77.002 56.016 77.1855 55.9189 77.427C55.8219 77.6684 55.7733 77.9608 55.7733 78.3041C55.7733 78.6521 55.8207 78.948 55.9154 79.1919C56.0124 79.4357 56.1486 79.6216 56.3238 79.7494C56.4989 79.8773 56.7037 79.9412 56.9381 79.9412C57.1109 79.9412 57.266 79.9057 57.4033 79.8346C57.543 79.7636 57.6578 79.6606 57.7478 79.5257C57.8401 79.3884 57.9005 79.2238 57.9289 79.0321H59.3564C59.3328 79.4487 59.2191 79.8157 59.0155 80.1329C58.8143 80.4478 58.5361 80.694 58.181 80.8716C57.8259 81.0491 57.4057 81.1379 56.9204 81.1379ZM61.8378 77.878V81.0314H60.325V75.5768H61.7668V76.5392H61.8307C61.9514 76.2219 62.1538 75.971 62.4379 75.7863C62.722 75.5993 63.0665 75.5058 63.4713 75.5058C63.8501 75.5058 64.1804 75.5887 64.4621 75.7544C64.7438 75.9201 64.9628 76.1568 65.119 76.4646C65.2753 76.77 65.3534 77.1346 65.3534 77.5584V81.0314H63.8406V77.8282C63.843 77.4944 63.7578 77.234 63.5849 77.047C63.4121 76.8576 63.1742 76.7629 62.8712 76.7629C62.6676 76.7629 62.4876 76.8067 62.3314 76.8943C62.1775 76.9819 62.0568 77.1097 61.9692 77.2778C61.884 77.4435 61.8402 77.6436 61.8378 77.878ZM66.5457 81.0314V75.5768H68.0585V81.0314H66.5457ZM67.3057 74.8737C67.0807 74.8737 66.8878 74.7991 66.7268 74.65C66.5682 74.4985 66.4889 74.3174 66.4889 74.1067C66.4889 73.8983 66.5682 73.7196 66.7268 73.5704C66.8878 73.4189 67.0807 73.3432 67.3057 73.3432C67.5306 73.3432 67.7223 73.4189 67.8809 73.5704C68.0419 73.7196 68.1224 73.8983 68.1224 74.1067C68.1224 74.3174 68.0419 74.4985 67.8809 74.65C67.7223 74.7991 67.5306 74.8737 67.3057 74.8737ZM71.7348 81.1379C71.1761 81.1379 70.6955 81.0195 70.293 80.7828C69.893 80.5437 69.5852 80.2122 69.3698 79.7885C69.1567 79.3647 69.0501 78.877 69.0501 78.3254C69.0501 77.7667 69.1579 77.2766 69.3733 76.8552C69.5911 76.4315 69.9001 76.1012 70.3001 75.8645C70.7002 75.6254 71.1761 75.5058 71.7277 75.5058C72.2036 75.5058 72.6202 75.5922 72.9777 75.765C73.3352 75.9379 73.6181 76.1805 73.8264 76.493C74.0348 76.8055 74.1496 77.1725 74.1709 77.5939H72.7433C72.7031 77.3216 72.5966 77.1026 72.4237 76.9369C72.2533 76.7688 72.0296 76.6848 71.7526 76.6848C71.5182 76.6848 71.3134 76.7487 71.1382 76.8765C70.9654 77.002 70.8305 77.1855 70.7334 77.427C70.6363 77.6684 70.5878 77.9608 70.5878 78.3041C70.5878 78.6521 70.6351 78.948 70.7298 79.1919C70.8269 79.4357 70.963 79.6216 71.1382 79.7494C71.3134 79.8773 71.5182 79.9412 71.7526 79.9412C71.9254 79.9412 72.0805 79.9057 72.2178 79.8346C72.3574 79.7636 72.4723 79.6606 72.5622 79.5257C72.6546 79.3884 72.7149 79.2238 72.7433 79.0321H74.1709C74.1472 79.4487 74.0336 79.8157 73.83 80.1329C73.6287 80.4478 73.3506 80.694 72.9955 80.8716C72.6403 81.0491 72.2201 81.1379 71.7348 81.1379ZM77.6039 81.1379C77.0523 81.1379 76.5753 81.0207 76.1728 80.7863C75.7727 80.5496 75.4638 80.2205 75.246 79.7991C75.0282 79.3754 74.9193 78.8841 74.9193 78.3254C74.9193 77.762 75.0282 77.2695 75.246 76.8481C75.4638 76.4244 75.7727 76.0953 76.1728 75.8609C76.5753 75.6242 77.0523 75.5058 77.6039 75.5058C78.1556 75.5058 78.6314 75.6242 79.0315 75.8609C79.434 76.0953 79.7441 76.4244 79.9619 76.8481C80.1797 77.2695 80.2886 77.762 80.2886 78.3254C80.2886 78.8841 80.1797 79.3754 79.9619 79.7991C79.7441 80.2205 79.434 80.5496 79.0315 80.7863C78.6314 81.0207 78.1556 81.1379 77.6039 81.1379ZM77.6111 79.966C77.862 79.966 78.0715 79.895 78.2396 79.753C78.4077 79.6086 78.5343 79.4121 78.6196 79.1635C78.7072 78.9149 78.751 78.632 78.751 78.3148C78.751 77.9975 78.7072 77.7146 78.6196 77.466C78.5343 77.2175 78.4077 77.021 78.2396 76.8765C78.0715 76.7321 77.862 76.6599 77.6111 76.6599C77.3577 76.6599 77.1447 76.7321 76.9718 76.8765C76.8014 77.021 76.6724 77.2175 76.5848 77.466C76.4995 77.7146 76.4569 77.9975 76.4569 78.3148C76.4569 78.632 76.4995 78.9149 76.5848 79.1635C76.6724 79.4121 76.8014 79.6086 76.9718 79.753C77.1447 79.895 77.3577 79.966 77.6111 79.966Z" fill="black"/>
<path d="M42.5 20C35.0561 20 29 26.0561 29 33.5V39.0931C29 40.4755 30.211 41.6 31.7 41.6H33.05C33.408 41.6 33.7514 41.4578 34.0046 41.2046C34.2578 40.9514 34.4 40.608 34.4 40.25V33.307C34.4 32.9489 34.2578 32.6055 34.0046 32.3524C33.7514 32.0992 33.408 31.957 33.05 31.957H31.8242C32.5748 26.7325 37.0703 22.7 42.5 22.7C47.9297 22.7 52.4252 26.7325 53.1758 31.957H51.95C51.592 31.957 51.2486 32.0992 50.9954 32.3524C50.7422 32.6055 50.6 32.9489 50.6 33.307V41.6C50.6 43.0891 49.389 44.3 47.9 44.3H45.2V42.95H39.8V47H47.9C50.8781 47 53.3 44.5781 53.3 41.6C54.7891 41.6 56 40.4755 56 39.0931V33.5C56 26.0561 49.9439 20 42.5 20Z" fill="black"/>
</svg>
