<svg width="38" height="37" viewBox="0 0 38 37" fill="none" xmlns="http://www.w3.org/2000/svg">
<path d="M33.343 6.46087C33.2048 6.44664 33.0656 6.44664 32.9274 6.46087H4.5502C4.36833 6.46367 4.18766 6.49094 4.01306 6.54195L18.6577 21.1258L33.343 6.46087Z" fill="white"/>
<path d="M34.8429 7.86963L20.0868 22.565C19.707 22.9425 19.1933 23.1544 18.6578 23.1544C18.1223 23.1544 17.6086 22.9425 17.2288 22.565L2.60439 7.98111C2.55943 8.14635 2.53559 8.31662 2.53345 8.48785V28.7573C2.53345 29.2949 2.747 29.8104 3.12713 30.1906C3.50725 30.5707 4.02281 30.7842 4.56039 30.7842H32.9376C33.4752 30.7842 33.9908 30.5707 34.3709 30.1906C34.751 29.8104 34.9646 29.2949 34.9646 28.7573V8.48785C34.9565 8.2767 34.9155 8.0681 34.8429 7.86963V7.86963ZM5.94885 28.7573H4.54012V27.308L11.9081 20.0009L13.3371 21.4299L5.94885 28.7573ZM32.9173 28.7573H31.4985L24.1103 21.4299L25.5393 20.0009L32.9072 27.308L32.9173 28.7573Z" fill="white"/>
</svg>
