<svg width="84" height="96" viewBox="0 0 84 96" fill="none" xmlns="http://www.w3.org/2000/svg">
<circle cx="41.6094" cy="34.291" r="34.291" fill="#C9C9C9"/>
<path d="M15.1137 73.7586V81.0314H13.5761V73.7586H15.1137ZM17.8632 77.878V81.0314H16.3504V75.5768H17.7922V76.5392H17.8561C17.9768 76.2219 18.1792 75.971 18.4633 75.7863C18.7474 75.5993 19.0919 75.5058 19.4967 75.5058C19.8755 75.5058 20.2057 75.5887 20.4875 75.7544C20.7692 75.9201 20.9882 76.1568 21.1444 76.4646C21.3007 76.77 21.3788 77.1346 21.3788 77.5584V81.0314H19.866V77.8282C19.8684 77.4944 19.7832 77.234 19.6103 77.047C19.4375 76.8576 19.1996 76.7629 18.8966 76.7629C18.693 76.7629 18.513 76.8067 18.3568 76.8943C18.2029 76.9819 18.0822 77.1097 17.9946 77.2778C17.9093 77.4435 17.8655 77.6436 17.8632 77.878ZM25.4724 75.5768V76.7132H22.1876V75.5768H25.4724ZM22.9333 74.27H24.4461V79.3552C24.4461 79.4949 24.4674 79.6038 24.51 79.6819C24.5526 79.7577 24.6118 79.811 24.6876 79.8417C24.7657 79.8725 24.8557 79.8879 24.9575 79.8879C25.0285 79.8879 25.0995 79.882 25.1705 79.8702C25.2416 79.8559 25.296 79.8453 25.3339 79.8382L25.5718 80.9639C25.496 80.9876 25.3895 81.0148 25.2522 81.0456C25.1149 81.0787 24.948 81.0988 24.7515 81.1059C24.3869 81.1202 24.0673 81.0716 23.7927 80.9603C23.5204 80.8491 23.3085 80.6763 23.157 80.4419C23.0055 80.2075 22.9309 79.9116 22.9333 79.5541V74.27ZM28.885 81.1379C28.3239 81.1379 27.841 81.0243 27.4362 80.797C27.0337 80.5674 26.7236 80.243 26.5058 79.824C26.288 79.4026 26.1791 78.9042 26.1791 78.329C26.1791 77.7679 26.288 77.2755 26.5058 76.8517C26.7236 76.4279 27.0301 76.0977 27.4255 75.8609C27.8232 75.6242 28.2896 75.5058 28.8246 75.5058C29.1845 75.5058 29.5195 75.5638 29.8296 75.6798C30.1421 75.7934 30.4144 75.9651 30.6464 76.1947C30.8808 76.4244 31.063 76.7132 31.1933 77.0612C31.3235 77.4068 31.3886 77.8117 31.3886 78.2757V78.6912H26.7827V77.7537H29.9646C29.9646 77.5359 29.9172 77.3429 29.8225 77.1748C29.7278 77.0068 29.5964 76.8754 29.4283 76.7807C29.2626 76.6836 29.0697 76.6351 28.8495 76.6351C28.6199 76.6351 28.4163 76.6883 28.2387 76.7949C28.0635 76.899 27.9262 77.0399 27.8268 77.2175C27.7273 77.3926 27.6764 77.588 27.6741 77.8034V78.6947C27.6741 78.9646 27.7238 79.1978 27.8232 79.3943C27.925 79.5908 28.0683 79.7423 28.2529 79.8488C28.4376 79.9554 28.6566 80.0086 28.9099 80.0086C29.078 80.0086 29.2318 79.985 29.3715 79.9376C29.5112 79.8903 29.6308 79.8193 29.7302 79.7246C29.8296 79.6299 29.9054 79.5139 29.9575 79.3765L31.3566 79.4689C31.2856 79.805 31.14 80.0986 30.9198 80.3496C30.702 80.5981 30.4203 80.7923 30.0746 80.9319C29.7314 81.0693 29.3348 81.1379 28.885 81.1379ZM33.8886 73.7586V81.0314H32.3758V73.7586H33.8886ZM35.1004 81.0314V75.5768H36.6132V81.0314H35.1004ZM35.8603 74.8737C35.6354 74.8737 35.4425 74.7991 35.2815 74.65C35.1229 74.4985 35.0436 74.3174 35.0436 74.1067C35.0436 73.8983 35.1229 73.7196 35.2815 73.5704C35.4425 73.4189 35.6354 73.3432 35.8603 73.3432C36.0852 73.3432 36.277 73.4189 36.4356 73.5704C36.5966 73.7196 36.6771 73.8983 36.6771 74.1067C36.6771 74.3174 36.5966 74.4985 36.4356 74.65C36.277 74.7991 36.0852 74.8737 35.8603 74.8737ZM40.2824 83.1905C39.7923 83.1905 39.3721 83.123 39.0217 82.988C38.6737 82.8555 38.3967 82.6744 38.1908 82.4447C37.9848 82.2151 37.851 81.957 37.7895 81.6706L39.1886 81.4824C39.2313 81.5913 39.2987 81.6931 39.3911 81.7878C39.4834 81.8825 39.6053 81.9582 39.7568 82.015C39.9107 82.0742 40.0977 82.1038 40.3179 82.1038C40.647 82.1038 40.918 82.0233 41.1311 81.8623C41.3465 81.7037 41.4543 81.4374 41.4543 81.0633V80.0655H41.3903C41.3241 80.217 41.2246 80.3602 41.092 80.4952C40.9595 80.6301 40.789 80.7402 40.5807 80.8254C40.3724 80.9106 40.1238 80.9532 39.8349 80.9532C39.4254 80.9532 39.0525 80.8586 38.7163 80.6692C38.3825 80.4774 38.1162 80.185 37.9173 79.792C37.7208 79.3967 37.6226 78.8971 37.6226 78.2934C37.6226 77.6755 37.7232 77.1594 37.9244 76.7452C38.1257 76.3309 38.3932 76.0207 38.727 75.8148C39.0632 75.6088 39.4313 75.5058 39.8314 75.5058C40.1368 75.5058 40.3925 75.5579 40.5984 75.6621C40.8044 75.7639 40.9701 75.8917 41.0956 76.0456C41.2234 76.1971 41.3217 76.3462 41.3903 76.493H41.4472V75.5768H42.9493V81.0846C42.9493 81.5487 42.8357 81.9369 42.6084 82.2494C42.3811 82.5619 42.0662 82.7963 41.6638 82.9525C41.2637 83.1112 40.8032 83.1905 40.2824 83.1905ZM40.3143 79.8169C40.5582 79.8169 40.7642 79.7565 40.9322 79.6358C41.1027 79.5127 41.2329 79.3375 41.3229 79.1102C41.4152 78.8806 41.4614 78.6059 41.4614 78.2863C41.4614 77.9667 41.4164 77.6898 41.3264 77.4554C41.2365 77.2186 41.1063 77.0352 40.9358 76.905C40.7653 76.7747 40.5582 76.7096 40.3143 76.7096C40.0658 76.7096 39.8563 76.7771 39.6858 76.9121C39.5153 77.0446 39.3863 77.2293 39.2987 77.466C39.2111 77.7028 39.1673 77.9762 39.1673 78.2863C39.1673 78.6012 39.2111 78.8735 39.2987 79.1031C39.3887 79.3304 39.5177 79.5068 39.6858 79.6322C39.8563 79.7553 40.0658 79.8169 40.3143 79.8169ZM46.6389 81.1379C46.0778 81.1379 45.5949 81.0243 45.1901 80.797C44.7876 80.5674 44.4775 80.243 44.2597 79.824C44.0419 79.4026 43.933 78.9042 43.933 78.329C43.933 77.7679 44.0419 77.2755 44.2597 76.8517C44.4775 76.4279 44.784 76.0977 45.1794 75.8609C45.5771 75.6242 46.0435 75.5058 46.5786 75.5058C46.9384 75.5058 47.2734 75.5638 47.5835 75.6798C47.896 75.7934 48.1683 75.9651 48.4003 76.1947C48.6347 76.4244 48.817 76.7132 48.9472 77.0612C49.0774 77.4068 49.1425 77.8117 49.1425 78.2757V78.6912H44.5367V77.7537H47.7185C47.7185 77.5359 47.6711 77.3429 47.5764 77.1748C47.4817 77.0068 47.3503 76.8754 47.1822 76.7807C47.0165 76.6836 46.8236 76.6351 46.6034 76.6351C46.3738 76.6351 46.1702 76.6883 45.9926 76.7949C45.8174 76.899 45.6801 77.0399 45.5807 77.2175C45.4813 77.3926 45.4304 77.588 45.428 77.8034V78.6947C45.428 78.9646 45.4777 79.1978 45.5771 79.3943C45.6789 79.5908 45.8222 79.7423 46.0068 79.8488C46.1915 79.9554 46.4105 80.0086 46.6638 80.0086C46.8319 80.0086 46.9858 79.985 47.1254 79.9376C47.2651 79.8903 47.3847 79.8193 47.4841 79.7246C47.5835 79.6299 47.6593 79.5139 47.7114 79.3765L49.1105 79.4689C49.0395 79.805 48.8939 80.0986 48.6737 80.3496C48.4559 80.5981 48.1742 80.7923 47.8286 80.9319C47.4853 81.0693 47.0887 81.1379 46.6389 81.1379ZM51.6425 77.878V81.0314H50.1297V75.5768H51.5715V76.5392H51.6354C51.7561 76.2219 51.9585 75.971 52.2426 75.7863C52.5267 75.5993 52.8712 75.5058 53.276 75.5058C53.6548 75.5058 53.985 75.5887 54.2668 75.7544C54.5485 75.9201 54.7675 76.1568 54.9237 76.4646C55.08 76.77 55.1581 77.1346 55.1581 77.5584V81.0314H53.6453V77.8282C53.6477 77.4944 53.5625 77.234 53.3896 77.047C53.2168 76.8576 52.9789 76.7629 52.6759 76.7629C52.4723 76.7629 52.2923 76.8067 52.1361 76.8943C51.9822 76.9819 51.8615 77.1097 51.7739 77.2778C51.6886 77.4435 51.6448 77.6436 51.6425 77.878ZM58.8149 81.1379C58.2562 81.1379 57.7756 81.0195 57.3731 80.7828C56.973 80.5437 56.6653 80.2122 56.4498 79.7885C56.2368 79.3647 56.1302 78.877 56.1302 78.3254C56.1302 77.7667 56.2379 77.2766 56.4534 76.8552C56.6712 76.4315 56.9801 76.1012 57.3802 75.8645C57.7803 75.6254 58.2562 75.5058 58.8078 75.5058C59.2836 75.5058 59.7003 75.5922 60.0578 75.765C60.4153 75.9379 60.6982 76.1805 60.9065 76.493C61.1148 76.8055 61.2297 77.1725 61.251 77.5939H59.8234C59.7832 77.3216 59.6766 77.1026 59.5038 76.9369C59.3333 76.7688 59.1096 76.6848 58.8326 76.6848C58.5983 76.6848 58.3935 76.7487 58.2183 76.8765C58.0455 77.002 57.9105 77.1855 57.8135 77.427C57.7164 77.6684 57.6679 77.9608 57.6679 78.3041C57.6679 78.6521 57.7152 78.948 57.8099 79.1919C57.907 79.4357 58.0431 79.6216 58.2183 79.7494C58.3935 79.8773 58.5983 79.9412 58.8326 79.9412C59.0055 79.9412 59.1605 79.9057 59.2978 79.8346C59.4375 79.7636 59.5523 79.6606 59.6423 79.5257C59.7346 79.3884 59.795 79.2238 59.8234 79.0321H61.251C61.2273 79.4487 61.1137 79.8157 60.9101 80.1329C60.7088 80.4478 60.4306 80.694 60.0755 80.8716C59.7204 81.0491 59.3002 81.1379 58.8149 81.1379ZM62.2195 81.0314V75.5768H63.7323V81.0314H62.2195ZM62.9795 74.8737C62.7546 74.8737 62.5616 74.7991 62.4006 74.65C62.242 74.4985 62.1627 74.3174 62.1627 74.1067C62.1627 73.8983 62.242 73.7196 62.4006 73.5704C62.5616 73.4189 62.7546 73.3432 62.9795 73.3432C63.2044 73.3432 63.3961 73.4189 63.5548 73.5704C63.7157 73.7196 63.7962 73.8983 63.7962 74.1067C63.7962 74.3174 63.7157 74.4985 63.5548 74.65C63.3961 74.7991 63.2044 74.8737 62.9795 74.8737ZM66.4995 81.1344C66.1515 81.1344 65.8414 81.074 65.5691 80.9532C65.2969 80.8301 65.0815 80.649 64.9228 80.4099C64.7666 80.1684 64.6885 79.8678 64.6885 79.5079C64.6885 79.2049 64.7441 78.9504 64.8554 78.7444C64.9666 78.5385 65.1182 78.3728 65.3099 78.2473C65.5017 78.1218 65.7195 78.0271 65.9633 77.9632C66.2095 77.8993 66.4676 77.8543 66.7375 77.8282C67.0547 77.7951 67.3104 77.7643 67.5045 77.7359C67.6986 77.7051 67.8395 77.6602 67.9271 77.601C68.0147 77.5418 68.0585 77.4542 68.0585 77.3382V77.3169C68.0585 77.092 67.9875 76.918 67.8454 76.7949C67.7057 76.6718 67.5069 76.6102 67.2488 76.6102C66.9766 76.6102 66.76 76.6706 66.599 76.7913C66.438 76.9097 66.3315 77.0588 66.2794 77.2388L64.8802 77.1251C64.9512 76.7937 65.0909 76.5072 65.2993 76.2657C65.5076 76.0219 65.7763 75.8349 66.1054 75.7047C66.4368 75.5721 66.8203 75.5058 67.2559 75.5058C67.559 75.5058 67.849 75.5413 68.126 75.6123C68.4053 75.6834 68.6527 75.7934 68.8682 75.9426C69.086 76.0917 69.2576 76.2835 69.3831 76.5179C69.5085 76.7499 69.5713 77.0281 69.5713 77.3524V81.0314H68.1366V80.275H68.094C68.0064 80.4454 67.8892 80.5958 67.7424 80.726C67.5957 80.8538 67.4193 80.9544 67.2133 81.0278C67.0074 81.0988 66.7694 81.1344 66.4995 81.1344ZM66.9328 80.0903C67.1553 80.0903 67.3518 80.0465 67.5223 79.9589C67.6927 79.869 67.8265 79.7482 67.9236 79.5967C68.0206 79.4452 68.0691 79.2736 68.0691 79.0818V78.503C68.0218 78.5337 67.9567 78.5621 67.8738 78.5882C67.7933 78.6119 67.7022 78.6344 67.6004 78.6557C67.4986 78.6746 67.3968 78.6924 67.295 78.7089C67.1932 78.7231 67.1009 78.7362 67.018 78.748C66.8405 78.774 66.6854 78.8155 66.5528 78.8723C66.4202 78.9291 66.3173 79.006 66.2439 79.1031C66.1705 79.1978 66.1338 79.3162 66.1338 79.4582C66.1338 79.6642 66.2084 79.8216 66.3575 79.9305C66.509 80.0371 66.7008 80.0903 66.9328 80.0903ZM23.4624 93.1344C23.1144 93.1344 22.8043 93.074 22.532 92.9532C22.2598 92.8301 22.0443 92.649 21.8857 92.4099C21.7295 92.1684 21.6514 91.8678 21.6514 91.5079C21.6514 91.2049 21.707 90.9504 21.8183 90.7444C21.9295 90.5385 22.081 90.3728 22.2728 90.2473C22.4646 90.1218 22.6824 90.0271 22.9262 89.9632C23.1724 89.8993 23.4305 89.8543 23.7004 89.8282C24.0176 89.7951 24.2733 89.7643 24.4674 89.7359C24.6615 89.7051 24.8024 89.6602 24.89 89.601C24.9776 89.5418 25.0214 89.4542 25.0214 89.3382V89.3169C25.0214 89.092 24.9504 88.918 24.8083 88.7949C24.6686 88.6718 24.4698 88.6102 24.2117 88.6102C23.9395 88.6102 23.7228 88.6706 23.5619 88.7913C23.4009 88.9097 23.2943 89.0588 23.2423 89.2388L21.8431 89.1251C21.9141 88.7937 22.0538 88.5072 22.2621 88.2657C22.4705 88.0219 22.7392 87.8349 23.0683 87.7047C23.3997 87.5721 23.7832 87.5058 24.2188 87.5058C24.5219 87.5058 24.8119 87.5413 25.0889 87.6123C25.3682 87.6834 25.6156 87.7934 25.831 87.9426C26.0488 88.0917 26.2205 88.2835 26.346 88.5179C26.4714 88.7499 26.5342 89.0281 26.5342 89.3524V93.0314H25.0995V92.275H25.0569C24.9693 92.4454 24.8521 92.5958 24.7053 92.726C24.5585 92.8538 24.3822 92.9544 24.1762 93.0278C23.9702 93.0988 23.7323 93.1344 23.4624 93.1344ZM23.8957 92.0903C24.1182 92.0903 24.3147 92.0465 24.4852 91.9589C24.6556 91.869 24.7894 91.7482 24.8864 91.5967C24.9835 91.4452 25.032 91.2736 25.032 91.0818V90.503C24.9847 90.5337 24.9196 90.5621 24.8367 90.5882C24.7562 90.6119 24.6651 90.6344 24.5633 90.6557C24.4615 90.6746 24.3597 90.6924 24.2579 90.7089C24.1561 90.7231 24.0638 90.7362 23.9809 90.748C23.8033 90.774 23.6483 90.8155 23.5157 90.8723C23.3831 90.9291 23.2801 91.006 23.2068 91.1031C23.1334 91.1978 23.0967 91.3162 23.0967 91.4582C23.0967 91.6642 23.1712 91.8216 23.3204 91.9305C23.4719 92.0371 23.6637 92.0903 23.8957 92.0903ZM27.7078 93.0314V87.5768H29.1744V88.5285H29.2313C29.3307 88.19 29.4976 87.9343 29.732 87.7615C29.9663 87.5863 30.2362 87.4987 30.5416 87.4987C30.6174 87.4987 30.6991 87.5034 30.7867 87.5129C30.8742 87.5224 30.9512 87.5354 31.0175 87.552V88.8943C30.9465 88.873 30.8482 88.8541 30.7227 88.8375C30.5973 88.8209 30.4824 88.8126 30.3783 88.8126C30.1557 88.8126 29.9569 88.8612 29.7817 88.9582C29.6089 89.0529 29.4715 89.1855 29.3697 89.3559C29.2703 89.5264 29.2206 89.7229 29.2206 89.9454V93.0314H27.7078ZM34.9743 87.5768V88.7132H31.6895V87.5768H34.9743ZM32.4353 86.27H33.948V91.3552C33.948 91.4949 33.9694 91.6038 34.012 91.6819C34.0546 91.7577 34.1138 91.811 34.1895 91.8417C34.2677 91.8725 34.3576 91.8879 34.4594 91.8879C34.5304 91.8879 34.6015 91.882 34.6725 91.8702C34.7435 91.8559 34.798 91.8453 34.8358 91.8382L35.0738 92.9639C34.998 92.9876 34.8915 93.0148 34.7542 93.0456C34.6168 93.0787 34.4499 93.0988 34.2534 93.1059C33.8889 93.1202 33.5693 93.0716 33.2946 92.9603C33.0224 92.8491 32.8105 92.6763 32.659 92.4419C32.5075 92.2075 32.4329 91.9116 32.4353 91.5541V86.27ZM35.9598 93.0314V87.5768H37.4726V93.0314H35.9598ZM36.7197 86.8737C36.4948 86.8737 36.3019 86.7991 36.1409 86.65C35.9823 86.4985 35.903 86.3174 35.903 86.1067C35.903 85.8983 35.9823 85.7196 36.1409 85.5704C36.3019 85.4189 36.4948 85.3432 36.7197 85.3432C36.9446 85.3432 37.1364 85.4189 37.295 85.5704C37.456 85.7196 37.5365 85.8983 37.5365 86.1067C37.5365 86.3174 37.456 86.4985 37.295 86.65C37.1364 86.7991 36.9446 86.8737 36.7197 86.8737ZM41.6176 87.5768V88.7132H38.2511V87.5768H41.6176ZM39.0217 93.0314V87.1827C39.0217 86.7873 39.0987 86.4594 39.2526 86.199C39.4088 85.9386 39.6219 85.7433 39.8918 85.613C40.1617 85.4828 40.4682 85.4177 40.8115 85.4177C41.0435 85.4177 41.2554 85.4355 41.4472 85.471C41.6413 85.5065 41.7857 85.5385 41.8804 85.5669L41.6105 86.7032C41.5513 86.6843 41.4779 86.6666 41.3903 86.65C41.3051 86.6334 41.2175 86.6251 41.1276 86.6251C40.905 86.6251 40.75 86.6772 40.6624 86.7814C40.5748 86.8832 40.531 87.0264 40.531 87.2111V93.0314H39.0217ZM42.5418 93.0314V87.5768H44.0546V93.0314H42.5418ZM43.3017 86.8737C43.0768 86.8737 42.8839 86.7991 42.7229 86.65C42.5643 86.4985 42.485 86.3174 42.485 86.1067C42.485 85.8983 42.5643 85.7196 42.7229 85.5704C42.8839 85.4189 43.0768 85.3432 43.3017 85.3432C43.5266 85.3432 43.7184 85.4189 43.877 85.5704C44.038 85.7196 44.1185 85.8983 44.1185 86.1067C44.1185 86.3174 44.038 86.4985 43.877 86.65C43.7184 86.7991 43.5266 86.8737 43.3017 86.8737ZM47.7309 93.1379C47.1722 93.1379 46.6916 93.0195 46.2891 92.7828C45.889 92.5437 45.5813 92.2122 45.3658 91.7885C45.1528 91.3647 45.0462 90.877 45.0462 90.3254C45.0462 89.7667 45.154 89.2766 45.3694 88.8552C45.5872 88.4315 45.8961 88.1012 46.2962 87.8645C46.6963 87.6254 47.1722 87.5058 47.7238 87.5058C48.1996 87.5058 48.6163 87.5922 48.9738 87.765C49.3313 87.9379 49.6142 88.1805 49.8225 88.493C50.0309 88.8055 50.1457 89.1725 50.167 89.5939H48.7394C48.6992 89.3216 48.5926 89.1026 48.4198 88.9369C48.2494 88.7688 48.0256 88.6848 47.7487 88.6848C47.5143 88.6848 47.3095 88.7487 47.1343 88.8765C46.9615 89.002 46.8265 89.1855 46.7295 89.427C46.6324 89.6684 46.5839 89.9608 46.5839 90.3041C46.5839 90.6521 46.6312 90.948 46.7259 91.1919C46.823 91.4357 46.9591 91.6216 47.1343 91.7494C47.3095 91.8773 47.5143 91.9412 47.7487 91.9412C47.9215 91.9412 48.0765 91.9057 48.2139 91.8346C48.3535 91.7636 48.4684 91.6606 48.5583 91.5257C48.6506 91.3884 48.711 91.2238 48.7394 91.0321H50.167C50.1433 91.4487 50.0297 91.8157 49.8261 92.1329C49.6248 92.4478 49.3467 92.694 48.9916 92.8716C48.6364 93.0491 48.2162 93.1379 47.7309 93.1379ZM51.1355 93.0314V87.5768H52.6483V93.0314H51.1355ZM51.8955 86.8737C51.6706 86.8737 51.4776 86.7991 51.3167 86.65C51.158 86.4985 51.0787 86.3174 51.0787 86.1067C51.0787 85.8983 51.158 85.7196 51.3167 85.5704C51.4776 85.4189 51.6706 85.3432 51.8955 85.3432C52.1204 85.3432 52.3122 85.4189 52.4708 85.5704C52.6318 85.7196 52.7123 85.8983 52.7123 86.1067C52.7123 86.3174 52.6318 86.4985 52.4708 86.65C52.3122 86.7991 52.1204 86.8737 51.8955 86.8737ZM55.4156 93.1344C55.0675 93.1344 54.7574 93.074 54.4852 92.9532C54.2129 92.8301 53.9975 92.649 53.8389 92.4099C53.6826 92.1684 53.6045 91.8678 53.6045 91.5079C53.6045 91.2049 53.6601 90.9504 53.7714 90.7444C53.8826 90.5385 54.0342 90.3728 54.2259 90.2473C54.4177 90.1218 54.6355 90.0271 54.8793 89.9632C55.1255 89.8993 55.3836 89.8543 55.6535 89.8282C55.9707 89.7951 56.2264 89.7643 56.4205 89.7359C56.6147 89.7051 56.7555 89.6602 56.8431 89.601C56.9307 89.5418 56.9745 89.4542 56.9745 89.3382V89.3169C56.9745 89.092 56.9035 88.918 56.7614 88.7949C56.6218 88.6718 56.4229 88.6102 56.1648 88.6102C55.8926 88.6102 55.676 88.6706 55.515 88.7913C55.354 88.9097 55.2475 89.0588 55.1954 89.2388L53.7962 89.1251C53.8673 88.7937 54.0069 88.5072 54.2153 88.2657C54.4236 88.0219 54.6923 87.8349 55.0214 87.7047C55.3528 87.5721 55.7363 87.5058 56.1719 87.5058C56.475 87.5058 56.765 87.5413 57.042 87.6123C57.3213 87.6834 57.5687 87.7934 57.7842 87.9426C58.002 88.0917 58.1736 88.2835 58.2991 88.5179C58.4246 88.7499 58.4873 89.0281 58.4873 89.3524V93.0314H57.0526V92.275H57.01C56.9224 92.4454 56.8052 92.5958 56.6585 92.726C56.5117 92.8538 56.3353 92.9544 56.1293 93.0278C55.9234 93.0988 55.6854 93.1344 55.4156 93.1344ZM55.8488 92.0903C56.0713 92.0903 56.2678 92.0465 56.4383 91.9589C56.6087 91.869 56.7425 91.7482 56.8396 91.5967C56.9366 91.4452 56.9852 91.2736 56.9852 91.0818V90.503C56.9378 90.5337 56.8727 90.5621 56.7898 90.5882C56.7094 90.6119 56.6182 90.6344 56.5164 90.6557C56.4146 90.6746 56.3128 90.6924 56.211 90.7089C56.1092 90.7231 56.0169 90.7362 55.934 90.748C55.7565 90.774 55.6014 90.8155 55.4688 90.8723C55.3362 90.9291 55.2333 91.006 55.1599 91.1031C55.0865 91.1978 55.0498 91.3162 55.0498 91.4582C55.0498 91.6642 55.1244 91.8216 55.2735 91.9305C55.425 92.0371 55.6168 92.0903 55.8488 92.0903ZM61.1737 85.7586V93.0314H59.6609V85.7586H61.1737Z" fill="black"/>
<path d="M38.0523 26.4167H36.5942L34.4167 35.0833H35.5303L36.033 33.0521H38.542L39.0317 35.0833H40.1822L38.0523 26.4167ZM36.1793 32.1822L37.281 27.4458H37.3298L38.3958 32.1833L36.1793 32.1822ZM41.1745 35.0833V26.4167H42.2578V35.0833H41.1745ZM41.3771 36.1667H33.3333V25.3333H44.1667V30.5117C45.4489 29.6837 46.9998 29.3789 48.5 29.6602V27.5H46.3333V25.3333C46.3316 24.7592 46.1028 24.2091 45.6968 23.8032C45.2909 23.3972 44.7408 23.1684 44.1667 23.1667H42V21H39.8333V23.1667H37.6667V21H35.5V23.1667H33.3333C32.7592 23.1684 32.2091 23.3972 31.8032 23.8032C31.3972 24.2091 31.1684 24.7592 31.1667 25.3333V27.5H29V29.6667H31.1667V31.8333H29V34H31.1667V36.1667C31.1684 36.7408 31.3972 37.2909 31.8032 37.6968C32.2091 38.1028 32.7592 38.3316 33.3333 38.3333H35.5V40.5H37.6667V38.3333H39.8333V40.5H42V38.342C41.6565 37.6629 41.4451 36.9247 41.3771 36.1667ZM43.625 35.625C43.625 34.8751 43.8474 34.142 44.264 33.5185C44.6806 32.8949 45.2728 32.4089 45.9657 32.122C46.6585 31.835 47.4209 31.7599 48.1564 31.9062C48.8919 32.0525 49.5675 32.4136 50.0978 32.9439C50.6281 33.4742 50.9892 34.1498 51.1355 34.8853C51.2818 35.6208 51.2067 36.3832 50.9197 37.076C50.6327 37.7688 50.1467 38.361 49.5232 38.7777C48.8997 39.1943 48.1666 39.4167 47.4167 39.4167C46.9187 39.4168 46.4256 39.3188 45.9655 39.1283C45.5054 38.9378 45.0874 38.6585 44.7352 38.3064C44.3831 37.9543 44.1038 37.5363 43.9133 37.0762C43.7228 36.6161 43.6249 36.123 43.625 35.625V35.625ZM47.4167 41.5833C44.886 41.5833 39.8333 42.8541 39.8333 45.375V47H55V45.375C55 42.853 49.9473 41.5833 47.4167 41.5833Z" fill="black"/>
</svg>
