<svg width="84" height="96" viewBox="0 0 84 96" fill="none" xmlns="http://www.w3.org/2000/svg">
<circle cx="41.6094" cy="34.291" r="34.291" fill="#C9C9C9"/>
<path d="M26.3553 76.3048H24.7999C24.7715 76.1036 24.7135 75.9248 24.6259 75.7686C24.5383 75.61 24.4258 75.475 24.2885 75.3638C24.1512 75.2525 23.9926 75.1673 23.8127 75.1081C23.6351 75.0489 23.4422 75.0193 23.2338 75.0193C22.8574 75.0193 22.5295 75.1128 22.2502 75.2998C21.9708 75.4845 21.7542 75.7544 21.6003 76.1095C21.4464 76.4622 21.3695 76.8907 21.3695 77.395C21.3695 77.9135 21.4464 78.3491 21.6003 78.7018C21.7566 79.0546 21.9744 79.3209 22.2537 79.5008C22.5331 79.6808 22.8562 79.7707 23.2232 79.7707C23.4291 79.7707 23.6197 79.7435 23.7949 79.689C23.9725 79.6346 24.1299 79.5553 24.2672 79.4511C24.4045 79.3446 24.5182 79.2156 24.6081 79.064C24.7004 78.9125 24.7644 78.7397 24.7999 78.5456L26.3553 78.5527C26.315 78.8865 26.2144 79.2085 26.0534 79.5186C25.8948 79.8264 25.6806 80.1022 25.4107 80.346C25.1432 80.5875 24.8236 80.7792 24.4519 80.9213C24.0825 81.061 23.6647 81.1308 23.1983 81.1308C22.5496 81.1308 21.9696 80.984 21.4583 80.6905C20.9493 80.3969 20.5468 79.9719 20.2509 79.4156C19.9573 78.8593 19.8105 78.1857 19.8105 77.395C19.8105 76.6019 19.9597 75.9272 20.258 75.3709C20.5563 74.8145 20.9611 74.3907 21.4725 74.0996C21.9838 73.806 22.5591 73.6592 23.1983 73.6592C23.6197 73.6592 24.0103 73.7184 24.3702 73.8368C24.7324 73.9551 25.0532 74.128 25.3325 74.3552C25.6119 74.5801 25.8392 74.8559 26.0144 75.1827C26.1919 75.5094 26.3056 75.8834 26.3553 76.3048ZM27.4295 81.0314V75.5768H28.9423V81.0314H27.4295ZM28.1894 74.8737C27.9645 74.8737 27.7716 74.7991 27.6106 74.65C27.452 74.4985 27.3727 74.3174 27.3727 74.1067C27.3727 73.8983 27.452 73.7196 27.6106 73.5704C27.7716 73.4189 27.9645 73.3432 28.1894 73.3432C28.4143 73.3432 28.6061 73.4189 28.7647 73.5704C28.9257 73.7196 29.0062 73.8983 29.0062 74.1067C29.0062 74.3174 28.9257 74.4985 28.7647 74.65C28.6061 74.7991 28.4143 74.8737 28.1894 74.8737ZM30.1541 81.0314V75.5768H31.6207V76.5285H31.6775C31.777 76.19 31.9439 75.9343 32.1783 75.7615C32.4126 75.5863 32.6825 75.4987 32.9879 75.4987C33.0637 75.4987 33.1453 75.5034 33.2329 75.5129C33.3205 75.5224 33.3975 75.5354 33.4638 75.552V76.8943C33.3927 76.873 33.2945 76.8541 33.169 76.8375C33.0435 76.8209 32.9287 76.8126 32.8246 76.8126C32.602 76.8126 32.4032 76.8612 32.228 76.9582C32.0551 77.0529 31.9178 77.1855 31.816 77.3559C31.7166 77.5264 31.6669 77.7229 31.6669 77.9454V81.0314H30.1541ZM36.4565 81.1379C35.8978 81.1379 35.4172 81.0195 35.0147 80.7828C34.6146 80.5437 34.3069 80.2122 34.0914 79.7885C33.8784 79.3647 33.7718 78.877 33.7718 78.3254C33.7718 77.7667 33.8795 77.2766 34.095 76.8552C34.3128 76.4315 34.6217 76.1012 35.0218 75.8645C35.4219 75.6254 35.8978 75.5058 36.4494 75.5058C36.9252 75.5058 37.3419 75.5922 37.6994 75.765C38.0569 75.9379 38.3398 76.1805 38.5481 76.493C38.7564 76.8055 38.8713 77.1725 38.8926 77.5939H37.465C37.4248 77.3216 37.3182 77.1026 37.1454 76.9369C36.9749 76.7688 36.7512 76.6848 36.4742 76.6848C36.2399 76.6848 36.0351 76.7487 35.8599 76.8765C35.6871 77.002 35.5521 77.1855 35.4551 77.427C35.358 77.6684 35.3095 77.9608 35.3095 78.3041C35.3095 78.6521 35.3568 78.948 35.4515 79.1919C35.5486 79.4357 35.6847 79.6216 35.8599 79.7494C36.0351 79.8773 36.2399 79.9412 36.4742 79.9412C36.6471 79.9412 36.8021 79.9057 36.9394 79.8346C37.0791 79.7636 37.1939 79.6606 37.2839 79.5257C37.3762 79.3884 37.4366 79.2238 37.465 79.0321H38.8926C38.8689 79.4487 38.7553 79.8157 38.5517 80.1329C38.3504 80.4478 38.0723 80.694 37.7171 80.8716C37.362 81.0491 36.9418 81.1379 36.4565 81.1379ZM43.359 78.7089V75.5768H44.8718V81.0314H43.4194V80.0406H43.3626C43.2395 80.3602 43.0347 80.6171 42.7482 80.8112C42.4641 81.0053 42.1173 81.1024 41.7077 81.1024C41.3431 81.1024 41.0224 81.0195 40.7454 80.8538C40.4684 80.6881 40.2518 80.4525 40.0955 80.1471C39.9416 79.8417 39.8635 79.476 39.8611 79.0498V75.5768H41.3739V78.78C41.3763 79.1019 41.4627 79.3564 41.6332 79.5434C41.8036 79.7305 42.0321 79.824 42.3185 79.824C42.5008 79.824 42.6713 79.7826 42.8299 79.6997C42.9885 79.6145 43.1163 79.489 43.2134 79.3233C43.3128 79.1576 43.3614 78.9528 43.359 78.7089ZM46.0818 81.0314V75.5768H47.5946V81.0314H46.0818ZM46.8418 74.8737C46.6169 74.8737 46.4239 74.7991 46.2629 74.65C46.1043 74.4985 46.025 74.3174 46.025 74.1067C46.025 73.8983 46.1043 73.7196 46.2629 73.5704C46.4239 73.4189 46.6169 73.3432 46.8418 73.3432C47.0667 73.3432 47.2584 73.4189 47.4171 73.5704C47.5781 73.7196 47.6585 73.8983 47.6585 74.1067C47.6585 74.3174 47.5781 74.4985 47.4171 74.65C47.2584 74.7991 47.0667 74.8737 46.8418 74.8737ZM51.7077 75.5768V76.7132H48.4229V75.5768H51.7077ZM49.1687 74.27H50.6814V79.3552C50.6814 79.4949 50.7028 79.6038 50.7454 79.6819C50.788 79.7577 50.8472 79.811 50.9229 79.8417C51.0011 79.8725 51.091 79.8879 51.1928 79.8879C51.2638 79.8879 51.3349 79.882 51.4059 79.8702C51.4769 79.8559 51.5314 79.8453 51.5692 79.8382L51.8072 80.9639C51.7314 80.9876 51.6249 81.0148 51.4876 81.0456C51.3502 81.0787 51.1833 81.0988 50.9868 81.1059C50.6223 81.1202 50.3027 81.0716 50.028 80.9603C49.7558 80.8491 49.5439 80.6763 49.3924 80.4419C49.2409 80.2075 49.1663 79.9116 49.1687 79.5541V74.27ZM55.0991 81.1379C54.5475 81.1379 54.0704 81.0207 53.668 80.7863C53.2679 80.5496 52.9589 80.2205 52.7411 79.7991C52.5233 79.3754 52.4144 78.8841 52.4144 78.3254C52.4144 77.762 52.5233 77.2695 52.7411 76.8481C52.9589 76.4244 53.2679 76.0953 53.668 75.8609C54.0704 75.6242 54.5475 75.5058 55.0991 75.5058C55.6507 75.5058 56.1265 75.6242 56.5266 75.8609C56.9291 76.0953 57.2392 76.4244 57.457 76.8481C57.6748 77.2695 57.7837 77.762 57.7837 78.3254C57.7837 78.8841 57.6748 79.3754 57.457 79.7991C57.2392 80.2205 56.9291 80.5496 56.5266 80.7863C56.1265 81.0207 55.6507 81.1379 55.0991 81.1379ZM55.1062 79.966C55.3571 79.966 55.5666 79.895 55.7347 79.753C55.9028 79.6086 56.0295 79.4121 56.1147 79.1635C56.2023 78.9149 56.2461 78.632 56.2461 78.3148C56.2461 77.9975 56.2023 77.7146 56.1147 77.466C56.0295 77.2175 55.9028 77.021 55.7347 76.8765C55.5666 76.7321 55.3571 76.6599 55.1062 76.6599C54.8528 76.6599 54.6398 76.7321 54.467 76.8765C54.2965 77.021 54.1675 77.2175 54.0799 77.466C53.9947 77.7146 53.952 77.9975 53.952 78.3148C53.952 78.632 53.9947 78.9149 54.0799 79.1635C54.1675 79.4121 54.2965 79.6086 54.467 79.753C54.6398 79.895 54.8528 79.966 55.1062 79.966ZM63.3057 77.1322L61.9208 77.2175C61.8971 77.0991 61.8462 76.9925 61.7681 76.8978C61.69 76.8008 61.587 76.7238 61.4591 76.667C61.3337 76.6078 61.1833 76.5782 61.0082 76.5782C60.7738 76.5782 60.5761 76.628 60.4151 76.7274C60.2541 76.8245 60.1736 76.9547 60.1736 77.118C60.1736 77.2482 60.2257 77.3583 60.3299 77.4483C60.4341 77.5382 60.6128 77.6104 60.8661 77.6649L61.8533 77.8638C62.3836 77.9727 62.779 78.1478 63.0394 78.3893C63.2998 78.6308 63.43 78.948 63.43 79.341C63.43 79.6985 63.3247 80.0122 63.114 80.2821C62.9056 80.552 62.6192 80.7627 62.2546 80.9142C61.8924 81.0633 61.4745 81.1379 61.0011 81.1379C60.279 81.1379 59.7037 80.9876 59.2752 80.6869C58.8491 80.3839 58.5993 79.9719 58.5259 79.4511L60.0138 79.373C60.0588 79.5932 60.1677 79.7612 60.3405 79.8773C60.5134 79.9909 60.7347 80.0477 61.0046 80.0477C61.2698 80.0477 61.4828 79.9968 61.6438 79.895C61.8072 79.7908 61.89 79.6571 61.8924 79.4937C61.89 79.3564 61.832 79.244 61.7184 79.1564C61.6047 79.0664 61.4296 78.9978 61.1928 78.9504L60.2482 78.7622C59.7155 78.6557 59.319 78.471 59.0586 78.2082C58.8005 77.9454 58.6715 77.6104 58.6715 77.2032C58.6715 76.8529 58.7662 76.551 58.9556 76.2977C59.1474 76.0444 59.4161 75.8491 59.7617 75.7118C60.1097 75.5745 60.5169 75.5058 60.9833 75.5058C61.6722 75.5058 62.2144 75.6514 62.6097 75.9426C63.0074 76.2338 63.2395 76.6303 63.3057 77.1322ZM15.5154 95.0768V87.5768H17.0069V88.493H17.0744C17.1407 88.3462 17.2366 88.1971 17.362 88.0456C17.4899 87.8917 17.6556 87.7639 17.8592 87.6621C18.0651 87.5579 18.3208 87.5058 18.6262 87.5058C19.024 87.5058 19.3909 87.61 19.7271 87.8183C20.0633 88.0243 20.332 88.3356 20.5332 88.7523C20.7344 89.1666 20.835 89.6862 20.835 90.3112C20.835 90.9196 20.7368 91.4334 20.5403 91.8524C20.3462 92.2691 20.081 92.5851 19.7448 92.8005C19.411 93.0136 19.037 93.1202 18.6227 93.1202C18.3291 93.1202 18.0794 93.0716 17.8734 92.9746C17.6698 92.8775 17.5029 92.7556 17.3727 92.6088C17.2425 92.4596 17.143 92.3093 17.0744 92.1578H17.0282V95.0768H15.5154ZM16.9963 90.3041C16.9963 90.6284 17.0412 90.9113 17.1312 91.1528C17.2212 91.3943 17.3514 91.5825 17.5218 91.7175C17.6923 91.85 17.8994 91.9163 18.1433 91.9163C18.3895 91.9163 18.5978 91.8488 18.7683 91.7139C18.9387 91.5766 19.0678 91.3872 19.1553 91.1457C19.2453 90.9019 19.2903 90.6213 19.2903 90.3041C19.2903 89.9892 19.2465 89.7122 19.1589 89.4731C19.0713 89.234 18.9423 89.047 18.7718 88.9121C18.6014 88.7771 18.3919 88.7096 18.1433 88.7096C17.8971 88.7096 17.6887 88.7747 17.5183 88.905C17.3502 89.0352 17.2212 89.2198 17.1312 89.4589C17.0412 89.698 16.9963 89.9798 16.9963 90.3041ZM21.8436 93.0314V87.5768H23.3102V88.5285H23.367C23.4664 88.19 23.6333 87.9343 23.8677 87.7615C24.1021 87.5863 24.372 87.4987 24.6774 87.4987C24.7531 87.4987 24.8348 87.5034 24.9224 87.5129C25.01 87.5224 25.0869 87.5354 25.1532 87.552V88.8943C25.0822 88.873 24.9839 88.8541 24.8585 88.8375C24.733 88.8209 24.6182 88.8126 24.514 88.8126C24.2915 88.8126 24.0926 88.8612 23.9174 88.9582C23.7446 89.0529 23.6073 89.1855 23.5055 89.3559C23.4061 89.5264 23.3563 89.7229 23.3563 89.9454V93.0314H21.8436ZM28.1459 93.1379C27.5943 93.1379 27.1173 93.0207 26.7148 92.7863C26.3147 92.5496 26.0058 92.2205 25.788 91.7991C25.5702 91.3754 25.4613 90.8841 25.4613 90.3254C25.4613 89.762 25.5702 89.2695 25.788 88.8481C26.0058 88.4244 26.3147 88.0953 26.7148 87.8609C27.1173 87.6242 27.5943 87.5058 28.1459 87.5058C28.6975 87.5058 29.1734 87.6242 29.5735 87.8609C29.976 88.0953 30.2861 88.4244 30.5039 88.8481C30.7217 89.2695 30.8306 89.762 30.8306 90.3254C30.8306 90.8841 30.7217 91.3754 30.5039 91.7991C30.2861 92.2205 29.976 92.5496 29.5735 92.7863C29.1734 93.0207 28.6975 93.1379 28.1459 93.1379ZM28.153 91.966C28.404 91.966 28.6135 91.895 28.7816 91.753C28.9497 91.6086 29.0763 91.4121 29.1616 91.1635C29.2492 90.9149 29.293 90.632 29.293 90.3148C29.293 89.9975 29.2492 89.7146 29.1616 89.466C29.0763 89.2175 28.9497 89.021 28.7816 88.8765C28.6135 88.7321 28.404 88.6599 28.153 88.6599C27.8997 88.6599 27.6867 88.7321 27.5138 88.8765C27.3434 89.021 27.2144 89.2175 27.1268 89.466C27.0415 89.7146 26.9989 89.9975 26.9989 90.3148C26.9989 90.632 27.0415 90.9149 27.1268 91.1635C27.2144 91.4121 27.3434 91.6086 27.5138 91.753C27.6867 91.895 27.8997 91.966 28.153 91.966ZM34.7155 87.5768V88.7132H31.4307V87.5768H34.7155ZM32.1765 86.27H33.6893V91.3552C33.6893 91.4949 33.7106 91.6038 33.7532 91.6819C33.7958 91.7577 33.855 91.811 33.9307 91.8417C34.0089 91.8725 34.0988 91.8879 34.2006 91.8879C34.2716 91.8879 34.3427 91.882 34.4137 91.8702C34.4847 91.8559 34.5392 91.8453 34.577 91.8382L34.815 92.9639C34.7392 92.9876 34.6327 93.0148 34.4954 93.0456C34.3581 93.0787 34.1912 93.0988 33.9947 93.1059C33.6301 93.1202 33.3105 93.0716 33.0359 92.9603C32.7636 92.8491 32.5517 92.6763 32.4002 92.4419C32.2487 92.2075 32.1741 91.9116 32.1765 91.5541V86.27ZM38.1282 93.1379C37.5671 93.1379 37.0841 93.0243 36.6793 92.797C36.2769 92.5674 35.9667 92.243 35.7489 91.824C35.5311 91.4026 35.4222 90.9042 35.4222 90.329C35.4222 89.7679 35.5311 89.2755 35.7489 88.8517C35.9667 88.4279 36.2733 88.0977 36.6687 87.8609C37.0664 87.6242 37.5328 87.5058 38.0678 87.5058C38.4277 87.5058 38.7627 87.5638 39.0728 87.6798C39.3853 87.7934 39.6575 87.9651 39.8895 88.1947C40.1239 88.4244 40.3062 88.7132 40.4364 89.0612C40.5666 89.4068 40.6317 89.8117 40.6317 90.2757V90.6912H36.0259V89.7537H39.2077C39.2077 89.5359 39.1604 89.3429 39.0657 89.1748C38.971 89.0068 38.8396 88.8754 38.6715 88.7807C38.5058 88.6836 38.3128 88.6351 38.0927 88.6351C37.863 88.6351 37.6594 88.6883 37.4819 88.7949C37.3067 88.899 37.1694 89.0399 37.0699 89.2175C36.9705 89.3926 36.9196 89.588 36.9172 89.8034V90.6947C36.9172 90.9646 36.967 91.1978 37.0664 91.3943C37.1682 91.5908 37.3114 91.7423 37.4961 91.8488C37.6807 91.9554 37.8997 92.0086 38.153 92.0086C38.3211 92.0086 38.475 91.985 38.6147 91.9376C38.7544 91.8903 38.8739 91.8193 38.9734 91.7246C39.0728 91.6299 39.1485 91.5139 39.2006 91.3765L40.5998 91.4689C40.5287 91.805 40.3832 92.0986 40.163 92.3496C39.9452 92.5981 39.6635 92.7923 39.3178 92.9319C38.9745 93.0693 38.578 93.1379 38.1282 93.1379ZM44.0763 95.1905C43.5863 95.1905 43.1661 95.123 42.8157 94.988C42.4677 94.8555 42.1907 94.6744 41.9847 94.4447C41.7787 94.2151 41.645 93.957 41.5834 93.6706L42.9826 93.4824C43.0252 93.5913 43.0927 93.6931 43.185 93.7878C43.2773 93.8825 43.3993 93.9582 43.5508 94.015C43.7046 94.0742 43.8917 94.1038 44.1118 94.1038C44.4409 94.1038 44.712 94.0233 44.9251 93.8623C45.1405 93.7037 45.2482 93.4374 45.2482 93.0633V92.0655H45.1843C45.118 92.217 45.0186 92.3602 44.886 92.4952C44.7534 92.6301 44.583 92.7402 44.3746 92.8254C44.1663 92.9106 43.9177 92.9532 43.6289 92.9532C43.2193 92.9532 42.8465 92.8586 42.5103 92.6692C42.1765 92.4774 41.9101 92.185 41.7113 91.792C41.5148 91.3967 41.4165 90.8971 41.4165 90.2934C41.4165 89.6755 41.5171 89.1594 41.7184 88.7452C41.9196 88.3309 42.1871 88.0207 42.5209 87.8148C42.8571 87.6088 43.2252 87.5058 43.6253 87.5058C43.9307 87.5058 44.1864 87.5579 44.3924 87.6621C44.5984 87.7639 44.7641 87.8917 44.8895 88.0456C45.0174 88.1971 45.1156 88.3462 45.1843 88.493H45.2411V87.5768H46.7432V93.0846C46.7432 93.5487 46.6296 93.9369 46.4023 94.2494C46.1751 94.5619 45.8602 94.7963 45.4577 94.9525C45.0576 95.1112 44.5972 95.1905 44.0763 95.1905ZM44.1083 91.8169C44.3521 91.8169 44.5581 91.7565 44.7262 91.6358C44.8966 91.5127 45.0269 91.3375 45.1168 91.1102C45.2091 90.8806 45.2553 90.6059 45.2553 90.2863C45.2553 89.9667 45.2103 89.6898 45.1204 89.4554C45.0304 89.2186 44.9002 89.0352 44.7297 88.905C44.5593 88.7747 44.3521 88.7096 44.1083 88.7096C43.8597 88.7096 43.6502 88.7771 43.4797 88.9121C43.3093 89.0446 43.1803 89.2293 43.0927 89.466C43.0051 89.7028 42.9613 89.9762 42.9613 90.2863C42.9613 90.6012 43.0051 90.8735 43.0927 91.1031C43.1826 91.3304 43.3117 91.5068 43.4797 91.6322C43.6502 91.7553 43.8597 91.8169 44.1083 91.8169ZM47.9471 93.0314V87.5768H49.4599V93.0314H47.9471ZM48.707 86.8737C48.4821 86.8737 48.2892 86.7991 48.1282 86.65C47.9696 86.4985 47.8903 86.3174 47.8903 86.1067C47.8903 85.8983 47.9696 85.7196 48.1282 85.5704C48.2892 85.4189 48.4821 85.3432 48.707 85.3432C48.9319 85.3432 49.1237 85.4189 49.2823 85.5704C49.4433 85.7196 49.5238 85.8983 49.5238 86.1067C49.5238 86.3174 49.4433 86.4985 49.2823 86.65C49.1237 86.7991 48.9319 86.8737 48.707 86.8737ZM52.6816 93.1202C52.2673 93.1202 51.8921 93.0136 51.5559 92.8005C51.2221 92.5851 50.957 92.2691 50.7605 91.8524C50.5663 91.4334 50.4693 90.9196 50.4693 90.3112C50.4693 89.6862 50.5699 89.1666 50.7711 88.7523C50.9723 88.3356 51.2399 88.0243 51.5737 87.8183C51.9098 87.61 52.278 87.5058 52.6781 87.5058C52.9835 87.5058 53.238 87.5579 53.4416 87.6621C53.6475 87.7639 53.8133 87.8917 53.9387 88.0456C54.0666 88.1971 54.1636 88.3462 54.2299 88.493H54.2761V85.7586H55.7853V93.0314H54.2938V92.1578H54.2299C54.1589 92.3093 54.0583 92.4596 53.9281 92.6088C53.8002 92.7556 53.6333 92.8775 53.4274 92.9746C53.2238 93.0716 52.9752 93.1202 52.6816 93.1202ZM53.161 91.9163C53.4049 91.9163 53.6108 91.85 53.7789 91.7175C53.9494 91.5825 54.0796 91.3943 54.1696 91.1528C54.2619 90.9113 54.308 90.6284 54.308 90.3041C54.308 89.9798 54.2631 89.698 54.1731 89.4589C54.0831 89.2198 53.9529 89.0352 53.7825 88.905C53.612 88.7747 53.4049 88.7096 53.161 88.7096C52.9124 88.7096 52.7029 88.7771 52.5325 88.9121C52.362 89.047 52.233 89.234 52.1454 89.4731C52.0578 89.7122 52.014 89.9892 52.014 90.3041C52.014 90.6213 52.0578 90.9019 52.1454 91.1457C52.2354 91.3872 52.3644 91.5766 52.5325 91.7139C52.7029 91.8488 52.9124 91.9163 53.161 91.9163ZM59.4936 93.1379C58.942 93.1379 58.4649 93.0207 58.0625 92.7863C57.6624 92.5496 57.3534 92.2205 57.1356 91.7991C56.9178 91.3754 56.8089 90.8841 56.8089 90.3254C56.8089 89.762 56.9178 89.2695 57.1356 88.8481C57.3534 88.4244 57.6624 88.0953 58.0625 87.8609C58.4649 87.6242 58.942 87.5058 59.4936 87.5058C60.0452 87.5058 60.5211 87.6242 60.9211 87.8609C61.3236 88.0953 61.6337 88.4244 61.8515 88.8481C62.0694 89.2695 62.1783 89.762 62.1783 90.3254C62.1783 90.8841 62.0694 91.3754 61.8515 91.7991C61.6337 92.2205 61.3236 92.5496 60.9211 92.7863C60.5211 93.0207 60.0452 93.1379 59.4936 93.1379ZM59.5007 91.966C59.7516 91.966 59.9612 91.895 60.1292 91.753C60.2973 91.6086 60.424 91.4121 60.5092 91.1635C60.5968 90.9149 60.6406 90.632 60.6406 90.3148C60.6406 89.9975 60.5968 89.7146 60.5092 89.466C60.424 89.2175 60.2973 89.021 60.1292 88.8765C59.9612 88.7321 59.7516 88.6599 59.5007 88.6599C59.2474 88.6599 59.0343 88.7321 58.8615 88.8765C58.691 89.021 58.562 89.2175 58.4744 89.466C58.3892 89.7146 58.3466 89.9975 58.3466 90.3148C58.3466 90.632 58.3892 90.9149 58.4744 91.1635C58.562 91.4121 58.691 91.6086 58.8615 91.753C59.0343 91.895 59.2474 91.966 59.5007 91.966ZM67.7003 89.1322L66.3153 89.2175C66.2917 89.0991 66.2408 88.9925 66.1626 88.8978C66.0845 88.8008 65.9815 88.7238 65.8537 88.667C65.7282 88.6078 65.5779 88.5782 65.4027 88.5782C65.1683 88.5782 64.9706 88.628 64.8096 88.7274C64.6487 88.8245 64.5682 88.9547 64.5682 89.118C64.5682 89.2482 64.6203 89.3583 64.7244 89.4483C64.8286 89.5382 65.0073 89.6104 65.2606 89.6649L66.2479 89.8638C66.7782 89.9727 67.1735 90.1478 67.4339 90.3893C67.6944 90.6308 67.8246 90.948 67.8246 91.341C67.8246 91.6985 67.7192 92.0122 67.5085 92.2821C67.3002 92.552 67.0137 92.7627 66.6491 92.9142C66.2869 93.0633 65.8691 93.1379 65.3956 93.1379C64.6735 93.1379 64.0982 92.9876 63.6697 92.6869C63.2436 92.3839 62.9938 91.9719 62.9204 91.4511L64.4084 91.373C64.4533 91.5932 64.5622 91.7612 64.7351 91.8773C64.9079 91.9909 65.1292 92.0477 65.3991 92.0477C65.6643 92.0477 65.8774 91.9968 66.0383 91.895C66.2017 91.7908 66.2845 91.6571 66.2869 91.4937C66.2845 91.3564 66.2265 91.244 66.1129 91.1564C65.9993 91.0664 65.8241 90.9978 65.5873 90.9504L64.6427 90.7622C64.1101 90.6557 63.7135 90.471 63.4531 90.2082C63.1951 89.9454 63.066 89.6104 63.066 89.2032C63.066 88.8529 63.1607 88.551 63.3501 88.2977C63.5419 88.0444 63.8106 87.8491 64.1562 87.7118C64.5042 87.5745 64.9114 87.5058 65.3778 87.5058C66.0667 87.5058 66.6089 87.6514 67.0042 87.9426C67.402 88.2338 67.634 88.6303 67.7003 89.1322Z" fill="black"/>
<path d="M27.5 24.75C27.5 23.8217 27.8687 22.9315 28.5251 22.2751C29.1815 21.6187 30.0717 21.25 31 21.25H45C45.9283 21.25 46.8185 21.6187 47.4749 22.2751C48.1313 22.9315 48.5 23.8217 48.5 24.75V35.25C48.5 36.1783 48.1313 37.0685 47.4749 37.7249C46.8185 38.3813 45.9283 38.75 45 38.75H31C30.0717 38.75 29.1815 38.3813 28.5251 37.7249C27.8687 37.0685 27.5 36.1783 27.5 35.25V24.75ZM50.25 34.662V25.331L54.1962 23.1085C54.3294 23.0336 54.4799 22.995 54.6326 22.9963C54.7854 22.9976 54.9351 23.0389 55.067 23.1161C55.1988 23.1932 55.3081 23.3036 55.3841 23.4361C55.4601 23.5686 55.5 23.7187 55.5 23.8715V36.125C55.4999 36.2779 55.4598 36.428 55.3836 36.5606C55.3074 36.6931 55.1978 36.8034 55.0658 36.8804C54.9337 36.9574 54.7838 36.9984 54.6309 36.9995C54.4781 37.0005 54.3276 36.9615 54.1945 36.8863L50.25 34.6638V34.662ZM36.25 40.0625H41.5V40.9375C41.5 42.678 40.8086 44.3472 39.5779 45.5779C38.3472 46.8086 36.678 47.5 34.9375 47.5H30.125C29.8929 47.5 29.6704 47.4078 29.5063 47.2437C29.3422 47.0796 29.25 46.8571 29.25 46.625V43.5625C29.25 43.3304 29.3422 43.1079 29.5063 42.9438C29.6704 42.7797 29.8929 42.6875 30.125 42.6875H34.9375C35.2856 42.6875 35.6194 42.5492 35.8656 42.3031C36.1117 42.0569 36.25 41.7231 36.25 41.375V40.0625Z" fill="black"/>
</svg>
