<svg width="84" height="96" viewBox="0 0 84 96" fill="none" xmlns="http://www.w3.org/2000/svg">
<circle cx="41.6094" cy="34.291" r="34.291" fill="#C9C9C9"/>
<path d="M38.1818 39.7778H46.4545C48.2109 39.7778 49.6364 38.16 49.6364 36.1667C49.6364 34.1733 48.2109 32.5556 46.4545 32.5556H46.3909C46.0855 30.1144 44.24 28.2222 42 28.2222C40.2182 28.2222 38.6909 29.4211 37.9782 31.14H37.7745C35.8527 31.3711 34.3636 33.2056 34.3636 35.4444C34.3636 37.8422 36.0691 39.7778 38.1818 39.7778ZM53.4545 21H30.5455C29.1455 21 28 22.3 28 23.8889V44.1111C28 45.7 29.1455 47 30.5455 47H53.4545C54.8545 47 56 45.7 56 44.1111V23.8889C56 22.3 54.8545 21 53.4545 21ZM53.4545 44.1256H30.5455V23.8744H53.4545V44.1256V44.1256Z" fill="black"/>
<path d="M1.92923 81.0314H0.281501L2.79215 73.7586H4.77369L7.28079 81.0314H5.63306L3.81133 75.4206H3.75451L1.92923 81.0314ZM1.82625 78.1727H5.71829V79.373H1.82625V78.1727ZM9.64052 73.7586V81.0314H8.12774V73.7586H9.64052ZM10.8523 81.0314V75.5768H12.2941V76.5392H12.358C12.4717 76.2196 12.6611 75.9675 12.9262 75.7828C13.1914 75.5981 13.5086 75.5058 13.8779 75.5058C14.252 75.5058 14.5704 75.5993 14.8332 75.7863C15.096 75.971 15.2711 76.2219 15.3587 76.5392H15.4156C15.5268 76.2267 15.7281 75.9769 16.0193 75.7899C16.3128 75.6005 16.6596 75.5058 17.0597 75.5058C17.5687 75.5058 17.9818 75.668 18.2991 75.9923C18.6187 76.3143 18.7785 76.7712 18.7785 77.363V81.0314H17.2693V77.6613C17.2693 77.3583 17.1888 77.131 17.0278 76.9795C16.8668 76.828 16.6656 76.7523 16.4241 76.7523C16.1495 76.7523 15.9352 76.8398 15.7813 77.015C15.6274 77.1879 15.5505 77.4163 15.5505 77.7004V81.0314H14.0839V77.6294C14.0839 77.3619 14.0069 77.1488 13.8531 76.9902C13.7015 76.8316 13.5015 76.7523 13.2529 76.7523C13.0848 76.7523 12.9333 76.7949 12.7984 76.8801C12.6658 76.963 12.5604 77.0801 12.4823 77.2317C12.4042 77.3808 12.3651 77.556 12.3651 77.7572V81.0314H10.8523ZM21.5288 81.1344C21.1808 81.1344 20.8707 81.074 20.5984 80.9532C20.3262 80.8301 20.1108 80.649 19.9521 80.4099C19.7959 80.1684 19.7178 79.8678 19.7178 79.5079C19.7178 79.2049 19.7734 78.9504 19.8847 78.7444C19.9959 78.5385 20.1474 78.3728 20.3392 78.2473C20.531 78.1218 20.7488 78.0271 20.9926 77.9632C21.2388 77.8993 21.4969 77.8543 21.7668 77.8282C22.084 77.7951 22.3397 77.7643 22.5338 77.7359C22.7279 77.7051 22.8688 77.6602 22.9564 77.601C23.044 77.5418 23.0878 77.4542 23.0878 77.3382V77.3169C23.0878 77.092 23.0168 76.918 22.8747 76.7949C22.735 76.6718 22.5362 76.6102 22.2781 76.6102C22.0059 76.6102 21.7893 76.6706 21.6283 76.7913C21.4673 76.9097 21.3608 77.0588 21.3087 77.2388L19.9095 77.1251C19.9805 76.7937 20.1202 76.5072 20.3286 76.2657C20.5369 76.0219 20.8056 75.8349 21.1347 75.7047C21.4661 75.5721 21.8496 75.5058 22.2852 75.5058C22.5883 75.5058 22.8783 75.5413 23.1553 75.6123C23.4346 75.6834 23.682 75.7934 23.8974 75.9426C24.1152 76.0917 24.2869 76.2835 24.4124 76.5179C24.5378 76.7499 24.6006 77.0281 24.6006 77.3524V81.0314H23.1659V80.275H23.1233C23.0357 80.4454 22.9185 80.5958 22.7717 80.726C22.625 80.8538 22.4486 80.9544 22.2426 81.0278C22.0367 81.0988 21.7987 81.1344 21.5288 81.1344ZM21.9621 80.0903C22.1846 80.0903 22.3811 80.0465 22.5516 79.9589C22.722 79.869 22.8558 79.7482 22.9528 79.5967C23.0499 79.4452 23.0984 79.2736 23.0984 79.0818V78.503C23.0511 78.5337 22.986 78.5621 22.9031 78.5882C22.8226 78.6119 22.7315 78.6344 22.6297 78.6557C22.5279 78.6746 22.4261 78.6924 22.3243 78.7089C22.2225 78.7231 22.1302 78.7362 22.0473 78.748C21.8697 78.774 21.7147 78.8155 21.5821 78.8723C21.4495 78.9291 21.3465 79.006 21.2732 79.1031C21.1998 79.1978 21.1631 79.3162 21.1631 79.4582C21.1631 79.6642 21.2376 79.8216 21.3868 79.9305C21.5383 80.0371 21.7301 80.0903 21.9621 80.0903ZM28.2387 81.1379C27.68 81.1379 27.1994 81.0195 26.7969 80.7828C26.3969 80.5437 26.0891 80.2122 25.8737 79.7885C25.6606 79.3647 25.5541 78.877 25.5541 78.3254C25.5541 77.7667 25.6618 77.2766 25.8772 76.8552C26.095 76.4315 26.404 76.1012 26.8041 75.8645C27.2041 75.6254 27.68 75.5058 28.2316 75.5058C28.7075 75.5058 29.1241 75.5922 29.4816 75.765C29.8391 75.9379 30.122 76.1805 30.3303 76.493C30.5387 76.8055 30.6535 77.1725 30.6748 77.5939H29.2472C29.207 77.3216 29.1005 77.1026 28.9276 76.9369C28.7572 76.7688 28.5335 76.6848 28.2565 76.6848C28.0221 76.6848 27.8173 76.7487 27.6421 76.8765C27.4693 77.002 27.3344 77.1855 27.2373 77.427C27.1402 77.6684 27.0917 77.9608 27.0917 78.3041C27.0917 78.6521 27.139 78.948 27.2337 79.1919C27.3308 79.4357 27.4669 79.6216 27.6421 79.7494C27.8173 79.8773 28.0221 79.9412 28.2565 79.9412C28.4293 79.9412 28.5844 79.9057 28.7217 79.8346C28.8613 79.7636 28.9762 79.6606 29.0661 79.5257C29.1585 79.3884 29.2188 79.2238 29.2472 79.0321H30.6748C30.6511 79.4487 30.5375 79.8157 30.3339 80.1329C30.1326 80.4478 29.8545 80.694 29.4994 80.8716C29.1443 81.0491 28.724 81.1379 28.2387 81.1379ZM34.1292 81.1379C33.5681 81.1379 33.0851 81.0243 32.6803 80.797C32.2778 80.5674 31.9677 80.243 31.7499 79.824C31.5321 79.4026 31.4232 78.9042 31.4232 78.329C31.4232 77.7679 31.5321 77.2755 31.7499 76.8517C31.9677 76.4279 32.2743 76.0977 32.6696 75.8609C33.0674 75.6242 33.5338 75.5058 34.0688 75.5058C34.4286 75.5058 34.7636 75.5638 35.0738 75.6798C35.3863 75.7934 35.6585 75.9651 35.8905 76.1947C36.1249 76.4244 36.3072 76.7132 36.4374 77.0612C36.5676 77.4068 36.6327 77.8117 36.6327 78.2757V78.6912H32.0269V77.7537H35.2087C35.2087 77.5359 35.1614 77.3429 35.0667 77.1748C34.972 77.0068 34.8406 76.8754 34.6725 76.7807C34.5068 76.6836 34.3138 76.6351 34.0936 76.6351C33.864 76.6351 33.6604 76.6883 33.4829 76.7949C33.3077 76.899 33.1704 77.0399 33.0709 77.2175C32.9715 77.3926 32.9206 77.588 32.9182 77.8034V78.6947C32.9182 78.9646 32.9679 79.1978 33.0674 79.3943C33.1692 79.5908 33.3124 79.7423 33.4971 79.8488C33.6817 79.9554 33.9007 80.0086 34.154 80.0086C34.3221 80.0086 34.476 79.985 34.6157 79.9376C34.7553 79.8903 34.8749 79.8193 34.9743 79.7246C35.0738 79.6299 35.1495 79.5139 35.2016 79.3765L36.6007 79.4689C36.5297 79.805 36.3841 80.0986 36.164 80.3496C35.9462 80.5981 35.6644 80.7923 35.3188 80.9319C34.9755 81.0693 34.579 81.1379 34.1292 81.1379ZM39.1327 77.878V81.0314H37.6199V75.5768H39.0617V76.5392H39.1256C39.2463 76.2219 39.4488 75.971 39.7329 75.7863C40.0169 75.5993 40.3614 75.5058 40.7662 75.5058C41.145 75.5058 41.4753 75.5887 41.757 75.7544C42.0387 75.9201 42.2577 76.1568 42.414 76.4646C42.5702 76.77 42.6483 77.1346 42.6483 77.5584V81.0314H41.1355V77.8282C41.1379 77.4944 41.0527 77.234 40.8799 77.047C40.707 76.8576 40.4691 76.7629 40.1661 76.7629C39.9625 76.7629 39.7826 76.8067 39.6263 76.8943C39.4724 76.9819 39.3517 77.1097 39.2641 77.2778C39.1789 77.4435 39.1351 77.6436 39.1327 77.878ZM45.396 81.1344C45.048 81.1344 44.7379 81.074 44.4656 80.9532C44.1934 80.8301 43.9779 80.649 43.8193 80.4099C43.6631 80.1684 43.5849 79.8678 43.5849 79.5079C43.5849 79.2049 43.6406 78.9504 43.7518 78.7444C43.8631 78.5385 44.0146 78.3728 44.2064 78.2473C44.3982 78.1218 44.616 78.0271 44.8598 77.9632C45.106 77.8993 45.3641 77.8543 45.634 77.8282C45.9512 77.7951 46.2069 77.7643 46.401 77.7359C46.5951 77.7051 46.736 77.6602 46.8236 77.601C46.9112 77.5418 46.955 77.4542 46.955 77.3382V77.3169C46.955 77.092 46.884 76.918 46.7419 76.7949C46.6022 76.6718 46.4034 76.6102 46.1453 76.6102C45.8731 76.6102 45.6564 76.6706 45.4955 76.7913C45.3345 76.9097 45.2279 77.0588 45.1759 77.2388L43.7767 77.1251C43.8477 76.7937 43.9874 76.5072 44.1957 76.2657C44.4041 76.0219 44.6728 75.8349 45.0018 75.7047C45.3333 75.5721 45.7168 75.5058 46.1524 75.5058C46.4554 75.5058 46.7455 75.5413 47.0224 75.6123C47.3018 75.6834 47.5492 75.7934 47.7646 75.9426C47.9824 76.0917 48.1541 76.2835 48.2795 76.5179C48.405 76.7499 48.4678 77.0281 48.4678 77.3524V81.0314H47.0331V80.275H46.9905C46.9029 80.4454 46.7857 80.5958 46.6389 80.726C46.4921 80.8538 46.3158 80.9544 46.1098 81.0278C45.9038 81.0988 45.6659 81.1344 45.396 81.1344ZM45.8293 80.0903C46.0518 80.0903 46.2483 80.0465 46.4188 79.9589C46.5892 79.869 46.723 79.7482 46.82 79.5967C46.9171 79.4452 46.9656 79.2736 46.9656 79.0818V78.503C46.9183 78.5337 46.8532 78.5621 46.7703 78.5882C46.6898 78.6119 46.5987 78.6344 46.4969 78.6557C46.3951 78.6746 46.2933 78.6924 46.1915 78.7089C46.0897 78.7231 45.9974 78.7362 45.9145 78.748C45.7369 78.774 45.5819 78.8155 45.4493 78.8723C45.3167 78.9291 45.2137 79.006 45.1403 79.1031C45.067 79.1978 45.0303 79.3162 45.0303 79.4582C45.0303 79.6642 45.1048 79.8216 45.254 79.9305C45.4055 80.0371 45.5973 80.0903 45.8293 80.0903ZM49.6414 81.0314V75.5768H51.0832V76.5392H51.1471C51.2607 76.2196 51.4501 75.9675 51.7153 75.7828C51.9804 75.5981 52.2977 75.5058 52.667 75.5058C53.041 75.5058 53.3594 75.5993 53.6222 75.7863C53.885 75.971 54.0602 76.2219 54.1478 76.5392H54.2046C54.3159 76.2267 54.5171 75.9769 54.8083 75.7899C55.1019 75.6005 55.4487 75.5058 55.8488 75.5058C56.3578 75.5058 56.7709 75.668 57.0881 75.9923C57.4077 76.3143 57.5675 76.7712 57.5675 77.363V81.0314H56.0583V77.6613C56.0583 77.3583 55.9778 77.131 55.8168 76.9795C55.6559 76.828 55.4546 76.7523 55.2131 76.7523C54.9385 76.7523 54.7243 76.8398 54.5704 77.015C54.4165 77.1879 54.3396 77.4163 54.3396 77.7004V81.0314H52.8729V77.6294C52.8729 77.3619 52.796 77.1488 52.6421 76.9902C52.4906 76.8316 52.2906 76.7523 52.042 76.7523C51.8739 76.7523 51.7224 76.7949 51.5874 76.8801C51.4549 76.963 51.3495 77.0801 51.2714 77.2317C51.1933 77.3808 51.1542 77.556 51.1542 77.7572V81.0314H49.6414ZM58.7625 81.0314V75.5768H60.2753V81.0314H58.7625ZM59.5224 74.8737C59.2975 74.8737 59.1046 74.7991 58.9436 74.65C58.785 74.4985 58.7057 74.3174 58.7057 74.1067C58.7057 73.8983 58.785 73.7196 58.9436 73.5704C59.1046 73.4189 59.2975 73.3432 59.5224 73.3432C59.7474 73.3432 59.9391 73.4189 60.0977 73.5704C60.2587 73.7196 60.3392 73.8983 60.3392 74.1067C60.3392 74.3174 60.2587 74.4985 60.0977 74.65C59.9391 74.7991 59.7474 74.8737 59.5224 74.8737ZM63.9729 81.1379C63.4118 81.1379 62.9289 81.0243 62.524 80.797C62.1216 80.5674 61.8114 80.243 61.5936 79.824C61.3758 79.4026 61.2669 78.9042 61.2669 78.329C61.2669 77.7679 61.3758 77.2755 61.5936 76.8517C61.8114 76.4279 62.118 76.0977 62.5134 75.8609C62.9111 75.6242 63.3775 75.5058 63.9125 75.5058C64.2724 75.5058 64.6074 75.5638 64.9175 75.6798C65.23 75.7934 65.5023 75.9651 65.7343 76.1947C65.9686 76.4244 66.1509 76.7132 66.2811 77.0612C66.4114 77.4068 66.4765 77.8117 66.4765 78.2757V78.6912H61.8706V77.7537H65.0525C65.0525 77.5359 65.0051 77.3429 64.9104 77.1748C64.8157 77.0068 64.6843 76.8754 64.5162 76.7807C64.3505 76.6836 64.1576 76.6351 63.9374 76.6351C63.7078 76.6351 63.5042 76.6883 63.3266 76.7949C63.1514 76.899 63.0141 77.0399 62.9147 77.2175C62.8152 77.3926 62.7643 77.588 62.762 77.8034V78.6947C62.762 78.9646 62.8117 79.1978 62.9111 79.3943C63.0129 79.5908 63.1561 79.7423 63.3408 79.8488C63.5255 79.9554 63.7445 80.0086 63.9978 80.0086C64.1659 80.0086 64.3197 79.985 64.4594 79.9376C64.5991 79.8903 64.7186 79.8193 64.8181 79.7246C64.9175 79.6299 64.9933 79.5139 65.0454 79.3765L66.4445 79.4689C66.3735 79.805 66.2279 80.0986 66.0077 80.3496C65.7899 80.5981 65.5082 80.7923 65.1625 80.9319C64.8193 81.0693 64.4227 81.1379 63.9729 81.1379ZM68.9765 77.878V81.0314H67.4637V75.5768H68.9054V76.5392H68.9694C69.0901 76.2219 69.2925 75.971 69.5766 75.7863C69.8607 75.5993 70.2052 75.5058 70.61 75.5058C70.9888 75.5058 71.319 75.5887 71.6008 75.7544C71.8825 75.9201 72.1015 76.1568 72.2577 76.4646C72.414 76.77 72.4921 77.1346 72.4921 77.5584V81.0314H70.9793V77.8282C70.9817 77.4944 70.8964 77.234 70.7236 77.047C70.5508 76.8576 70.3129 76.7629 70.0098 76.7629C69.8062 76.7629 69.6263 76.8067 69.4701 76.8943C69.3162 76.9819 69.1954 77.1097 69.1079 77.2778C69.0226 77.4435 68.9788 77.6436 68.9765 77.878ZM76.5857 75.5768V76.7132H73.3009V75.5768H76.5857ZM74.0466 74.27H75.5594V79.3552C75.5594 79.4949 75.5807 79.6038 75.6233 79.6819C75.6659 79.7577 75.7251 79.811 75.8009 79.8417C75.879 79.8725 75.9689 79.8879 76.0707 79.8879C76.1418 79.8879 76.2128 79.882 76.2838 79.8702C76.3548 79.8559 76.4093 79.8453 76.4472 79.8382L76.6851 80.9639C76.6093 80.9876 76.5028 81.0148 76.3655 81.0456C76.2282 81.0787 76.0613 81.0988 75.8648 81.1059C75.5002 81.1202 75.1806 81.0716 74.906 80.9603C74.6337 80.8491 74.4218 80.6763 74.2703 80.4419C74.1188 80.2075 74.0442 79.9116 74.0466 79.5541V74.27ZM79.977 81.1379C79.4254 81.1379 78.9483 81.0207 78.5459 80.7863C78.1458 80.5496 77.8368 80.2205 77.619 79.7991C77.4012 79.3754 77.2923 78.8841 77.2923 78.3254C77.2923 77.762 77.4012 77.2695 77.619 76.8481C77.8368 76.4244 78.1458 76.0953 78.5459 75.8609C78.9483 75.6242 79.4254 75.5058 79.977 75.5058C80.5286 75.5058 81.0045 75.6242 81.4046 75.8609C81.807 76.0953 82.1171 76.4244 82.3349 76.8481C82.5528 77.2695 82.6617 77.762 82.6617 78.3254C82.6617 78.8841 82.5528 79.3754 82.3349 79.7991C82.1171 80.2205 81.807 80.5496 81.4046 80.7863C81.0045 81.0207 80.5286 81.1379 79.977 81.1379ZM79.9841 79.966C80.235 79.966 80.4446 79.895 80.6126 79.753C80.7807 79.6086 80.9074 79.4121 80.9926 79.1635C81.0802 78.9149 81.124 78.632 81.124 78.3148C81.124 77.9975 81.0802 77.7146 80.9926 77.466C80.9074 77.2175 80.7807 77.021 80.6126 76.8765C80.4446 76.7321 80.235 76.6599 79.9841 76.6599C79.7308 76.6599 79.5177 76.7321 79.3449 76.8765C79.1744 77.021 79.0454 77.2175 78.9578 77.466C78.8726 77.7146 78.83 77.9975 78.83 78.3148C78.83 78.632 78.8726 78.9149 78.9578 79.1635C79.0454 79.4121 79.1744 79.6086 79.3449 79.753C79.5177 79.895 79.7308 79.966 79.9841 79.966ZM24.9885 93.1379C24.4275 93.1379 23.9445 93.0243 23.5397 92.797C23.1372 92.5674 22.8271 92.243 22.6093 91.824C22.3915 91.4026 22.2826 90.9042 22.2826 90.329C22.2826 89.7679 22.3915 89.2755 22.6093 88.8517C22.8271 88.4279 23.1337 88.0977 23.529 87.8609C23.9267 87.6242 24.3931 87.5058 24.9282 87.5058C25.288 87.5058 25.623 87.5638 25.9331 87.6798C26.2456 87.7934 26.5179 87.9651 26.7499 88.1947C26.9843 88.4244 27.1666 88.7132 27.2968 89.0612C27.427 89.4068 27.4921 89.8117 27.4921 90.2757V90.6912H22.8863V89.7537H26.0681C26.0681 89.5359 26.0207 89.3429 25.926 89.1748C25.8313 89.0068 25.6999 88.8754 25.5319 88.7807C25.3661 88.6836 25.1732 88.6351 24.953 88.6351C24.7234 88.6351 24.5198 88.6883 24.3422 88.7949C24.167 88.899 24.0297 89.0399 23.9303 89.2175C23.8309 89.3926 23.78 89.588 23.7776 89.8034V90.6947C23.7776 90.9646 23.8273 91.1978 23.9267 91.3943C24.0285 91.5908 24.1718 91.7423 24.3564 91.8488C24.5411 91.9554 24.7601 92.0086 25.0134 92.0086C25.1815 92.0086 25.3354 91.985 25.475 91.9376C25.6147 91.8903 25.7343 91.8193 25.8337 91.7246C25.9331 91.6299 26.0089 91.5139 26.061 91.3765L27.4601 91.4689C27.3891 91.805 27.2435 92.0986 27.0233 92.3496C26.8055 92.5981 26.5238 92.7923 26.1782 92.9319C25.8349 93.0693 25.4383 93.1379 24.9885 93.1379ZM29.9921 89.878V93.0314H28.4793V87.5768H29.9211V88.5392H29.985C30.1057 88.2219 30.3081 87.971 30.5922 87.7863C30.8763 87.5993 31.2208 87.5058 31.6256 87.5058C32.0044 87.5058 32.3347 87.5887 32.6164 87.7544C32.8981 87.9201 33.1171 88.1568 33.2733 88.4646C33.4296 88.77 33.5077 89.1346 33.5077 89.5584V93.0314H31.9949V89.8282C31.9973 89.4944 31.9121 89.234 31.7392 89.047C31.5664 88.8576 31.3285 88.7629 31.0255 88.7629C30.8219 88.7629 30.6419 88.8067 30.4857 88.8943C30.3318 88.9819 30.2111 89.1097 30.1235 89.2778C30.0382 89.4435 29.9945 89.6436 29.9921 89.878ZM38.5272 89.878V93.0314H37.0145V87.5768H38.4562V88.5392H38.5201C38.6409 88.2219 38.8433 87.971 39.1274 87.7863C39.4115 87.5993 39.7559 87.5058 40.1608 87.5058C40.5396 87.5058 40.8698 87.5887 41.1515 87.7544C41.4333 87.9201 41.6522 88.1568 41.8085 88.4646C41.9647 88.77 42.0429 89.1346 42.0429 89.5584V93.0314H40.5301V89.8282C40.5324 89.4944 40.4472 89.234 40.2744 89.047C40.1016 88.8576 39.8637 88.7629 39.5606 88.7629C39.357 88.7629 39.1771 88.8067 39.0208 88.8943C38.867 88.9819 38.7462 89.1097 38.6586 89.2778C38.5734 89.4435 38.5296 89.6436 38.5272 89.878ZM46.733 90.7089V87.5768H48.2458V93.0314H46.7934V92.0406H46.7366C46.6135 92.3602 46.4087 92.6171 46.1222 92.8112C45.8381 93.0053 45.4913 93.1024 45.0818 93.1024C44.7172 93.1024 44.3964 93.0195 44.1194 92.8538C43.8424 92.6881 43.6258 92.4525 43.4695 92.1471C43.3157 91.8417 43.2375 91.476 43.2352 91.0498V87.5768H44.7479V90.78C44.7503 91.1019 44.8367 91.3564 45.0072 91.5434C45.1776 91.7305 45.4061 91.824 45.6925 91.824C45.8748 91.824 46.0453 91.7826 46.2039 91.6997C46.3625 91.6145 46.4904 91.489 46.5874 91.3233C46.6869 91.1576 46.7354 90.9528 46.733 90.7089ZM49.4843 93.0314V85.7586H50.9971V88.493H51.0432C51.1095 88.3462 51.2054 88.1971 51.3309 88.0456C51.4587 87.8917 51.6244 87.7639 51.828 87.6621C52.034 87.5579 52.2897 87.5058 52.5951 87.5058C52.9928 87.5058 53.3597 87.61 53.6959 87.8183C54.0321 88.0243 54.3008 88.3356 54.502 88.7523C54.7033 89.1666 54.8039 89.6862 54.8039 90.3112C54.8039 90.9196 54.7056 91.4334 54.5091 91.8524C54.315 92.2691 54.0498 92.5851 53.7137 92.8005C53.3799 93.0136 53.0058 93.1202 52.5915 93.1202C52.298 93.1202 52.0482 93.0716 51.8422 92.9746C51.6386 92.8775 51.4717 92.7556 51.3415 92.6088C51.2113 92.4596 51.1119 92.3093 51.0432 92.1578H50.9757V93.0314H49.4843ZM50.9651 90.3041C50.9651 90.6284 51.0101 90.9113 51.1 91.1528C51.19 91.3943 51.3202 91.5825 51.4907 91.7175C51.6611 91.85 51.8683 91.9163 52.1121 91.9163C52.3583 91.9163 52.5667 91.8488 52.7371 91.7139C52.9076 91.5766 53.0366 91.3872 53.1242 91.1457C53.2141 90.9019 53.2591 90.6213 53.2591 90.3041C53.2591 89.9892 53.2153 89.7122 53.1277 89.4731C53.0401 89.234 52.9111 89.047 52.7407 88.9121C52.5702 88.7771 52.3607 88.7096 52.1121 88.7096C51.8659 88.7096 51.6576 88.7747 51.4871 88.905C51.319 89.0352 51.19 89.2198 51.1 89.4589C51.0101 89.698 50.9651 89.9798 50.9651 90.3041ZM58.2991 93.1379C57.738 93.1379 57.255 93.0243 56.8502 92.797C56.4478 92.5674 56.1376 92.243 55.9198 91.824C55.702 91.4026 55.5931 90.9042 55.5931 90.329C55.5931 89.7679 55.702 89.2755 55.9198 88.8517C56.1376 88.4279 56.4442 88.0977 56.8396 87.8609C57.2373 87.6242 57.7037 87.5058 58.2387 87.5058C58.5986 87.5058 58.9335 87.5638 59.2437 87.6798C59.5562 87.7934 59.8284 87.9651 60.0604 88.1947C60.2948 88.4244 60.4771 88.7132 60.6073 89.0612C60.7375 89.4068 60.8026 89.8117 60.8026 90.2757V90.6912H56.1968V89.7537H59.3786C59.3786 89.5359 59.3313 89.3429 59.2366 89.1748C59.1419 89.0068 59.0105 88.8754 58.8424 88.7807C58.6767 88.6836 58.4837 88.6351 58.2636 88.6351C58.0339 88.6351 57.8303 88.6883 57.6528 88.7949C57.4776 88.899 57.3403 89.0399 57.2408 89.2175C57.1414 89.3926 57.0905 89.588 57.0881 89.8034V90.6947C57.0881 90.9646 57.1379 91.1978 57.2373 91.3943C57.3391 91.5908 57.4823 91.7423 57.667 91.8488C57.8516 91.9554 58.0706 92.0086 58.3239 92.0086C58.492 92.0086 58.6459 91.985 58.7856 91.9376C58.9253 91.8903 59.0448 91.8193 59.1442 91.7246C59.2437 91.6299 59.3194 91.5139 59.3715 91.3765L60.7707 91.4689C60.6996 91.805 60.5541 92.0986 60.3339 92.3496C60.1161 92.5981 59.8344 92.7923 59.4887 92.9319C59.1454 93.0693 58.7489 93.1379 58.2991 93.1379Z" fill="black"/>
</svg>
